<svg xmlns="http://www.w3.org/2000/svg"><metadata/><defs><font id="clear_sansbold" horiz-adv-x="1044"><font-face ascent="1489" descent="-559" units-per-em="2048"/><glyph d="M35 844v205h133v102q0 195 96.5 282t290.5 87q91 0 193 -25l-50 -225q-72 24 -139 24q-76 0 -104.5 -31.5t-28.5 -111.5v-102h213v-205h-213v-844h-258v844h-133zM694 844v205h133v102q0 195 96.5 282t290.5 87q91 0 193 -25l-50 -225q-72 24 -139 24q-76 0 -104.5 -31.5 t-28.5 -111.5v-102h213v-205h-213v-844h-258v844h-133z" horiz-adv-x="1319" unicode="ff"/><glyph d="M35 844v205h133v102q0 195 96.5 282t290.5 87q91 0 193 -25l-50 -225q-72 24 -139 24q-76 0 -104.5 -31.5t-28.5 -111.5v-102h213v-205h-213v-844h-258v844h-133zM790 1335q0 70 32 100.5t109 30.5q78 0 112 -29.5t34 -101.5q0 -73 -36 -102t-110 -29q-82 0 -111.5 34 t-29.5 97zM804 0v1049h258v-1049h-258z" horiz-adv-x="1208" unicode="fi"/><glyph d="M35 844v205h133v102q0 195 96.5 282t290.5 87q91 0 193 -25l-50 -225q-72 24 -139 24q-76 0 -104.5 -31.5t-28.5 -111.5v-102h213v-205h-213v-844h-258v844h-133zM804 0v1489h258v-1489h-258z" horiz-adv-x="1208" unicode="fl"/><glyph d="M35 844v205h133v102q0 195 96.5 282t290.5 87q91 0 193 -25l-50 -225q-72 24 -139 24q-76 0 -104.5 -31.5t-28.5 -111.5v-102h213v-205h-213v-844h-258v844h-133zM694 844v205h133v102q0 195 96.5 282t290.5 87q91 0 193 -25l-50 -225q-72 24 -139 24q-76 0 -104.5 -31.5 t-28.5 -111.5v-102h213v-205h-213v-844h-258v844h-133zM1450 1335q0 70 32 100.5t109 30.5q78 0 112 -29.5t34 -101.5q0 -73 -36 -102t-110 -29q-82 0 -111.5 34t-29.5 97zM1464 0v1049h258v-1049h-258z" horiz-adv-x="1868" unicode="ffi"/><glyph d="M35 844v205h133v102q0 195 96.5 282t290.5 87q91 0 193 -25l-50 -225q-72 24 -139 24q-76 0 -104.5 -31.5t-28.5 -111.5v-102h213v-205h-213v-844h-258v844h-133zM694 844v205h133v102q0 195 96.5 282t290.5 87q91 0 193 -25l-50 -225q-72 24 -139 24q-76 0 -104.5 -31.5 t-28.5 -111.5v-102h213v-205h-213v-844h-258v844h-133zM1464 0v1489h258v-1489h-258z" horiz-adv-x="1868" unicode="ffl"/><glyph horiz-adv-x="0"/><glyph horiz-adv-x="0"/><glyph horiz-adv-x="492"/><glyph horiz-adv-x="492"/><glyph horiz-adv-x="492"/><glyph d="M129 139q0 82 36 118t126 36q92 0 128 -35t36 -119q0 -86 -39 -119.5t-125 -33.5q-94 0 -128 37.5t-34 115.5zM152 1384h280l-31 -944h-215z" horiz-adv-x="584" unicode="!"/><glyph d="M137 1384h275l-45 -612h-185zM565 1384h275l-45 -612h-185z" horiz-adv-x="977" unicode="&quot;"/><glyph d="M72 383v180h280l70 258h-234v180h283l104 385h193l-104 -385h247l105 385h192l-104 -385h229v-180h-278l-70 -258h232v-180h-279l-104 -383h-193l104 383h-247l-105 -383h-192l104 383h-233zM545 563h248l69 258h-248z" horiz-adv-x="1405" unicode="#"/><glyph d="M123 291l205 139q37 -49 99 -94t134 -53v315q-164 41 -246.5 86.5t-125 112.5t-42.5 159q0 160 111 247t303 104v106h180v-106q144 -11 247.5 -69t162.5 -155l-193 -137q-34 47 -90.5 87t-126.5 50v-280q191 -50 269 -96t118.5 -112.5t40.5 -164.5q0 -166 -111.5 -258 t-316.5 -109v-196h-180v192q-310 32 -438 232zM414 971q0 -39 30.5 -68t116.5 -53v237q-65 -4 -106 -32.5t-41 -83.5zM741 281q74 8 118 41.5t44 85.5q0 51 -34.5 83.5t-127.5 61.5v-272z" horiz-adv-x="1280" unicode="$"/><glyph d="M88 963q0 221 101.5 335.5t289.5 114.5q192 0 292.5 -116t100.5 -334q0 -216 -101 -330.5t-292 -114.5q-185 0 -288 114.5t-103 330.5zM334 963q0 -152 37 -208.5t108 -56.5q80 0 114 63.5t34 201.5q0 136 -32 203t-116 67q-78 0 -111.5 -64.5t-33.5 -205.5zM590 -51 l747 1487h238l-750 -1487h-235zM1290 414q0 219 100 334.5t291 115.5q193 0 293.5 -116t100.5 -334q0 -216 -102.5 -330.5t-291.5 -114.5q-185 0 -288 114.5t-103 330.5zM1536 414q0 -152 37 -208t108 -56q81 0 114.5 63.5t33.5 200.5q0 97 -16 158t-45 86.5t-87 25.5 q-78 0 -111.5 -64.5t-33.5 -205.5z" horiz-adv-x="2163" unicode="%"/><glyph d="M92 373q0 131 57.5 217t231.5 194q-59 72 -101 148t-42 153q0 160 106 244t303 84q165 0 271 -74t106 -209q0 -72 -31 -136t-85 -120t-165 -129l263 -309q64 87 102 230l227 -52q-51 -211 -176 -356l217 -258h-327l-72 86q-72 -49 -158 -82t-215 -33q-237 0 -374.5 109 t-137.5 293zM358 371q0 -90 67 -140.5t183 -50.5q129 0 226 76l-308 356q-94 -59 -131 -114.5t-37 -126.5zM500 1096q0 -41 23.5 -81t70.5 -93q65 43 103.5 77.5t52.5 61t14 67.5t-34 68t-89 27q-70 0 -105.5 -34t-35.5 -93z" horiz-adv-x="1417" unicode="&amp;"/><glyph d="M137 1384h275l-45 -612h-185z" horiz-adv-x="549" unicode="'"/><glyph d="M113 561q0 528 409 961h293q-217 -205 -337 -438.5t-120 -522.5t120 -520t337 -436h-293q-409 433 -409 956z" horiz-adv-x="856" unicode="("/><glyph d="M41 -395q217 205 337 436t120 520t-120 522.5t-337 438.5h293q409 -433 409 -961q0 -523 -409 -956h-293z" horiz-adv-x="856" unicode=")"/><glyph d="M31 983l282 141l-282 146l90 149l258 -159l-10 260h174l-13 -260l261 159l90 -151l-283 -142l283 -143l-90 -149l-259 159l11 -260h-174l12 260l-260 -159z" horiz-adv-x="911" unicode="*"/><glyph d="M133 479v205h479v479h205v-479h477v-205h-477v-477h-205v477h-479z" horiz-adv-x="1427" unicode="+"/><glyph d="M129 145q0 74 35 117t131 43q160 0 160 -180q0 -123 -42 -234.5t-91 -183.5h-177q41 69 72.5 151t36.5 132q-66 4 -95.5 42t-29.5 113z" horiz-adv-x="584" unicode=","/><glyph d="M82 399v254h623v-254h-623z" horiz-adv-x="786" unicode="-"/><glyph d="M129 145q0 82 36 121t126 39q92 0 128 -38t36 -122q0 -86 -39 -122.5t-125 -36.5q-94 0 -128 41t-34 118z" horiz-adv-x="584" unicode="."/><glyph d="M-12 -299l690 1819h256l-692 -1819h-254z" horiz-adv-x="1036" unicode="/"/><glyph d="M100 690q0 371 131 547t408 176q279 0 410 -175t131 -546q0 -373 -131 -548t-410 -175q-277 0 -408 175t-131 546zM391 690q0 -248 59.5 -363.5t188.5 -115.5t189.5 116.5t60.5 364.5t-60.5 363.5t-189.5 115.5t-188.5 -116.5t-59.5 -364.5z" horiz-adv-x="1280" unicode="0"/><glyph d="M248 928v190q144 9 217.5 34.5t117 79.5t68.5 152h215v-1384h-282v928h-336z" horiz-adv-x="1280" unicode="1"/><glyph d="M102 1178q85 127 201.5 181t290.5 54q214 0 337.5 -100t123.5 -281q0 -133 -48.5 -233.5t-138 -195t-223 -208.5t-164.5 -137h619v-258h-994v236q163 137 297 262t207 207.5t113.5 158t40.5 158.5q0 65 -49 103t-135 38q-93 0 -152 -43t-98 -102z" horiz-adv-x="1204" unicode="2"/><glyph d="M66 195l227 155q37 -57 92 -92t150 -35q120 0 174.5 46t54.5 141q0 192 -254 192h-123v242h107q127 0 185 50t58 130q0 59 -42 98t-138 39t-153.5 -30.5t-98.5 -92.5l-225 158q82 111 198.5 164t299.5 53q139 0 242.5 -43.5t156.5 -120.5t53 -176q0 -271 -280 -340 q137 -9 221 -103.5t84 -240.5q0 -213 -139.5 -315.5t-383.5 -102.5q-174 0 -294.5 63.5t-171.5 160.5z" horiz-adv-x="1204" unicode="3"/><glyph d="M63 229v260l676 895h289v-913h170v-242h-170v-229h-270v229h-695zM338 471h420v543z" horiz-adv-x="1280" unicode="4"/><glyph d="M49 199l225 159q77 -135 261 -135q276 0 276 238q0 100 -72.5 157.5t-201.5 57.5q-138 0 -209 -74h-197l82 782h809v-258h-584l-28 -243q95 39 211 39q222 0 350.5 -119t128.5 -348q0 -226 -144.5 -355t-416.5 -129q-339 0 -490 228z" horiz-adv-x="1204" unicode="5"/><glyph d="M100 608q0 392 147 598.5t429 206.5q267 0 395 -113l-160 -217q-49 43 -104 65.5t-131 22.5q-135 0 -196.5 -92t-78.5 -262q80 54 143.5 75t151.5 21q195 0 309.5 -119.5t114.5 -344.5q0 -222 -134 -350t-363 -128q-250 0 -386.5 165.5t-136.5 471.5zM393 598 q0 -153 23 -225t73 -116t136 -44q94 0 153.5 50t59.5 179q0 106 -59 169t-158 63q-78 0 -137.5 -25.5t-90.5 -50.5z" horiz-adv-x="1204" unicode="6"/><glyph d="M113 1126v258h1038v-172l-520 -1212h-316l510 1126h-712z" horiz-adv-x="1280" unicode="7"/><glyph d="M84 375q0 123 69.5 215t186.5 145q-112 55 -167.5 133.5t-55.5 169.5q0 183 128 279t357 96q223 0 353 -93t130 -280q0 -62 -29.5 -115t-76.5 -96t-143 -96q115 -56 170 -105t83.5 -112t28.5 -141q0 -192 -133.5 -298t-382.5 -106q-246 0 -382 101.5t-136 302.5zM367 373 q0 -78 56 -128t179 -50t178.5 52t55.5 128q0 86 -57.5 143t-176.5 113q-127 -56 -181 -113t-54 -145zM393 1042q0 -45 20 -76t66.5 -65.5t122.5 -64.5q117 51 162 100t45 100q0 66 -48 111t-159 45q-119 0 -164 -45t-45 -105z" horiz-adv-x="1204" unicode="8"/><glyph d="M84 936q0 216 133.5 346.5t353.5 130.5q271 0 402 -169t131 -468q0 -386 -146.5 -595.5t-427.5 -209.5q-278 0 -413 115l157 215q101 -88 256 -88q233 0 273 354q-60 -41 -122.5 -68.5t-150.5 -27.5q-213 0 -329.5 120t-116.5 345zM365 942q0 -105 58.5 -168t160.5 -63 q78 0 137 25.5t90 49.5q0 211 -55.5 298t-180.5 87q-98 0 -154 -60.5t-56 -168.5z" horiz-adv-x="1204" unicode="9"/><glyph d="M129 145q0 82 36 121t126 39q92 0 128 -38t36 -122q0 -86 -39 -122.5t-125 -36.5q-94 0 -128 41t-34 118zM129 889q0 82 36 121t126 39q92 0 128 -38t36 -122q0 -86 -39 -123t-125 -37q-94 0 -128 41t-34 119z" horiz-adv-x="584" unicode=":"/><glyph d="M129 145q0 74 35 117t131 43q160 0 160 -180q0 -123 -42 -234.5t-91 -183.5h-177q41 69 72.5 151t36.5 132q-66 4 -95.5 42t-29.5 113zM129 889q0 82 36 121t126 39q92 0 128 -38t36 -122q0 -86 -39 -123t-125 -37q-94 0 -128 41t-34 119z" horiz-adv-x="584" unicode=";"/><glyph d="M131 481v203l1163 479v-225l-866 -354l866 -355v-225z" horiz-adv-x="1427" unicode="&lt;"/><glyph d="M133 233v205h1161v-205h-1161zM133 725v205h1161v-205h-1161z" horiz-adv-x="1427" unicode="="/><glyph d="M131 4v225l866 355l-866 354v225l1163 -479v-203z" horiz-adv-x="1427" unicode="&gt;"/><glyph d="M35 1165q69 123 184 185.5t291 62.5q238 0 363.5 -98.5t125.5 -276.5q0 -99 -40.5 -176t-114.5 -140t-240 -144v-179h-272v301q163 68 235 112t107 93t35 113q0 153 -197 153q-90 0 -144.5 -35.5t-99.5 -109.5zM309 139q0 82 36 118t126 36q92 0 128 -36t36 -118 q0 -86 -39 -119.5t-125 -33.5q-94 0 -128 37.5t-34 115.5z" horiz-adv-x="1071" unicode="?"/><glyph d="M104 553q0 239 114 436.5t319 310.5t452 113q402 0 629 -223t227 -621q0 -169 -45 -292t-135.5 -192t-224.5 -69q-99 0 -164.5 27t-93.5 98q-141 -98 -283 -98q-127 0 -215 59t-134 166.5t-46 249.5q0 231 113 367.5t315 136.5q113 0 231 -70v41h215v-696q0 -66 22.5 -81 t51.5 -15q64 0 106 46t64.5 128t22.5 186q0 328 -168.5 499t-485.5 171q-195 0 -353 -88t-245.5 -244.5t-87.5 -347.5q0 -207 84.5 -361t238 -235.5t359.5 -81.5q123 0 228.5 9t220.5 36l39 -180q-190 -47 -490 -47q-260 0 -460 104.5t-310.5 302t-110.5 455.5zM725 520 q0 -143 55 -209.5t158 -66.5q89 0 223 92v422q-114 69 -198 69q-117 0 -177.5 -72.5t-60.5 -234.5z" horiz-adv-x="1950" unicode="@"/><glyph d="M27 0l458 1384h367l459 -1384h-289l-92 281h-533l-90 -281h-280zM477 528h373l-186 572z" horiz-adv-x="1337" unicode="A"/><glyph d="M150 0v1384h489q266 0 381 -77.5t115 -245.5q0 -129 -62.5 -209t-195.5 -107q174 -24 253.5 -110t79.5 -234q0 -208 -143 -304.5t-397 -96.5h-520zM432 250h143q165 0 227.5 16t91 54t28.5 106q0 93 -63 131.5t-236 38.5h-191v-346zM432 842h172q125 0 185.5 35t60.5 122 q0 79 -58 109.5t-180 30.5h-180v-297z" horiz-adv-x="1298" unicode="B"/><glyph d="M96 692q0 369 163 545t470 176q203 0 331 -68.5t195 -179.5l-219 -170q-48 72 -88 104t-91 48t-122 16q-170 0 -259 -108.5t-89 -362.5q0 -237 83.5 -354t266.5 -117q123 0 191.5 47t124.5 125l223 -164q-89 -133 -218.5 -195.5t-318.5 -62.5q-643 0 -643 721z" horiz-adv-x="1333" unicode="C"/><glyph d="M137 0v1384h418q245 0 389.5 -71t213.5 -221.5t69 -399.5q0 -250 -69 -402t-208 -221t-391 -69h-422zM420 258h108q167 0 251.5 38.5t120.5 128.5t36 269q0 181 -35.5 268.5t-120.5 125.5t-252 38h-108v-868z" horiz-adv-x="1313" unicode="D"/><glyph d="M150 0v1384h899v-249h-617v-295h520v-250h-520v-332h617v-258h-899z" horiz-adv-x="1149" unicode="E"/><glyph d="M150 0v1384h890v-258h-608v-299h510v-249h-510v-578h-282z" horiz-adv-x="1104" unicode="F"/><glyph d="M96 680q0 733 645 733q188 0 328 -63t213 -185l-217 -170q-53 86 -129 127t-191 41q-189 0 -273.5 -121.5t-84.5 -361.5q0 -238 83.5 -348.5t268.5 -110.5q140 0 258 58v215h-270v249h553v-612q-96 -72 -238.5 -116t-293.5 -44q-324 0 -488 169t-164 540z" horiz-adv-x="1415" unicode="G"/><glyph d="M150 0v1384h282v-538h545v538h283v-1384h-283v588h-545v-588h-282z" horiz-adv-x="1409" unicode="H"/><glyph d="M102 0v217h193v950h-193v217h668v-217h-192v-950h192v-217h-668z" horiz-adv-x="872" unicode="I"/><glyph d="M20 23l86 251q32 -17 102.5 -36t110.5 -19q74 0 107 20t47 70t14 144v931h283v-1007q0 -219 -110.5 -313.5t-346.5 -94.5q-51 0 -142 15t-151 39z" horiz-adv-x="924" unicode="J"/><glyph d="M150 0v1384h282v-540l453 540h329l-516 -596l553 -788h-352l-383 578l-84 -97v-481h-282z" horiz-adv-x="1280" unicode="K"/><glyph d="M150 0v1384h282v-1126h582v-258h-864z" horiz-adv-x="1038" unicode="L"/><glyph d="M150 0v1384h325l361 -657l364 657h318v-1384h-273v930l-332 -578h-163l-328 578v-930h-272z" horiz-adv-x="1667" unicode="M"/><glyph d="M150 0v1384h366l469 -933v933h277v-1384h-332l-504 989v-989h-276z" horiz-adv-x="1411" unicode="N"/><glyph d="M86 692q0 344 144.5 532.5t451.5 188.5q309 0 452.5 -188.5t143.5 -532.5q0 -361 -152.5 -541t-443.5 -180q-307 0 -451.5 189.5t-144.5 531.5zM377 692q0 -246 70.5 -358.5t234.5 -112.5q166 0 235.5 112.5t69.5 358.5t-69.5 358.5t-235.5 112.5t-235.5 -112.5 t-69.5 -358.5z" horiz-adv-x="1364" unicode="O"/><glyph d="M150 0v1384h520q235 0 363 -109.5t128 -354.5q0 -250 -117.5 -371t-381.5 -121h-230v-428h-282zM432 674h115q155 0 214.5 21.5t84 72.5t24.5 150q0 117 -64.5 169t-232.5 52h-141v-465z" horiz-adv-x="1239" unicode="P"/><glyph d="M86 692q0 346 144.5 533.5t453.5 187.5q307 0 450.5 -188.5t143.5 -532.5q0 -611 -428 -706q10 -54 43 -78.5t119 -24.5q45 0 104.5 9.5t100.5 21.5l65 -227q-34 -11 -118 -23t-160 -12q-399 0 -461 330q-213 32 -335 205t-122 505zM377 692q0 -246 69.5 -358.5 t237.5 -112.5t235.5 114t67.5 357q0 246 -69.5 358.5t-233.5 112.5q-170 0 -238.5 -112.5t-68.5 -358.5z" horiz-adv-x="1364" unicode="Q"/><glyph d="M150 0v1384h503q267 0 390.5 -96t123.5 -315q0 -177 -74.5 -282t-211.5 -134l370 -557h-323l-353 524h-143v-524h-282zM432 770h207q95 0 146 18t73.5 56t22.5 117q0 106 -53.5 142t-176.5 36h-219v-369z" horiz-adv-x="1284" unicode="R"/><glyph d="M66 229l217 166q48 -68 91 -102t102 -53t136 -19q115 0 179.5 39.5t64.5 120.5q0 46 -22.5 77t-67.5 53.5t-156 51.5q-108 29 -203.5 58.5t-165 76.5t-109.5 118t-40 179q0 197 133 307.5t381 110.5q359 0 508 -246l-215 -168q-57 88 -128 126t-169 38t-159.5 -35.5 t-61.5 -111.5q0 -67 64 -102.5t223 -71.5q88 -23 174 -49.5t153.5 -73.5t108.5 -123t41 -195q0 -208 -136.5 -319t-402.5 -111q-184 0 -319.5 61t-220.5 197z" horiz-adv-x="1229" unicode="S"/><glyph d="M35 1126v258h1134v-258h-426v-1126h-282v1126h-426z" horiz-adv-x="1204" unicode="T"/><glyph d="M150 578v806h282v-786q0 -141 27 -222t86 -119t172 -38q161 0 225 85.5t64 289.5v790h282v-806q0 -325 -132 -467t-437 -142q-302 0 -435.5 140.5t-133.5 468.5z" horiz-adv-x="1438" unicode="U"/><glyph d="M27 1384h286l312 -1032l311 1032h281l-431 -1384h-333z" horiz-adv-x="1243" unicode="V"/><glyph d="M43 1384h281l221 -903l229 903h279l231 -909l227 909h279l-358 -1384h-289l-232 915l-233 -915h-285z" horiz-adv-x="1833" unicode="W"/><glyph d="M29 0l463 694l-451 690h321l287 -466l297 466h311l-454 -684l452 -700h-317l-297 477l-301 -477h-311z" horiz-adv-x="1286" unicode="X"/><glyph d="M18 1384h308l270 -579l276 579h297l-434 -856v-528h-284v522z" horiz-adv-x="1188" unicode="Y"/><glyph d="M72 0v238l635 888h-605v258h942v-227l-641 -899h658v-258h-989z" horiz-adv-x="1147" unicode="Z"/><glyph d="M154 -395v1884h548v-207h-309v-1470h309v-207h-548z" horiz-adv-x="764" unicode="["/><glyph d="M102 1520h256l691 -1819h-254z" horiz-adv-x="1036" unicode="\"/><glyph d="M61 -188h310v1470h-310v207h549v-1884h-549v207z" horiz-adv-x="764" unicode="]"/><glyph d="M123 594l434 790h186l435 -790h-220l-307 557l-309 -557h-219z" horiz-adv-x="1300" unicode="^"/><glyph d="M-10 -154h1044v-102h-1044v102z" horiz-adv-x="1024" unicode="_"/><glyph d="M195 1569h315l188 -361h-204z" unicode="`"/><glyph d="M84 295q0 112 45.5 185t135 114.5t257.5 58.5l221 21v47q0 88 -53 120.5t-155 32.5q-84 0 -144.5 -28t-89.5 -80l-201 129q53 89 166 136.5t273 47.5q245 0 353.5 -85.5t108.5 -280.5v-713h-237v109q-153 -140 -328 -140q-174 0 -263 91.5t-89 234.5zM350 299 q0 -72 40 -98.5t106 -26.5q47 0 114.5 29.5t132.5 83.5v200l-131 -12q-139 -12 -200.5 -53t-61.5 -123z" horiz-adv-x="1139" unicode="a"/><glyph d="M145 0v1489h258v-524q142 114 314 114q211 0 309 -145.5t98 -401.5q0 -261 -109.5 -412t-312.5 -151q-80 0 -174.5 36.5t-150.5 92.5l-35 -98h-197zM403 291q43 -37 104.5 -65.5t119.5 -28.5q111 0 171 84.5t60 246.5t-51 243t-164 81q-63 0 -127.5 -29.5t-112.5 -72.5 v-459z" horiz-adv-x="1217" unicode="b"/><glyph d="M92 518q0 265 126 413t378 148q135 0 240.5 -44t160.5 -136l-192 -137q-35 47 -82 69.5t-121 22.5q-132 0 -188 -81t-56 -251t57.5 -248.5t196.5 -78.5q60 0 110 17t95 75l195 -137q-60 -89 -158 -135t-248 -46q-254 0 -384 138.5t-130 410.5z" horiz-adv-x="1059" unicode="c"/><glyph d="M92 516q0 267 115.5 415t324.5 148q74 0 152 -30.5t129 -77.5v518h258v-1489h-237v102q-72 -61 -152 -97t-182 -36q-198 0 -303 143t-105 404zM358 520q0 -151 51.5 -237t159.5 -86q64 0 130.5 29.5t113.5 72.5v459q-41 37 -101.5 65.5t-123.5 28.5q-104 0 -167 -89.5 t-63 -242.5z" horiz-adv-x="1217" unicode="d"/><glyph d="M92 516q0 563 504 563q224 0 341.5 -126.5t117.5 -368.5v-127h-697q7 -140 68 -201t192 -61q76 0 133.5 19t100.5 73l192 -137q-63 -91 -163.5 -136t-274.5 -45q-259 0 -386.5 136t-127.5 411zM365 635h434q0 239 -209 239q-69 0 -113 -23.5t-70.5 -70t-41.5 -145.5z" horiz-adv-x="1143" unicode="e"/><glyph d="M35 844v205h133v102q0 195 96.5 282t290.5 87q91 0 193 -25l-50 -225q-72 24 -139 24q-76 0 -104.5 -31.5t-28.5 -111.5v-102h213v-205h-213v-844h-258v844h-133z" horiz-adv-x="659" unicode="f"/><glyph d="M92 535q0 162 51.5 285.5t151 191t240.5 67.5q83 0 166 -36.5t139 -92.5l34 99h197v-1029q0 -210 -129 -312.5t-414 -102.5q-235 0 -411 90l76 211q163 -76 335 -76q160 0 222.5 46t62.5 155v86q-128 -117 -309 -117q-192 0 -302 138t-110 397zM358 539q0 -160 57.5 -236 t149.5 -76q128 0 248 103v428q-106 94 -231 94q-94 0 -159 -86t-65 -227z" horiz-adv-x="1217" unicode="g"/><glyph d="M145 0v1489h258v-576q82 82 175 124t182 42q176 0 247.5 -99t71.5 -280v-700h-258v578q0 166 -31 220t-110 54q-115 0 -277 -152v-700h-258z" horiz-adv-x="1217" unicode="h"/><glyph d="M131 1335q0 70 32 100.5t109 30.5q78 0 112 -29.5t34 -101.5q0 -73 -36 -102t-110 -29q-82 0 -111.5 34t-29.5 97zM145 0v1049h258v-1049h-258z" horiz-adv-x="549" unicode="i"/><glyph d="M-162 -365l56 224q73 -29 151 -29t96.5 48t18.5 159v1012h258v-1094q0 -188 -84 -269t-275 -81q-43 0 -113 9.5t-108 20.5zM145 1335q0 70 32 100.5t110 30.5t111.5 -29.5t33.5 -101.5q0 -73 -36 -102t-109 -29q-82 0 -112 34t-30 97z" horiz-adv-x="563" unicode="j"/><glyph d="M145 0v1489h258v-852l353 412h299l-396 -441l418 -608h-293l-280 434l-101 -108v-326h-258z" horiz-adv-x="1100" unicode="k"/><glyph d="M145 0v1489h258v-1489h-258z" horiz-adv-x="549" unicode="l"/><glyph d="M145 0v1049h258v-136q72 78 151 122t175 44q131 0 193.5 -45t85.5 -133q90 90 168.5 134t183.5 44q153 0 223 -87t70 -292v-700h-258v618q0 93 -11 145t-33.5 70.5t-74.5 18.5q-59 0 -125 -44t-123 -108v-700h-258v618q0 102 -9 147.5t-32 66t-78 20.5q-48 0 -111 -36.5 t-137 -115.5v-700h-258z" horiz-adv-x="1790" unicode="m"/><glyph d="M145 0v1049h258v-136q82 82 175 124t182 42q161 0 240 -88t79 -291v-700h-258v578q0 164 -29.5 219t-111.5 55q-115 0 -277 -152v-700h-258z" horiz-adv-x="1217" unicode="n"/><glyph d="M92 522q0 266 121 411.5t383 145.5q260 0 381 -145.5t121 -411.5q0 -262 -121 -407.5t-381 -145.5q-504 0 -504 553zM358 522q0 -168 55.5 -247.5t182.5 -79.5q125 0 180 78.5t55 248.5q0 173 -54 252.5t-181 79.5q-126 0 -182 -81.5t-56 -250.5z" horiz-adv-x="1190" unicode="o"/><glyph d="M145 -395v1444h238v-103q72 62 151.5 97.5t182.5 35.5q199 0 303 -140t104 -407q0 -169 -51 -298t-146 -197t-227 -68q-174 0 -297 109v-473h-258zM403 291q41 -37 101.5 -65.5t124.5 -28.5q106 0 167.5 90.5t61.5 240.5q0 153 -53 238.5t-158 85.5q-63 0 -129.5 -29.5 t-114.5 -72.5v-459z" horiz-adv-x="1217" unicode="p"/><glyph d="M92 516q0 266 114 414.5t324 148.5q95 0 178 -40t132 -89l34 99h197v-1444h-258v479q-141 -115 -313 -115q-198 0 -303 140t-105 407zM358 520q0 -153 50 -238t161 -85q64 0 130.5 29.5t113.5 72.5v459q-47 43 -107.5 68.5t-117.5 25.5q-104 0 -167 -89.5t-63 -242.5z" horiz-adv-x="1217" unicode="q"/><glyph d="M145 0v1049h258v-150q66 72 142 119t170 47q80 0 114 -21l-51 -247q-40 20 -106 20q-72 0 -136.5 -34.5t-132.5 -100.5v-682h-258z" horiz-adv-x="840" unicode="r"/><glyph d="M76 152l192 135q47 -64 108.5 -85.5t131.5 -21.5q184 0 184 107q0 47 -52 72.5t-163 52.5q-209 46 -294 130t-85 218q0 139 106.5 229t313.5 90q141 0 248.5 -45t165.5 -135l-193 -137q-69 106 -225 106q-80 0 -121 -27.5t-41 -70.5q0 -41 37 -65.5t146 -51.5 q179 -44 255.5 -87.5t116 -108t39.5 -158.5q0 -104 -52.5 -178t-149 -113t-220.5 -39q-329 0 -448 183z" horiz-adv-x="1026" unicode="s"/><glyph d="M31 844v205h133v292h258v-292h244v-205h-244v-494q0 -98 30.5 -133t86.5 -35q71 0 141 29l45 -211q-104 -31 -219 -31q-182 0 -262 82t-80 266v527h-133z" horiz-adv-x="739" unicode="t"/><glyph d="M137 348v701h258v-578q0 -111 13 -170t42.5 -81.5t86.5 -22.5q115 0 276 151v701h258v-1049h-258v135q-68 -73 -166.5 -119.5t-189.5 -46.5q-178 0 -249 98.5t-71 280.5z" horiz-adv-x="1217" unicode="u"/><glyph d="M27 1049h264l233 -691l232 691h258l-377 -1049h-238z" horiz-adv-x="1040" unicode="v"/><glyph d="M27 1049h268l162 -676l235 676h195l237 -670l156 670h258l-281 -1049h-235l-236 668l-237 -668h-236z" horiz-adv-x="1565" unicode="w"/><glyph d="M31 0l362 518l-356 531h301l209 -332l215 332h285l-361 -517l363 -532h-306l-208 334l-218 -334h-286z" horiz-adv-x="1079" unicode="x"/><glyph d="M-20 -365l55 224q84 -29 151 -29q58 0 102 35t91 145l27 62l-379 977h268l248 -670l254 670h262l-451 -1121q-55 -135 -107 -200t-121.5 -94t-174.5 -29q-114 0 -225 30z" horiz-adv-x="1085" unicode="y"/><glyph d="M57 0v188l490 656h-477v205h786v-187l-491 -657h507v-205h-815z" horiz-adv-x="930" unicode="z"/><glyph d="M102 453v221h39q111 0 170.5 77.5t59.5 223.5v139q0 197 95 301.5t318 104.5h70v-207h-41q-117 0 -160 -48t-43 -165v-166q0 -137 -64.5 -231.5t-174.5 -141.5q108 -39 173.5 -137t65.5 -234v-165q0 -117 43 -165t160 -48h41v-207h-70q-221 0 -317 103.5t-96 301.5v142 q0 141 -59.5 221t-170.5 80h-39z" horiz-adv-x="915" unicode="{"/><glyph d="M281 -395v1915h239v-1915h-239z" horiz-adv-x="801" unicode="|"/><glyph d="M61 -188h41q117 0 160 48t43 165v165q0 136 65.5 234t174.5 137q-111 47 -175.5 141.5t-64.5 231.5v166q0 117 -43 165t-160 48h-41v207h70q223 0 318.5 -104.5t95.5 -301.5v-139q0 -146 59.5 -223.5t169.5 -77.5h39v-221h-39q-110 0 -169.5 -80t-59.5 -221v-142 q0 -198 -96.5 -301.5t-317.5 -103.5h-70v207z" horiz-adv-x="915" unicode="}"/><glyph d="M143 580v229q56 47 106 73t95 38t117 12q65 0 128.5 -24.5t122 -54.5t114 -54.5t106.5 -24.5q80 0 154.5 38t156.5 110v-222q-67 -53 -141 -92t-166 -39q-72 0 -137.5 24.5t-126 54.5t-114.5 54.5t-101 24.5q-92 0 -170 -45t-144 -102z" horiz-adv-x="1386" unicode="~"/><glyph d="M129 954q0 78 34 116t128 38q86 0 125 -34t39 -120q0 -82 -36 -117.5t-128 -35.5q-90 0 -126 35.5t-36 117.5zM152 -395l34 1059h215l31 -1059h-280z" horiz-adv-x="584" unicode="¡"/><glyph d="M92 518q0 265 126 413t378 148h18l48 209h180l-54 -237q145 -49 209 -152l-192 -137q-27 35 -66 61l-139 -628h12q60 0 110 17t95 75l195 -137q-60 -89 -158 -135t-248 -46l-55 2l-51 -231h-183l60 266q-152 57 -218.5 189.5t-66.5 322.5zM358 522q0 -196 74 -270 l133 600q-107 -9 -157 -86t-50 -244z" horiz-adv-x="1059" unicode="¢"/><glyph d="M100 0v213q65 13 103 58.5t55.5 110t17.5 183.5h-151v189h137l-11 44q-42 128 -42 228q0 187 135 287t367 100q176 0 296.5 -61.5t184.5 -167.5l-217 -131q-41 65 -111.5 104t-152.5 39q-119 0 -176.5 -54.5t-57.5 -144.5q0 -73 44 -202l11 -41h379v-189h-370 q0 -224 -117 -325h784v-240h-1108z" horiz-adv-x="1280" unicode="£"/><glyph d="M139 281l142 135q-72 115 -72 231q0 125 72 232l-142 137l123 125l141 -140q105 72 236 72q57 0 119.5 -17.5t115.5 -54.5l142 140l125 -125l-144 -137q72 -109 72 -232q0 -122 -72 -231l144 -135l-125 -125l-142 139q-103 -72 -235 -72q-131 0 -236 72l-141 -139z M385 649q0 -102 75 -177t179 -75q65 0 124.5 33.5t94.5 93t35 125.5q0 104 -76.5 177t-175.5 73q-102 0 -179 -72t-77 -178z" horiz-adv-x="1280" unicode="¤"/><glyph d="M45 1384h307l291 -538l295 538h297l-307 -538h211v-178h-314l-45 -80v-31h359v-176h-359v-381h-282v381h-361v176h361v27l-47 84h-314v178h213z" horiz-adv-x="1280" unicode="¥"/><glyph d="M281 283h239v-678h-239v678zM281 842v678h239v-678h-239z" horiz-adv-x="801" unicode="¦"/><glyph d="M92 545q0 188 211 307q-72 53 -110.5 110.5t-38.5 129.5q0 149 105.5 235t322.5 86q282 0 407 -160l-176 -131q-84 84 -227 84q-92 0 -133 -27.5t-41 -68.5q0 -31 45 -69.5t252 -166.5q128 -79 186.5 -133t90.5 -112.5t32 -126.5q0 -191 -211 -307q78 -60 113.5 -117.5 t35.5 -120.5q0 -162 -112.5 -243t-308.5 -81q-160 0 -257.5 43t-156.5 117l176 131q75 -84 233 -84q72 0 120 23.5t48 68.5t-74.5 97.5t-222.5 142.5q-153 92 -231 176t-78 197zM336 549q0 -41 67.5 -94.5t208.5 -139.5q68 41 115 89t47 90q0 24 -15.5 46.5t-48 49t-85 59.5 t-127.5 80q-80 -49 -121 -91t-41 -89z" horiz-adv-x="1110" unicode="§"/><glyph d="M152 1335q0 70 31.5 100.5t109.5 30.5t111.5 -29.5t33.5 -101.5q0 -73 -35.5 -102t-109.5 -29q-82 0 -111.5 34t-29.5 97zM596 1335q0 70 31.5 100.5t109.5 30.5t112 -29.5t34 -101.5q0 -73 -36 -102t-110 -29q-82 0 -111.5 34t-29.5 97z" unicode="¨"/><glyph d="M96 610q0 217 106 402.5t293.5 293t405.5 107.5q217 0 403 -106.5t293 -292.5t107 -404q0 -217 -105.5 -403t-292.5 -295t-405 -109q-219 0 -406 108.5t-293 295t-106 403.5zM258 610q0 -176 87.5 -328t235 -237.5t320.5 -85.5t320.5 85.5t235 237t87.5 328.5 q0 173 -86 323.5t-235.5 237t-321.5 86.5q-174 0 -323 -87t-234.5 -237.5t-85.5 -322.5zM504 612q0 217 100.5 331t317.5 114q133 0 209.5 -51.5t134.5 -143.5l-176 -100q-33 47 -67 78.5t-103 31.5q-109 0 -155 -59t-46 -201q0 -143 48 -200.5t155 -57.5q65 0 104 29t76 78 l180 -96q-71 -88 -118.5 -123.5t-106 -53.5t-131.5 -18q-422 0 -422 442z" horiz-adv-x="1802" unicode="©"/><glyph d="M92 1014q0 105 65 164t222 73l129 13v20q0 49 -27.5 67.5t-93.5 18.5q-65 0 -95 -21.5t-46 -50.5l-148 93q31 53 100.5 91t192.5 38q146 0 224.5 -50.5t78.5 -191.5v-461h-174v57q-95 -75 -196 -75q-117 0 -174.5 59.5t-57.5 155.5zM285 1018q0 -39 19.5 -54.5 t57.5 -15.5q64 0 146 66v110l-68 -6q-90 -8 -122.5 -31.5t-32.5 -68.5z" horiz-adv-x="834" unicode="ª"/><glyph d="M61 524l420 471h299l-420 -471l420 -471h-299zM635 524l420 471h299l-420 -471l420 -471h-299z" horiz-adv-x="1436" unicode="«"/><glyph d="M133 801v205h1161v-682h-207v477h-954z" horiz-adv-x="1427" unicode="¬"/><glyph d="M82 399v254h623v-254h-623z" horiz-adv-x="786" unicode="­"/><glyph d="M96 610q0 217 106 402.5t293.5 293t405.5 107.5q217 0 403 -106.5t293 -292.5t107 -404q0 -217 -105.5 -403t-292.5 -295t-405 -109q-219 0 -406 108.5t-293 295t-106 403.5zM258 610q0 -176 87.5 -328t235 -237.5t320.5 -85.5t320.5 85.5t235 237t87.5 328.5 q0 173 -86 323.5t-235.5 237t-321.5 86.5q-174 0 -323 -87t-234.5 -237.5t-85.5 -322.5zM588 201v850h305q178 0 260 -63t82 -197q0 -185 -145 -246l239 -344h-250l-211 307h-75v-307h-205zM793 682h96q54 0 81 7t39.5 25.5t12.5 65.5t-21.5 70.5t-103.5 23.5h-104v-192z" horiz-adv-x="1802" unicode="®"/><glyph d="M186 1255v185h672v-185h-672z" unicode="¯"/><glyph d="M123 1241q0 130 91.5 219.5t219.5 89.5q129 0 220 -90.5t91 -218.5q0 -83 -40.5 -154.5t-114 -115t-154.5 -43.5q-83 0 -157 42.5t-115 114t-41 156.5zM303 1241q0 -55 38 -94t95 -39q53 0 91 39t38 92q0 55 -38 93t-91 38q-59 0 -96 -39t-37 -90z" horiz-adv-x="868" unicode="°"/><glyph d="M133 0v205h1161v-205h-1161zM133 829v205h479v479h205v-479h477v-205h-477v-477h-205v477h-479z" horiz-adv-x="1427" unicode="±"/><glyph d="M76 1348q133 172 377 172q180 0 262 -71t82 -179q0 -60 -16 -107.5t-52.5 -92.5t-130.5 -115t-166 -111h397v-197h-737v182l108 78q228 160 283.5 217t55.5 113q0 78 -97 78q-101 0 -170 -88z" horiz-adv-x="938" unicode="²"/><glyph d="M59 801l199 102q64 -88 164 -88q72 0 98.5 32t26.5 66q0 91 -141 91h-115v176h102q92 0 124 22.5t32 63.5q0 28 -27.5 48.5t-85.5 20.5q-103 0 -168 -78l-182 107q61 74 143 115t224 41q172 0 255 -67t83 -159q0 -71 -38 -116t-124 -74q92 -23 134 -77t42 -126 q0 -137 -102.5 -203.5t-282.5 -66.5q-127 0 -221.5 49t-139.5 121z" horiz-adv-x="938" unicode="³"/><glyph d="M348 1208l189 361h315l-299 -361h-205z" unicode="´"/><glyph d="M131 -395v1444h258v-750q29 -39 83 -69.5t114 -30.5q131 0 227 120v730h256v-1049h-238l-4 111q-49 -70 -104 -106t-133 -36q-62 0 -109 17.5t-92 52.5v-434h-258z" horiz-adv-x="1202" unicode="µ"/><glyph d="M41 1047q0 206 134 324t378 118h727v-207h-188v-1677h-234v1677h-162v-1677h-233v1001q-204 22 -313 138t-109 303z" horiz-adv-x="1321" unicode="¶"/><glyph d="M129 743q0 82 36 121t126 39q92 0 128 -38t36 -122q0 -86 -39 -122.5t-125 -36.5q-94 0 -128 41t-34 118z" horiz-adv-x="584" unicode="·"/><glyph d="M199 -350l69 145q106 -45 193 -45q53 0 74.5 11.5t21.5 35.5q0 63 -180 72l88 170h170l-31 -62q62 -14 104 -61t42 -121q0 -190 -287 -190q-174 0 -264 45z" unicode="¸"/><glyph d="M170 1200v152q97 3 150 17t82 43t49 91h200v-856h-252v553h-229z" horiz-adv-x="938" unicode="¹"/><glyph d="M92 1157q0 172 80 267.5t250 95.5q168 0 248 -95.5t80 -267.5q0 -170 -80 -264t-248 -94q-172 0 -251 95t-79 263zM285 1157q0 -100 31.5 -148t105.5 -48q72 0 103.5 47.5t31.5 148.5q0 119 -39 160t-96 41q-60 0 -98.5 -41t-38.5 -160z" horiz-adv-x="842" unicode="º"/><glyph d="M82 53l420 471l-420 471h299l420 -471l-420 -471h-299zM655 53l420 471l-420 471h299l420 -471l-420 -471h-299z" horiz-adv-x="1436" unicode="»"/><glyph d="M45 1085v152q97 3 150 17t82 43t49 91h200v-856h-252v553h-229zM469 -51l747 1489h238l-750 -1489h-235zM1155 160v166l492 530h227v-524h115v-172h-115v-160h-232v160h-487zM1386 332h256v276z" horiz-adv-x="2095" unicode="¼"/><glyph d="M43 1085v152q97 3 150 17t82 43t49 91h200v-856h-252v553h-229zM406 -51l747 1489h238l-750 -1489h-235zM1213 701q133 172 377 172q180 0 262 -71t82 -179q0 -60 -16 -107.5t-52.5 -92.5t-130.5 -115t-166 -111h397v-197h-737v182l108 78q228 160 283.5 217t55.5 113 q0 78 -97 78q-101 0 -170 -88z" horiz-adv-x="2095" unicode="½"/><glyph d="M59 686l199 102q64 -88 164 -88q72 0 98.5 32t26.5 66q0 91 -141 91h-115v176h102q92 0 124 22.5t32 63.5q0 28 -27.5 48.5t-85.5 20.5q-103 0 -168 -78l-182 107q61 74 143 115t224 41q172 0 255 -67t83 -159q0 -71 -38 -116t-124 -74q92 -23 134 -77t42 -126 q0 -137 -102.5 -203.5t-282.5 -66.5q-127 0 -221.5 49t-139.5 121zM592 -51l747 1489h238l-750 -1489h-235zM1202 160v166l492 530h227v-524h115v-172h-115v-160h-232v160h-487zM1433 332h256v276z" horiz-adv-x="2095" unicode="¾"/><glyph d="M72 0q0 105 39 185t112.5 145.5t243.5 154.5v179h272v-302q-55 -28 -120.5 -61t-122 -75t-95.5 -94t-39 -120q0 -78 44.5 -122t152.5 -44q90 0 144.5 37t99.5 111l233 -139q-69 -123 -184 -186.5t-291 -63.5q-237 0 -363 103.5t-126 291.5zM436 954q0 86 39 120t125 34 q94 0 128 -38t34 -116q0 -82 -36 -117.5t-126 -35.5q-92 0 -128 35.5t-36 117.5z" horiz-adv-x="1071" unicode="¿"/><glyph d="M27 0l458 1384h367l459 -1384h-289l-92 281h-533l-90 -281h-280zM373 1905h315l188 -361h-204zM477 528h373l-186 572z" horiz-adv-x="1337" unicode="À"/><glyph d="M27 0l458 1384h367l459 -1384h-289l-92 281h-533l-90 -281h-280zM477 528h373l-186 572zM491 1544l189 361h315l-299 -361h-205z" horiz-adv-x="1337" unicode="Á"/><glyph d="M27 0l458 1384h367l459 -1384h-289l-92 281h-533l-90 -281h-280zM305 1544l235 361h244l236 -361h-211l-146 174l-149 -174h-209zM477 528h373l-186 572z" horiz-adv-x="1337" unicode="Â"/><glyph d="M27 0l458 1384h367l459 -1384h-289l-92 281h-533l-90 -281h-280zM254 1567q5 155 73 236t189 81q61 0 104 -22.5t77 -48t62.5 -48t61.5 -22.5q35 0 51.5 35t16.5 92h182q-10 -165 -75.5 -243.5t-188.5 -78.5q-66 0 -109 22.5t-75.5 50.5t-59.5 50.5t-60 22.5 q-67 0 -67 -127h-182zM477 528h373l-186 572z" horiz-adv-x="1337" unicode="Ã"/><glyph d="M27 0l458 1384h367l459 -1384h-289l-92 281h-533l-90 -281h-280zM293 1671q0 70 31.5 100.5t109.5 30.5t111.5 -29.5t33.5 -101.5q0 -73 -35.5 -102t-109.5 -29q-82 0 -111.5 34t-29.5 97zM477 528h373l-186 572zM737 1671q0 70 31.5 100.5t109.5 30.5t112 -29.5 t34 -101.5q0 -73 -36 -102t-110 -29q-82 0 -111.5 34t-29.5 97z" horiz-adv-x="1337" unicode="Ä"/><glyph d="M27 0l458 1384h367l459 -1384h-289l-92 281h-533l-90 -281h-280zM434 1716q0 107 57.5 166.5t171.5 59.5q119 0 175.5 -60.5t56.5 -165.5q0 -110 -59.5 -167.5t-172.5 -57.5q-117 0 -173 60.5t-56 164.5zM477 528h373l-186 572zM577 1716q0 -90 86 -90q88 0 88 90t-88 90 q-86 0 -86 -90z" horiz-adv-x="1337" unicode="Å"/><glyph d="M20 0l555 1384h1135v-249h-567v-301h469v-250h-469v-326h567v-258h-850v360h-409l-144 -360h-287zM547 608h313v527h-104z" horiz-adv-x="1810" unicode="Æ"/><glyph d="M96 692q0 369 163 545t470 176q203 0 331 -68.5t195 -179.5l-219 -170q-48 72 -88 104t-91 48t-122 16q-170 0 -259 -108.5t-89 -362.5q0 -237 83.5 -354t266.5 -117q123 0 191.5 47t124.5 125l223 -164q-66 -96 -165 -164.5t-263 -87.5q61 -14 103 -61t42 -121 q0 -190 -286 -190q-172 0 -265 45l70 145q106 -45 193 -45q53 0 74.5 11.5t21.5 35.5q0 63 -180 72l53 104q-578 37 -578 719z" horiz-adv-x="1333" unicode="Ç"/><glyph d="M150 0v1384h899v-249h-617v-295h520v-250h-520v-332h617v-258h-899zM267 1905h315l188 -361h-204z" horiz-adv-x="1149" unicode="È"/><glyph d="M150 0v1384h899v-249h-617v-295h520v-250h-520v-332h617v-258h-899zM426 1544l189 361h315l-299 -361h-205z" horiz-adv-x="1149" unicode="É"/><glyph d="M150 0v1384h899v-249h-617v-295h520v-250h-520v-332h617v-258h-899zM236 1544l235 361h244l236 -361h-211l-146 174l-149 -174h-209z" horiz-adv-x="1149" unicode="Ê"/><glyph d="M150 0v1384h899v-249h-617v-295h520v-250h-520v-332h617v-258h-899zM228 1671q0 70 31.5 100.5t109.5 30.5t111.5 -29.5t33.5 -101.5q0 -73 -35.5 -102t-109.5 -29q-82 0 -111.5 34t-29.5 97zM672 1671q0 70 31.5 100.5t109.5 30.5t112 -29.5t34 -101.5q0 -73 -36 -102 t-110 -29q-82 0 -111.5 34t-29.5 97z" horiz-adv-x="1149" unicode="Ë"/><glyph d="M80 1905h315l188 -361h-204zM102 0v217h193v950h-193v217h668v-217h-192v-950h192v-217h-668z" horiz-adv-x="872" unicode="Ì"/><glyph d="M102 0v217h193v950h-193v217h668v-217h-192v-950h192v-217h-668zM270 1544l189 361h315l-299 -361h-205z" horiz-adv-x="872" unicode="Í"/><glyph d="M78 1544l235 361h244l236 -361h-211l-146 174l-149 -174h-209zM102 0v217h193v950h-193v217h668v-217h-192v-950h192v-217h-668z" horiz-adv-x="872" unicode="Î"/><glyph d="M72 1671q0 70 31.5 100.5t109.5 30.5t111.5 -29.5t33.5 -101.5q0 -73 -35.5 -102t-109.5 -29q-82 0 -111.5 34t-29.5 97zM102 0v217h193v950h-193v217h668v-217h-192v-950h192v-217h-668zM516 1671q0 70 31.5 100.5t109.5 30.5t112 -29.5t34 -101.5q0 -73 -36 -102 t-110 -29q-82 0 -111.5 34t-29.5 97z" horiz-adv-x="872" unicode="Ï"/><glyph d="M2 580v225h148v579h434q263 0 416.5 -70.5t228 -222.5t74.5 -399q0 -250 -74.5 -402t-224.5 -221t-418 -69h-436v580h-148zM432 258h127q184 0 278 40t134.5 130t40.5 266t-39 264.5t-132 128t-282 39.5h-127v-321h322v-225h-322v-322z" horiz-adv-x="1399" unicode="Ð"/><glyph d="M150 0v1384h366l469 -933v933h277v-1384h-332l-504 989v-989h-276zM285 1526q5 155 73 236t189 81q61 0 104 -22.5t77 -48t62.5 -48t61.5 -22.5q35 0 51.5 35t16.5 92h182q-10 -165 -75.5 -243.5t-188.5 -78.5q-66 0 -109 22.5t-75.5 50.5t-59.5 50.5t-60 22.5 q-67 0 -67 -127h-182z" horiz-adv-x="1411" unicode="Ñ"/><glyph d="M86 692q0 344 144.5 532.5t451.5 188.5q309 0 452.5 -188.5t143.5 -532.5q0 -361 -152.5 -541t-443.5 -180q-307 0 -451.5 189.5t-144.5 531.5zM371 1905h315l188 -361h-204zM377 692q0 -246 70.5 -358.5t234.5 -112.5q166 0 235.5 112.5t69.5 358.5t-69.5 358.5 t-235.5 112.5t-235.5 -112.5t-69.5 -358.5z" horiz-adv-x="1364" unicode="Ò"/><glyph d="M86 692q0 344 144.5 532.5t451.5 188.5q309 0 452.5 -188.5t143.5 -532.5q0 -361 -152.5 -541t-443.5 -180q-307 0 -451.5 189.5t-144.5 531.5zM377 692q0 -246 70.5 -358.5t234.5 -112.5q166 0 235.5 112.5t69.5 358.5t-69.5 358.5t-235.5 112.5t-235.5 -112.5 t-69.5 -358.5zM530 1544l189 361h315l-299 -361h-205z" horiz-adv-x="1364" unicode="Ó"/><glyph d="M86 692q0 344 144.5 532.5t451.5 188.5q309 0 452.5 -188.5t143.5 -532.5q0 -361 -152.5 -541t-443.5 -180q-307 0 -451.5 189.5t-144.5 531.5zM334 1544l235 361h244l236 -361h-211l-146 174l-149 -174h-209zM377 692q0 -246 70.5 -358.5t234.5 -112.5 q166 0 235.5 112.5t69.5 358.5t-69.5 358.5t-235.5 112.5t-235.5 -112.5t-69.5 -358.5z" horiz-adv-x="1364" unicode="Ô"/><glyph d="M86 692q0 344 144.5 532.5t451.5 188.5q309 0 452.5 -188.5t143.5 -532.5q0 -361 -152.5 -541t-443.5 -180q-307 0 -451.5 189.5t-144.5 531.5zM283 1567q5 155 73 236t189 81q61 0 104 -22.5t77 -48t62.5 -48t61.5 -22.5q35 0 51.5 35t16.5 92h182 q-10 -165 -75.5 -243.5t-188.5 -78.5q-66 0 -109 22.5t-75.5 50.5t-59.5 50.5t-60 22.5q-67 0 -67 -127h-182zM377 692q0 -246 70.5 -358.5t234.5 -112.5q166 0 235.5 112.5t69.5 358.5t-69.5 358.5t-235.5 112.5t-235.5 -112.5t-69.5 -358.5z" horiz-adv-x="1364" unicode="Õ"/><glyph d="M86 692q0 344 144.5 532.5t451.5 188.5q309 0 452.5 -188.5t143.5 -532.5q0 -361 -152.5 -541t-443.5 -180q-307 0 -451.5 189.5t-144.5 531.5zM332 1671q0 70 31.5 100.5t109.5 30.5t111.5 -29.5t33.5 -101.5q0 -73 -35.5 -102t-109.5 -29q-82 0 -111.5 34t-29.5 97z M377 692q0 -246 70.5 -358.5t234.5 -112.5q166 0 235.5 112.5t69.5 358.5t-69.5 358.5t-235.5 112.5t-235.5 -112.5t-69.5 -358.5zM776 1671q0 70 31.5 100.5t109.5 30.5t112 -29.5t34 -101.5q0 -73 -36 -102t-110 -29q-82 0 -111.5 34t-29.5 97z" horiz-adv-x="1364" unicode="Ö"/><glyph d="M129 145l438 437l-438 436l145 145l439 -436l438 436l145 -145l-438 -436l438 -437l-145 -145l-438 438l-439 -438z" horiz-adv-x="1427" unicode="×"/><glyph d="M27 -115l194 285q-135 180 -135 522q0 344 144.5 532.5t451.5 188.5q201 0 334 -84l108 160h199l-184 -270q139 -182 139 -527q0 -361 -152.5 -541t-443.5 -180q-207 0 -338 86l-117 -172h-200zM377 692q0 -157 26 -256l461 674q-69 53 -182 53q-166 0 -235.5 -112.5 t-69.5 -358.5zM496 276q67 -55 186 -55q166 0 235.5 112.5t69.5 358.5q0 158 -29 262z" horiz-adv-x="1364" unicode="Ø"/><glyph d="M150 578v806h282v-786q0 -141 27 -222t86 -119t172 -38q161 0 225 85.5t64 289.5v790h282v-806q0 -325 -132 -467t-437 -142q-302 0 -435.5 140.5t-133.5 468.5zM392 1905h315l188 -361h-204z" horiz-adv-x="1438" unicode="Ù"/><glyph d="M150 578v806h282v-786q0 -141 27 -222t86 -119t172 -38q161 0 225 85.5t64 289.5v790h282v-806q0 -325 -132 -467t-437 -142q-302 0 -435.5 140.5t-133.5 468.5zM551 1544l189 361h315l-299 -361h-205z" horiz-adv-x="1438" unicode="Ú"/><glyph d="M150 578v806h282v-786q0 -141 27 -222t86 -119t172 -38q161 0 225 85.5t64 289.5v790h282v-806q0 -325 -132 -467t-437 -142q-302 0 -435.5 140.5t-133.5 468.5zM365 1544l235 361h244l236 -361h-211l-146 174l-149 -174h-209z" horiz-adv-x="1438" unicode="Û"/><glyph d="M150 578v806h282v-786q0 -141 27 -222t86 -119t172 -38q161 0 225 85.5t64 289.5v790h282v-806q0 -325 -132 -467t-437 -142q-302 0 -435.5 140.5t-133.5 468.5zM353 1671q0 70 31.5 100.5t109.5 30.5t111.5 -29.5t33.5 -101.5q0 -73 -35.5 -102t-109.5 -29 q-82 0 -111.5 34t-29.5 97zM797 1671q0 70 31.5 100.5t109.5 30.5t112 -29.5t34 -101.5q0 -73 -36 -102t-110 -29q-82 0 -111.5 34t-29.5 97z" horiz-adv-x="1438" unicode="Ü"/><glyph d="M18 1384h308l270 -579l276 579h297l-434 -856v-528h-284v522zM424 1544l189 361h315l-299 -361h-205z" horiz-adv-x="1188" unicode="Ý"/><glyph d="M150 0v1384h282v-200h238q235 0 363 -109.5t128 -355.5q0 -250 -117.5 -371t-381.5 -121h-230v-227h-282zM432 473h115q155 0 214 21.5t84 71.5t25 151q0 81 -30 129.5t-91 70t-176 21.5h-141v-465z" horiz-adv-x="1239" unicode="Þ"/><glyph d="M145 0v1020q0 252 117.5 376t355.5 124q203 0 313.5 -91t110.5 -255q0 -123 -53 -196t-129 -106q122 -27 193 -136.5t71 -262.5q0 -250 -93 -377t-312 -127q-47 0 -103.5 10.5t-89.5 20.5v227q86 -30 154 -30q88 0 131 63.5t43 220.5q0 108 -28.5 160.5t-92.5 74 t-190 21.5v224q93 0 143 18.5t72 57t22 118.5q0 70 -43 106.5t-123 36.5q-104 0 -157.5 -59t-53.5 -211v-1028h-258z" horiz-adv-x="1217" unicode="ß"/><glyph d="M84 295q0 112 45.5 185t135 114.5t257.5 58.5l221 21v47q0 88 -53 120.5t-155 32.5q-84 0 -144.5 -28t-89.5 -80l-201 129q53 89 166 136.5t273 47.5q245 0 353.5 -85.5t108.5 -280.5v-713h-237v109q-153 -140 -328 -140q-174 0 -263 91.5t-89 234.5zM207 1569h315 l188 -361h-204zM350 299q0 -72 40 -98.5t106 -26.5q47 0 114.5 29.5t132.5 83.5v200l-131 -12q-139 -12 -200.5 -53t-61.5 -123z" horiz-adv-x="1139" unicode="à"/><glyph d="M84 295q0 112 45.5 185t135 114.5t257.5 58.5l221 21v47q0 88 -53 120.5t-155 32.5q-84 0 -144.5 -28t-89.5 -80l-201 129q53 89 166 136.5t273 47.5q245 0 353.5 -85.5t108.5 -280.5v-713h-237v109q-153 -140 -328 -140q-174 0 -263 91.5t-89 234.5zM350 299 q0 -72 40 -98.5t106 -26.5q47 0 114.5 29.5t132.5 83.5v200l-131 -12q-139 -12 -200.5 -53t-61.5 -123zM366 1208l189 361h315l-299 -361h-205z" horiz-adv-x="1139" unicode="á"/><glyph d="M84 295q0 112 45.5 185t135 114.5t257.5 58.5l221 21v47q0 88 -53 120.5t-155 32.5q-84 0 -144.5 -28t-89.5 -80l-201 129q53 89 166 136.5t273 47.5q245 0 353.5 -85.5t108.5 -280.5v-713h-237v109q-153 -140 -328 -140q-174 0 -263 91.5t-89 234.5zM195 1208l235 361 h244l236 -361h-211l-146 174l-149 -174h-209zM350 299q0 -72 40 -98.5t106 -26.5q47 0 114.5 29.5t132.5 83.5v200l-131 -12q-139 -12 -200.5 -53t-61.5 -123z" horiz-adv-x="1139" unicode="â"/><glyph d="M84 295q0 112 45.5 185t135 114.5t257.5 58.5l221 21v47q0 88 -53 120.5t-155 32.5q-84 0 -144.5 -28t-89.5 -80l-201 129q53 89 166 136.5t273 47.5q245 0 353.5 -85.5t108.5 -280.5v-713h-237v109q-153 -140 -328 -140q-174 0 -263 91.5t-89 234.5zM150 1231 q5 155 73 236t189 81q61 0 104 -22.5t77 -48t62.5 -48t61.5 -22.5q35 0 51.5 35t16.5 92h182q-10 -165 -75.5 -243.5t-188.5 -78.5q-66 0 -109 22.5t-75.5 50.5t-59.5 50.5t-60 22.5q-67 0 -67 -127h-182zM350 299q0 -72 40 -98.5t106 -26.5q47 0 114.5 29.5t132.5 83.5v200 l-131 -12q-139 -12 -200.5 -53t-61.5 -123z" horiz-adv-x="1139" unicode="ã"/><glyph d="M84 295q0 112 45.5 185t135 114.5t257.5 58.5l221 21v47q0 88 -53 120.5t-155 32.5q-84 0 -144.5 -28t-89.5 -80l-201 129q53 89 166 136.5t273 47.5q245 0 353.5 -85.5t108.5 -280.5v-713h-237v109q-153 -140 -328 -140q-174 0 -263 91.5t-89 234.5zM168 1335 q0 70 31.5 100.5t109.5 30.5t111.5 -29.5t33.5 -101.5q0 -73 -35.5 -102t-109.5 -29q-82 0 -111.5 34t-29.5 97zM350 299q0 -72 40 -98.5t106 -26.5q47 0 114.5 29.5t132.5 83.5v200l-131 -12q-139 -12 -200.5 -53t-61.5 -123zM612 1335q0 70 31.5 100.5t109.5 30.5 t112 -29.5t34 -101.5q0 -73 -36 -102t-110 -29q-82 0 -111.5 34t-29.5 97z" horiz-adv-x="1139" unicode="ä"/><glyph d="M84 295q0 112 45.5 185t135 114.5t257.5 58.5l221 21v47q0 88 -53 120.5t-155 32.5q-84 0 -144.5 -28t-89.5 -80l-201 129q53 89 166 136.5t273 47.5q245 0 353.5 -85.5t108.5 -280.5v-713h-237v109q-153 -140 -328 -140q-174 0 -263 91.5t-89 234.5zM309 1378 q0 107 57.5 166.5t171.5 59.5q119 0 175.5 -60.5t56.5 -165.5q0 -110 -59.5 -167.5t-172.5 -57.5q-117 0 -173 60.5t-56 164.5zM350 299q0 -72 40 -98.5t106 -26.5q47 0 114.5 29.5t132.5 83.5v200l-131 -12q-139 -12 -200.5 -53t-61.5 -123zM452 1378q0 -90 86 -90 q88 0 88 90t-88 90q-86 0 -86 -90z" horiz-adv-x="1139" unicode="å"/><glyph d="M84 303q0 157 105.5 244t332.5 106l221 21v47q0 86 -52 119.5t-148 33.5q-109 0 -162 -32.5t-80 -75.5l-201 129q53 89 164.5 136.5t276.5 47.5q254 0 356 -123q121 123 350 123q220 0 335.5 -127.5t115.5 -367.5v-127h-697q7 -140 67 -201t196 -61q73 0 130.5 19 t100.5 73l193 -137q-64 -91 -162.5 -136t-257.5 -45q-299 0 -428 168q-97 -82 -196 -125t-212 -43q-170 0 -259 91.5t-89 242.5zM350 299q0 -125 139 -125q64 0 140 25.5t141 76.5q-13 40 -20 113t-7 98l-131 -12q-139 -12 -200.5 -53t-61.5 -123zM1008 635h434 q0 239 -211 239q-113 0 -160 -64.5t-63 -174.5z" horiz-adv-x="1786" unicode="æ"/><glyph d="M92 518q0 265 126 413t378 148q135 0 240.5 -44t160.5 -136l-192 -137q-35 47 -82 69.5t-121 22.5q-132 0 -188 -81t-56 -251t57.5 -248.5t196.5 -78.5q60 0 110 17t95 75l195 -137q-105 -153 -318 -177q56 -16 93.5 -62t37.5 -116q0 -190 -286 -190q-172 0 -265 45 l70 145q106 -45 193 -45q53 0 74.5 11.5t21.5 35.5q0 63 -180 72l55 106q-416 56 -416 543z" horiz-adv-x="1059" unicode="ç"/><glyph d="M92 516q0 563 504 563q224 0 341.5 -126.5t117.5 -368.5v-127h-697q7 -140 68 -201t192 -61q76 0 133.5 19t100.5 73l192 -137q-63 -91 -163.5 -136t-274.5 -45q-259 0 -386.5 136t-127.5 411zM248 1569h315l188 -361h-204zM365 635h434q0 239 -209 239q-69 0 -113 -23.5 t-70.5 -70t-41.5 -145.5z" horiz-adv-x="1143" unicode="è"/><glyph d="M92 516q0 563 504 563q224 0 341.5 -126.5t117.5 -368.5v-127h-697q7 -140 68 -201t192 -61q76 0 133.5 19t100.5 73l192 -137q-63 -91 -163.5 -136t-274.5 -45q-259 0 -386.5 136t-127.5 411zM365 635h434q0 239 -209 239q-69 0 -113 -23.5t-70.5 -70t-41.5 -145.5z M407 1208l189 361h315l-299 -361h-205z" horiz-adv-x="1143" unicode="é"/><glyph d="M92 516q0 563 504 563q224 0 341.5 -126.5t117.5 -368.5v-127h-697q7 -140 68 -201t192 -61q76 0 133.5 19t100.5 73l192 -137q-63 -91 -163.5 -136t-274.5 -45q-259 0 -386.5 136t-127.5 411zM232 1208l235 361h244l236 -361h-211l-146 174l-149 -174h-209zM365 635h434 q0 239 -209 239q-69 0 -113 -23.5t-70.5 -70t-41.5 -145.5z" horiz-adv-x="1143" unicode="ê"/><glyph d="M92 516q0 563 504 563q224 0 341.5 -126.5t117.5 -368.5v-127h-697q7 -140 68 -201t192 -61q76 0 133.5 19t100.5 73l192 -137q-63 -91 -163.5 -136t-274.5 -45q-259 0 -386.5 136t-127.5 411zM220 1335q0 70 31.5 100.5t109.5 30.5t111.5 -29.5t33.5 -101.5 q0 -73 -35.5 -102t-109.5 -29q-82 0 -111.5 34t-29.5 97zM365 635h434q0 239 -209 239q-69 0 -113 -23.5t-70.5 -70t-41.5 -145.5zM664 1335q0 70 31.5 100.5t109.5 30.5t112 -29.5t34 -101.5q0 -73 -36 -102t-110 -29q-82 0 -111.5 34t-29.5 97z" horiz-adv-x="1143" unicode="ë"/><glyph d="M-53 1569h315l188 -361h-204zM145 0v1049h258v-1049h-258z" horiz-adv-x="549" unicode="ì"/><glyph d="M127 1208l189 361h315l-299 -361h-205zM145 0v1049h258v-1049h-258z" horiz-adv-x="549" unicode="í"/><glyph d="M-80 1208l235 361h244l236 -361h-211l-146 174l-149 -174h-209zM145 0v1049h258v-1049h-258z" horiz-adv-x="549" unicode="î"/><glyph d="M-92 1335q0 70 31.5 100.5t109.5 30.5t111.5 -29.5t33.5 -101.5q0 -73 -35.5 -102t-109.5 -29q-82 0 -111.5 34t-29.5 97zM145 0v1049h258v-1049h-258zM352 1335q0 70 31.5 100.5t109.5 30.5t112 -29.5t34 -101.5q0 -73 -36 -102t-110 -29q-82 0 -111.5 34t-29.5 97z" horiz-adv-x="549" unicode="ï"/><glyph d="M92 520q0 156 55 278t158 186.5t238 64.5q41 0 94 -18.5t94 -49.5q-15 39 -65.5 122t-90.5 130l-225 -94l-67 149l180 76q-34 48 -184 156h274q49 -29 98 -78l187 78l69 -148l-131 -55q142 -147 232 -360t90 -435q0 -267 -126.5 -410t-375.5 -143q-247 0 -375.5 138 t-128.5 413zM358 520q0 -158 54.5 -241.5t183.5 -83.5t182 83.5t53 243.5q0 303 -237 303q-116 0 -176 -77.5t-60 -227.5z" horiz-adv-x="1190" unicode="ð"/><glyph d="M145 0v1049h258v-136q82 82 175 124t182 42q161 0 240 -88t79 -291v-700h-258v578q0 164 -29.5 219t-111.5 55q-115 0 -277 -152v-700h-258zM197 1231q5 155 73 236t189 81q61 0 104 -22.5t77 -48t62.5 -48t61.5 -22.5q35 0 51.5 35t16.5 92h182q-10 -165 -75.5 -243.5 t-188.5 -78.5q-66 0 -109 22.5t-75.5 50.5t-59.5 50.5t-60 22.5q-67 0 -67 -127h-182z" horiz-adv-x="1217" unicode="ñ"/><glyph d="M92 522q0 266 121 411.5t383 145.5q260 0 381 -145.5t121 -411.5q0 -262 -121 -407.5t-381 -145.5q-504 0 -504 553zM269 1569h315l188 -361h-204zM358 522q0 -168 55.5 -247.5t182.5 -79.5q125 0 180 78.5t55 248.5q0 173 -54 252.5t-181 79.5q-126 0 -182 -81.5 t-56 -250.5z" horiz-adv-x="1190" unicode="ò"/><glyph d="M92 522q0 266 121 411.5t383 145.5q260 0 381 -145.5t121 -411.5q0 -262 -121 -407.5t-381 -145.5q-504 0 -504 553zM358 522q0 -168 55.5 -247.5t182.5 -79.5q125 0 180 78.5t55 248.5q0 173 -54 252.5t-181 79.5q-126 0 -182 -81.5t-56 -250.5zM428 1208l189 361h315 l-299 -361h-205z" horiz-adv-x="1190" unicode="ó"/><glyph d="M92 522q0 266 121 411.5t383 145.5q260 0 381 -145.5t121 -411.5q0 -262 -121 -407.5t-381 -145.5q-504 0 -504 553zM242 1208l235 361h244l236 -361h-211l-146 174l-149 -174h-209zM358 522q0 -168 55.5 -247.5t182.5 -79.5q125 0 180 78.5t55 248.5q0 173 -54 252.5 t-181 79.5q-126 0 -182 -81.5t-56 -250.5z" horiz-adv-x="1190" unicode="ô"/><glyph d="M92 522q0 266 121 411.5t383 145.5q260 0 381 -145.5t121 -411.5q0 -262 -121 -407.5t-381 -145.5q-504 0 -504 553zM191 1231q5 155 73 236t189 81q61 0 104 -22.5t77 -48t62.5 -48t61.5 -22.5q35 0 51.5 35t16.5 92h182q-10 -165 -75.5 -243.5t-188.5 -78.5 q-66 0 -109 22.5t-75.5 50.5t-59.5 50.5t-60 22.5q-67 0 -67 -127h-182zM358 522q0 -168 55.5 -247.5t182.5 -79.5q125 0 180 78.5t55 248.5q0 173 -54 252.5t-181 79.5q-126 0 -182 -81.5t-56 -250.5z" horiz-adv-x="1190" unicode="õ"/><glyph d="M92 522q0 266 121 411.5t383 145.5q260 0 381 -145.5t121 -411.5q0 -262 -121 -407.5t-381 -145.5q-504 0 -504 553zM230 1335q0 70 31.5 100.5t109.5 30.5t111.5 -29.5t33.5 -101.5q0 -73 -35.5 -102t-109.5 -29q-82 0 -111.5 34t-29.5 97zM358 522q0 -168 55.5 -247.5 t182.5 -79.5q125 0 180 78.5t55 248.5q0 173 -54 252.5t-181 79.5q-126 0 -182 -81.5t-56 -250.5zM674 1335q0 70 31.5 100.5t109.5 30.5t112 -29.5t34 -101.5q0 -73 -36 -102t-110 -29q-82 0 -111.5 34t-29.5 97z" horiz-adv-x="1190" unicode="ö"/><glyph d="M133 479v205h1161v-205h-1161zM592 2v252h246v-252h-246zM592 911v252h246v-252h-246z" horiz-adv-x="1427" unicode="÷"/><glyph d="M92 522q0 266 121 411.5t383 145.5q141 0 246 -47l61 92h182l-118 -180q131 -145 131 -422q0 -262 -121 -407.5t-381 -145.5q-144 0 -248 45l-59 -90h-183l117 176q-131 141 -131 422zM358 522q0 -103 23 -184l328 493q-45 23 -113 23q-126 0 -182 -81.5t-56 -250.5z M483 215q47 -20 113 -20q125 0 180 78.5t55 248.5q0 108 -22 185z" horiz-adv-x="1190" unicode="ø"/><glyph d="M137 348v701h258v-578q0 -111 13 -170t42.5 -81.5t86.5 -22.5q115 0 276 151v701h258v-1049h-258v135q-68 -73 -166.5 -119.5t-189.5 -46.5q-178 0 -249 98.5t-71 280.5zM281 1569h315l188 -361h-204z" horiz-adv-x="1217" unicode="ù"/><glyph d="M137 348v701h258v-578q0 -111 13 -170t42.5 -81.5t86.5 -22.5q115 0 276 151v701h258v-1049h-258v135q-68 -73 -166.5 -119.5t-189.5 -46.5q-178 0 -249 98.5t-71 280.5zM440 1208l189 361h315l-299 -361h-205z" horiz-adv-x="1217" unicode="ú"/><glyph d="M137 348v701h258v-578q0 -111 13 -170t42.5 -81.5t86.5 -22.5q115 0 276 151v701h258v-1049h-258v135q-68 -73 -166.5 -119.5t-189.5 -46.5q-178 0 -249 98.5t-71 280.5zM244 1208l235 361h244l236 -361h-211l-146 174l-149 -174h-209z" horiz-adv-x="1217" unicode="û"/><glyph d="M137 348v701h258v-578q0 -111 13 -170t42.5 -81.5t86.5 -22.5q115 0 276 151v701h258v-1049h-258v135q-68 -73 -166.5 -119.5t-189.5 -46.5q-178 0 -249 98.5t-71 280.5zM232 1335q0 70 31.5 100.5t109.5 30.5t111.5 -29.5t33.5 -101.5q0 -73 -35.5 -102t-109.5 -29 q-82 0 -111.5 34t-29.5 97zM676 1335q0 70 31.5 100.5t109.5 30.5t112 -29.5t34 -101.5q0 -73 -36 -102t-110 -29q-82 0 -111.5 34t-29.5 97z" horiz-adv-x="1217" unicode="ü"/><glyph d="M-20 -365l55 224q84 -29 151 -29q58 0 102 35t91 145l27 62l-379 977h268l248 -670l254 670h262l-451 -1121q-55 -135 -107 -200t-121.5 -94t-174.5 -29q-114 0 -225 30zM368 1208l189 361h315l-299 -361h-205z" horiz-adv-x="1085" unicode="ý"/><glyph d="M145 -395v1884h258v-533q127 123 316 123q198 0 301.5 -141.5t103.5 -405.5q0 -169 -51 -298t-146 -197t-227 -68q-174 0 -297 109v-473h-258zM403 291q41 -37 101.5 -65.5t124.5 -28.5q106 0 167.5 90.5t61.5 240.5q0 153 -53 238.5t-158 85.5q-63 0 -129.5 -29.5 t-114.5 -72.5v-459z" horiz-adv-x="1217" unicode="þ"/><glyph d="M-20 -365l55 224q84 -29 151 -29q58 0 102 35t91 145l27 62l-379 977h268l248 -670l254 670h262l-451 -1121q-55 -135 -107 -200t-121.5 -94t-174.5 -29q-114 0 -225 30zM179 1335q0 70 31.5 100.5t109.5 30.5t111.5 -29.5t33.5 -101.5q0 -73 -35.5 -102t-109.5 -29 q-82 0 -111.5 34t-29.5 97zM623 1335q0 70 31.5 100.5t109.5 30.5t112 -29.5t34 -101.5q0 -73 -36 -102t-110 -29q-82 0 -111.5 34t-29.5 97z" horiz-adv-x="1085" unicode="ÿ"/><glyph d="M27 0l458 1384h367l459 -1384h-289l-92 281h-533l-90 -281h-280zM344 1591v185h672v-185h-672zM477 528h373l-186 572z" horiz-adv-x="1337" unicode="Ā"/><glyph d="M84 295q0 112 45.5 185t135 114.5t257.5 58.5l221 21v47q0 88 -53 120.5t-155 32.5q-84 0 -144.5 -28t-89.5 -80l-201 129q53 89 166 136.5t273 47.5q245 0 353.5 -85.5t108.5 -280.5v-713h-237v109q-153 -140 -328 -140q-174 0 -263 91.5t-89 234.5zM223 1255v185h672 v-185h-672zM350 299q0 -72 40 -98.5t106 -26.5q47 0 114.5 29.5t132.5 83.5v200l-131 -12q-139 -12 -200.5 -53t-61.5 -123z" horiz-adv-x="1139" unicode="ā"/><glyph d="M27 0l458 1384h367l459 -1384h-289l-92 281h-533l-90 -281h-280zM318 1845h188q15 -47 58 -75.5t116 -28.5q68 0 112 28.5t58 75.5h189q0 -88 -44.5 -161.5t-127 -117.5t-189.5 -44q-106 0 -188.5 43.5t-127 117.5t-44.5 162zM477 528h373l-186 572z" horiz-adv-x="1337" unicode="Ă"/><glyph d="M84 295q0 112 45.5 185t135 114.5t257.5 58.5l221 21v47q0 88 -53 120.5t-155 32.5q-84 0 -144.5 -28t-89.5 -80l-201 129q53 89 166 136.5t273 47.5q245 0 353.5 -85.5t108.5 -280.5v-713h-237v109q-153 -140 -328 -140q-174 0 -263 91.5t-89 234.5zM193 1509h188 q15 -47 58 -75.5t116 -28.5q68 0 112 28.5t58 75.5h189q0 -88 -44.5 -161.5t-127 -117.5t-189.5 -44q-106 0 -188.5 43.5t-127 117.5t-44.5 162zM350 299q0 -72 40 -98.5t106 -26.5q47 0 114.5 29.5t132.5 83.5v200l-131 -12q-139 -12 -200.5 -53t-61.5 -123z" horiz-adv-x="1139" unicode="ă"/><glyph d="M27 0l458 1384h367l459 -1384q-137 -29 -194.5 -63.5t-57.5 -79.5q0 -33 17.5 -47.5t41.5 -14.5q17 0 46.5 7.5t54.5 23.5l94 -158q-128 -63 -240 -63q-104 0 -161.5 47t-57.5 133q0 139 164 223l-88 273h-533l-90 -281h-280zM477 528h373l-186 572z" horiz-adv-x="1337" unicode="Ą"/><glyph d="M84 295q0 112 45.5 185t135 114.5t257.5 58.5l221 21v47q0 88 -53 120.5t-155 32.5q-84 0 -144.5 -28t-89.5 -80l-201 129q53 89 166 136.5t273 47.5q245 0 353.5 -85.5t108.5 -280.5v-713q-137 -29 -195 -63.5t-58 -79.5q0 -62 59 -62q16 0 46 7.5t54 23.5l94 -158 q-128 -63 -239 -63q-105 0 -162 47t-57 133q0 78 56 141.5t165 106.5v76q-153 -140 -328 -140q-174 0 -263 91.5t-89 234.5zM350 299q0 -72 40 -98.5t106 -26.5q47 0 114.5 29.5t132.5 83.5v200l-131 -12q-139 -12 -200.5 -53t-61.5 -123z" horiz-adv-x="1139" unicode="ą"/><glyph d="M96 692q0 369 163 545t470 176q203 0 331 -68.5t195 -179.5l-219 -170q-48 72 -88 104t-91 48t-122 16q-170 0 -259 -108.5t-89 -362.5q0 -237 83.5 -354t266.5 -117q123 0 191.5 47t124.5 125l223 -164q-89 -133 -218.5 -195.5t-318.5 -62.5q-643 0 -643 721zM553 1544 l189 361h315l-299 -361h-205z" horiz-adv-x="1333" unicode="Ć"/><glyph d="M92 518q0 265 126 413t378 148q135 0 240.5 -44t160.5 -136l-192 -137q-35 47 -82 69.5t-121 22.5q-132 0 -188 -81t-56 -251t57.5 -248.5t196.5 -78.5q60 0 110 17t95 75l195 -137q-60 -89 -158 -135t-248 -46q-254 0 -384 138.5t-130 410.5zM426 1208l189 361h315 l-299 -361h-205z" horiz-adv-x="1059" unicode="ć"/><glyph d="M96 692q0 369 163 545t470 176q203 0 331 -68.5t195 -179.5l-219 -170q-48 72 -88 104t-91 48t-122 16q-170 0 -259 -108.5t-89 -362.5q0 -237 83.5 -354t266.5 -117q123 0 191.5 47t124.5 125l223 -164q-89 -133 -218.5 -195.5t-318.5 -62.5q-643 0 -643 721zM385 1544 l235 361h244l236 -361h-211l-146 174l-149 -174h-209z" horiz-adv-x="1333" unicode="Ĉ"/><glyph d="M92 518q0 265 126 413t378 148q135 0 240.5 -44t160.5 -136l-192 -137q-35 47 -82 69.5t-121 22.5q-132 0 -188 -81t-56 -251t57.5 -248.5t196.5 -78.5q60 0 110 17t95 75l195 -137q-60 -89 -158 -135t-248 -46q-254 0 -384 138.5t-130 410.5zM223 1208l235 361h244 l236 -361h-211l-146 174l-149 -174h-209z" horiz-adv-x="1059" unicode="ĉ"/><glyph d="M96 692q0 369 163 545t470 176q203 0 331 -68.5t195 -179.5l-219 -170q-48 72 -88 104t-91 48t-122 16q-170 0 -259 -108.5t-89 -362.5q0 -237 83.5 -354t266.5 -117q123 0 191.5 47t124.5 125l223 -164q-89 -133 -218.5 -195.5t-318.5 -62.5q-643 0 -643 721zM541 1671 q0 70 31.5 100.5t109.5 30.5t112 -29.5t34 -101.5q0 -73 -36 -102t-110 -29q-82 0 -111.5 34t-29.5 97z" horiz-adv-x="1333" unicode="Ċ"/><glyph d="M92 518q0 265 126 413t378 148q135 0 240.5 -44t160.5 -136l-192 -137q-35 47 -82 69.5t-121 22.5q-132 0 -188 -81t-56 -251t57.5 -248.5t196.5 -78.5q60 0 110 17t95 75l195 -137q-60 -89 -158 -135t-248 -46q-254 0 -384 138.5t-130 410.5zM414 1335q0 70 31.5 100.5 t109.5 30.5t112 -29.5t34 -101.5q0 -73 -36 -102t-110 -29q-82 0 -111.5 34t-29.5 97z" horiz-adv-x="1059" unicode="ċ"/><glyph d="M96 692q0 369 163 545t470 176q203 0 331 -68.5t195 -179.5l-219 -170q-48 72 -88 104t-91 48t-122 16q-170 0 -259 -108.5t-89 -362.5q0 -237 83.5 -354t266.5 -117q123 0 191.5 47t124.5 125l223 -164q-89 -133 -218.5 -195.5t-318.5 -62.5q-643 0 -643 721zM367 1905 h211l145 -174l150 174h209l-236 -361h-244z" horiz-adv-x="1333" unicode="Č"/><glyph d="M92 518q0 265 126 413t378 148q135 0 240.5 -44t160.5 -136l-192 -137q-35 47 -82 69.5t-121 22.5q-132 0 -188 -81t-56 -251t57.5 -248.5t196.5 -78.5q60 0 110 17t95 75l195 -137q-60 -89 -158 -135t-248 -46q-254 0 -384 138.5t-130 410.5zM199 1569h211l145 -174 l150 174h209l-236 -361h-244z" horiz-adv-x="1059" unicode="č"/><glyph d="M137 0v1384h418q245 0 389.5 -71t213.5 -221.5t69 -399.5q0 -250 -69 -402t-208 -221t-391 -69h-422zM238 1905h211l145 -174l150 174h209l-236 -361h-244zM420 258h108q167 0 251.5 38.5t120.5 128.5t36 269q0 181 -35.5 268.5t-120.5 125.5t-252 38h-108v-868z" horiz-adv-x="1313" unicode="Ď"/><glyph d="M92 516q0 267 115.5 415t324.5 148q74 0 152 -30.5t129 -77.5v518h258v-1489h-237v102q-72 -61 -152 -97t-182 -36q-198 0 -303 143t-105 404zM358 520q0 -151 51.5 -237t159.5 -86q64 0 130.5 29.5t113.5 72.5v459q-41 37 -101.5 65.5t-123.5 28.5q-104 0 -167 -89.5 t-63 -242.5zM1147 1128l55 361h271l-166 -361h-160z" horiz-adv-x="1346" unicode="ď"/><glyph d="M2 580v225h148v579h434q263 0 416.5 -70.5t228 -222.5t74.5 -399q0 -250 -74.5 -402t-224.5 -221t-418 -69h-436v580h-148zM432 258h127q184 0 278 40t134.5 130t40.5 266t-39 264.5t-132 128t-282 39.5h-127v-321h322v-225h-322v-322z" horiz-adv-x="1399" unicode="Đ"/><glyph d="M92 516q0 267 115.5 415t324.5 148q74 0 152 -30.5t129 -77.5v227h-278v184h278v107h258v-107h135v-184h-135v-1198h-237v102q-72 -61 -152 -97t-182 -36q-198 0 -303 143t-105 404zM358 520q0 -151 51.5 -237t159.5 -86q64 0 130.5 29.5t113.5 72.5v459 q-41 37 -101.5 65.5t-123.5 28.5q-104 0 -167 -89.5t-63 -242.5z" horiz-adv-x="1217" unicode="đ"/><glyph d="M150 0v1384h899v-249h-617v-295h520v-250h-520v-332h617v-258h-899zM252 1591v185h672v-185h-672z" horiz-adv-x="1149" unicode="Ē"/><glyph d="M92 516q0 563 504 563q224 0 341.5 -126.5t117.5 -368.5v-127h-697q7 -140 68 -201t192 -61q76 0 133.5 19t100.5 73l192 -137q-63 -91 -163.5 -136t-274.5 -45q-259 0 -386.5 136t-127.5 411zM254 1255v185h672v-185h-672zM365 635h434q0 239 -209 239q-69 0 -113 -23.5 t-70.5 -70t-41.5 -145.5z" horiz-adv-x="1143" unicode="ē"/><glyph d="M150 0v1384h899v-249h-617v-295h520v-250h-520v-332h617v-258h-899zM266 1845h188q15 -47 58 -75.5t116 -28.5q68 0 112 28.5t58 75.5h189q0 -88 -44.5 -161.5t-127 -117.5t-189.5 -44q-106 0 -188.5 43.5t-127 117.5t-44.5 162z" horiz-adv-x="1149" unicode="Ĕ"/><glyph d="M92 516q0 563 504 563q224 0 341.5 -126.5t117.5 -368.5v-127h-697q7 -140 68 -201t192 -61q76 0 133.5 19t100.5 73l192 -137q-63 -91 -163.5 -136t-274.5 -45q-259 0 -386.5 136t-127.5 411zM225 1509h188q15 -47 58 -75.5t116 -28.5q68 0 112 28.5t58 75.5h189 q0 -88 -44.5 -161.5t-127 -117.5t-189.5 -44q-106 0 -188.5 43.5t-127 117.5t-44.5 162zM365 635h434q0 239 -209 239q-69 0 -113 -23.5t-70.5 -70t-41.5 -145.5z" horiz-adv-x="1143" unicode="ĕ"/><glyph d="M150 0v1384h899v-249h-617v-295h520v-250h-520v-332h617v-258h-899zM455 1671q0 70 31.5 100.5t109.5 30.5t112 -29.5t34 -101.5q0 -73 -36 -102t-110 -29q-82 0 -111.5 34t-29.5 97z" horiz-adv-x="1149" unicode="Ė"/><glyph d="M92 516q0 563 504 563q224 0 341.5 -126.5t117.5 -368.5v-127h-697q7 -140 68 -201t192 -61q76 0 133.5 19t100.5 73l192 -137q-63 -91 -163.5 -136t-274.5 -45q-259 0 -386.5 136t-127.5 411zM365 635h434q0 239 -209 239q-69 0 -113 -23.5t-70.5 -70t-41.5 -145.5z M447 1335q0 70 31.5 100.5t109.5 30.5t112 -29.5t34 -101.5q0 -73 -36 -102t-110 -29q-82 0 -111.5 34t-29.5 97z" horiz-adv-x="1143" unicode="ė"/><glyph d="M150 0v1384h899v-249h-617v-295h520v-250h-520v-332h617v-258q-138 -29 -196 -63.5t-58 -79.5q0 -62 59 -62q16 0 46 7.5t54 23.5l95 -158q-131 -63 -240 -63q-104 0 -161.5 47t-57.5 133q0 132 149 215h-589z" horiz-adv-x="1149" unicode="Ę"/><glyph d="M92 516q0 563 504 563q224 0 341.5 -126.5t117.5 -368.5v-127h-697q7 -140 68 -201t192 -61q76 0 133.5 19t100.5 73l192 -137q-34 -50 -79 -87q-79 -61 -121.5 -109.5t-42.5 -96.5q0 -33 17.5 -47.5t41.5 -14.5q17 0 46.5 7.5t54.5 23.5l94 -158q-131 -63 -240 -63 q-104 0 -161.5 47t-57.5 133q0 93 68 184h-41q-268 0 -399.5 134.5t-131.5 412.5zM365 635h434q0 239 -209 239q-69 0 -113 -23.5t-70.5 -70t-41.5 -145.5z" horiz-adv-x="1143" unicode="ę"/><glyph d="M150 0v1384h899v-249h-617v-295h520v-250h-520v-332h617v-258h-899zM240 1905h211l145 -174l150 174h209l-236 -361h-244z" horiz-adv-x="1149" unicode="Ě"/><glyph d="M92 516q0 563 504 563q224 0 341.5 -126.5t117.5 -368.5v-127h-697q7 -140 68 -201t192 -61q76 0 133.5 19t100.5 73l192 -137q-63 -91 -163.5 -136t-274.5 -45q-259 0 -386.5 136t-127.5 411zM234 1569h211l145 -174l150 174h209l-236 -361h-244zM365 635h434 q0 239 -209 239q-69 0 -113 -23.5t-70.5 -70t-41.5 -145.5z" horiz-adv-x="1143" unicode="ě"/><glyph d="M96 680q0 733 645 733q188 0 328 -63t213 -185l-217 -170q-53 86 -129 127t-191 41q-189 0 -273.5 -121.5t-84.5 -361.5q0 -238 83.5 -348.5t268.5 -110.5q140 0 258 58v215h-270v249h553v-612q-96 -72 -238.5 -116t-293.5 -44q-324 0 -488 169t-164 540zM385 1544 l235 361h244l236 -361h-211l-146 174l-149 -174h-209z" horiz-adv-x="1415" unicode="Ĝ"/><glyph d="M92 535q0 162 51.5 285.5t151 191t240.5 67.5q83 0 166 -36.5t139 -92.5l34 99h197v-1029q0 -210 -129 -312.5t-414 -102.5q-235 0 -411 90l76 211q163 -76 335 -76q160 0 222.5 46t62.5 155v86q-128 -117 -309 -117q-192 0 -302 138t-110 397zM242 1208l235 361h244 l236 -361h-211l-146 174l-149 -174h-209zM358 539q0 -160 57.5 -236t149.5 -76q128 0 248 103v428q-106 94 -231 94q-94 0 -159 -86t-65 -227z" horiz-adv-x="1217" unicode="ĝ"/><glyph d="M96 680q0 733 645 733q188 0 328 -63t213 -185l-217 -170q-53 86 -129 127t-191 41q-189 0 -273.5 -121.5t-84.5 -361.5q0 -238 83.5 -348.5t268.5 -110.5q140 0 258 58v215h-270v249h553v-612q-96 -72 -238.5 -116t-293.5 -44q-324 0 -488 169t-164 540zM373 1845h188 q15 -47 58 -75.5t116 -28.5q68 0 112 28.5t58 75.5h189q0 -88 -44.5 -161.5t-127 -117.5t-189.5 -44q-106 0 -188.5 43.5t-127 117.5t-44.5 162z" horiz-adv-x="1415" unicode="Ğ"/><glyph d="M92 535q0 162 51.5 285.5t151 191t240.5 67.5q83 0 166 -36.5t139 -92.5l34 99h197v-1029q0 -210 -129 -312.5t-414 -102.5q-235 0 -411 90l76 211q163 -76 335 -76q160 0 222.5 46t62.5 155v86q-128 -117 -309 -117q-192 0 -302 138t-110 397zM232 1509h188 q15 -47 58 -75.5t116 -28.5q68 0 112 28.5t58 75.5h189q0 -88 -44.5 -161.5t-127 -117.5t-189.5 -44q-106 0 -188.5 43.5t-127 117.5t-44.5 162zM358 539q0 -160 57.5 -236t149.5 -76q128 0 248 103v428q-106 94 -231 94q-94 0 -159 -86t-65 -227z" horiz-adv-x="1217" unicode="ğ"/><glyph d="M96 680q0 733 645 733q188 0 328 -63t213 -185l-217 -170q-53 86 -129 127t-191 41q-189 0 -273.5 -121.5t-84.5 -361.5q0 -238 83.5 -348.5t268.5 -110.5q140 0 258 58v215h-270v249h553v-612q-96 -72 -238.5 -116t-293.5 -44q-324 0 -488 169t-164 540zM586 1671 q0 70 31.5 100.5t109.5 30.5t112 -29.5t34 -101.5q0 -73 -36 -102t-110 -29q-82 0 -111.5 34t-29.5 97z" horiz-adv-x="1415" unicode="Ġ"/><glyph d="M92 535q0 162 51.5 285.5t151 191t240.5 67.5q83 0 166 -36.5t139 -92.5l34 99h197v-1029q0 -210 -129 -312.5t-414 -102.5q-235 0 -411 90l76 211q163 -76 335 -76q160 0 222.5 46t62.5 155v86q-128 -117 -309 -117q-192 0 -302 138t-110 397zM358 539q0 -160 57.5 -236 t149.5 -76q128 0 248 103v428q-106 94 -231 94q-94 0 -159 -86t-65 -227zM434 1335q0 70 31.5 100.5t109.5 30.5t112 -29.5t34 -101.5q0 -73 -36 -102t-110 -29q-82 0 -111.5 34t-29.5 97z" horiz-adv-x="1217" unicode="ġ"/><glyph d="M96 680q0 733 645 733q188 0 328 -63t213 -185l-217 -170q-53 86 -129 127t-191 41q-189 0 -273.5 -121.5t-84.5 -361.5q0 -238 83.5 -348.5t268.5 -110.5q140 0 258 58v215h-270v249h553v-612q-96 -72 -238.5 -116t-293.5 -44q-324 0 -488 169t-164 540zM604 -233 q0 73 35 116t131 43q160 0 160 -180q0 -170 -119 -309h-166q47 55 63.5 95t20.5 79q-66 4 -95.5 42t-29.5 114z" horiz-adv-x="1415" unicode="Ģ"/><glyph d="M92 535q0 162 51.5 285.5t151 191t240.5 67.5q83 0 166 -36.5t139 -92.5l34 99h197v-1029q0 -210 -129 -312.5t-414 -102.5q-235 0 -411 90l76 211q163 -76 335 -76q160 0 222.5 46t62.5 155v86q-128 -117 -309 -117q-192 0 -302 138t-110 397zM358 539q0 -160 57.5 -236 t149.5 -76q128 0 248 103v428q-106 94 -231 94q-94 0 -159 -86t-65 -227zM416 1346q0 170 119 309h166q-47 -56 -63.5 -95.5t-20.5 -78.5q65 -4 95 -42t30 -114q0 -74 -35 -117t-131 -43q-160 0 -160 181z" horiz-adv-x="1217" unicode="ģ"/><glyph d="M150 0v1384h282v-538h545v538h283v-1384h-283v588h-545v-588h-282zM354 1544l235 361h244l236 -361h-211l-146 174l-149 -174h-209z" horiz-adv-x="1409" unicode="Ĥ"/><glyph d="M145 0v1489h258v-576q82 82 175 124t182 42q176 0 247.5 -99t71.5 -280v-700h-258v578q0 166 -31 220t-110 54q-115 0 -277 -152v-700h-258zM277 1544l235 361h244l236 -361h-211l-146 174l-149 -174h-209z" horiz-adv-x="1217" unicode="ĥ"/><glyph d="M10 991v205h140v188h282v-188h545v188h283v-188h139v-205h-139v-991h-283v588h-545v-588h-282v991h-140zM432 846h545v145h-545v-145z" horiz-adv-x="1409" unicode="Ħ"/><glyph d="M2 1198v184h143v107h258v-107h271v-184h-271v-285q82 82 175 124t182 42q176 0 247.5 -99t71.5 -280v-700h-258v578q0 166 -31 220t-110 54q-115 0 -277 -152v-700h-258v1198h-143z" horiz-adv-x="1217" unicode="ħ"/><glyph d="M35 1567q5 155 73 236t189 81q61 0 104 -22.5t77 -48t62.5 -48t61.5 -22.5q35 0 51.5 35t16.5 92h182q-10 -165 -75.5 -243.5t-188.5 -78.5q-66 0 -109 22.5t-75.5 50.5t-59.5 50.5t-60 22.5q-67 0 -67 -127h-182zM102 0v217h193v950h-193v217h668v-217h-192v-950h192 v-217h-668z" horiz-adv-x="872" unicode="Ĩ"/><glyph d="M-137 1231q5 155 73 236t189 81q61 0 104 -22.5t77 -48t62.5 -48t61.5 -22.5q35 0 51.5 35t16.5 92h182q-10 -165 -75.5 -243.5t-188.5 -78.5q-66 0 -109 22.5t-75.5 50.5t-59.5 50.5t-60 22.5q-67 0 -67 -127h-182zM145 0v1049h258v-1049h-258z" horiz-adv-x="549" unicode="ĩ"/><glyph d="M102 0v217h193v950h-193v217h668v-217h-192v-950h192v-217h-668zM102 1591v185h672v-185h-672z" horiz-adv-x="872" unicode="Ī"/><glyph d="M-60 1255v185h672v-185h-672zM145 0v1049h258v-1049h-258z" horiz-adv-x="549" unicode="ī"/><glyph d="M80 1845h188q15 -47 58 -75.5t116 -28.5q68 0 112 28.5t58 75.5h189q0 -88 -44.5 -161.5t-127 -117.5t-189.5 -44q-106 0 -188.5 43.5t-127 117.5t-44.5 162zM102 0v217h193v950h-193v217h668v-217h-192v-950h192v-217h-668z" horiz-adv-x="872" unicode="Ĭ"/><glyph d="M-90 1509h188q15 -47 58 -75.5t116 -28.5q68 0 112 28.5t58 75.5h189q0 -88 -44.5 -161.5t-127 -117.5t-189.5 -44q-106 0 -188.5 43.5t-127 117.5t-44.5 162zM145 0v1049h258v-1049h-258z" horiz-adv-x="549" unicode="ĭ"/><glyph d="M102 0v217h193v950h-193v217h668v-217h-192v-950h192v-217q-137 -29 -195.5 -63.5t-58.5 -79.5q0 -33 17.5 -47.5t41.5 -14.5q17 0 46.5 7.5t54.5 23.5l94 -158q-128 -63 -240 -63q-104 0 -161.5 47t-57.5 133q0 133 150 215h-359z" horiz-adv-x="872" unicode="Į"/><glyph d="M-14 -215q0 133 159 219v1045h258v-1049q-106 -23 -159.5 -60.5t-53.5 -82.5q0 -33 17.5 -47.5t42.5 -14.5q16 0 46 7.5t54 23.5l94 -158q-128 -63 -239 -63q-105 0 -162 47t-57 133zM131 1335q0 70 32 100.5t109 30.5q78 0 112 -29.5t34 -101.5q0 -73 -36 -102t-110 -29 q-82 0 -111.5 34t-29.5 97z" horiz-adv-x="549" unicode="į"/><glyph d="M102 0v217h193v950h-193v217h668v-217h-192v-950h192v-217h-668zM289 1671q0 70 31.5 100.5t109.5 30.5t112 -29.5t34 -101.5q0 -73 -36 -102t-110 -29q-82 0 -111.5 34t-29.5 97z" horiz-adv-x="872" unicode="İ"/><glyph d="M145 0v1049h258v-1049h-258z" horiz-adv-x="549" unicode="ı"/><glyph d="M102 0v217h193v950h-193v217h668v-217h-192v-950h192v-217h-668zM831 23l86 251q32 -17 102.5 -36t110.5 -19q74 0 107 20t47 70t14 144v931h283v-1007q0 -219 -110.5 -313.5t-346.5 -94.5q-51 0 -142 15t-151 39z" horiz-adv-x="1735" unicode="Ĳ"/><glyph d="M131 1335q0 70 32 100.5t109 30.5q78 0 112 -29.5t34 -101.5q0 -73 -36 -102t-110 -29q-82 0 -111.5 34t-29.5 97zM145 0v1049h258v-1049h-258zM387 -365l56 224q73 -29 151 -29t96.5 48t18.5 159v1012h258v-1094q0 -188 -84 -269t-275 -81q-43 0 -113 9.5t-108 20.5z M694 1335q0 70 32 100.5t110 30.5t111.5 -29.5t33.5 -101.5q0 -73 -36 -102t-109 -29q-82 0 -112 34t-30 97z" horiz-adv-x="1112" unicode="ĳ"/><glyph d="M20 23l86 251q32 -17 102.5 -36t110.5 -19q74 0 107 20t47 70t14 144v931h283v-1007q0 -219 -110.5 -313.5t-346.5 -94.5q-51 0 -142 15t-151 39zM277 1544l235 361h244l236 -361h-211l-146 174l-149 -174h-209z" horiz-adv-x="924" unicode="Ĵ"/><glyph d="M-162 -365l56 224q73 -29 151 -29t96.5 48t18.5 159v1012h258v-1094q0 -188 -84 -269t-275 -81q-43 0 -113 9.5t-108 20.5zM-70 1208l235 361h244l236 -361h-211l-146 174l-149 -174h-209z" horiz-adv-x="563" unicode="ĵ"/><glyph d="M150 0v1384h282v-540l453 540h329l-516 -596l553 -788h-352l-383 578l-84 -97v-481h-282zM461 -233q0 73 35 116t131 43q160 0 160 -180q0 -170 -119 -309h-166q47 55 63.5 95t20.5 79q-66 4 -95.5 42t-29.5 114z" horiz-adv-x="1280" unicode="Ķ"/><glyph d="M145 0v1489h258v-852l353 412h299l-396 -441l418 -608h-293l-280 434l-101 -108v-326h-258zM375 -233q0 73 35 116t131 43q160 0 160 -180q0 -170 -119 -309h-166q47 55 63.5 95t20.5 79q-66 4 -95.5 42t-29.5 114z" horiz-adv-x="1100" unicode="ķ"/><glyph d="M145 0v1049h258v-412l304 356q73 86 165 86q58 0 175 -30l-62 -195q-45 16 -65 16q-17 0 -27 -7t-23 -19l-211 -236l418 -608h-293l-280 434l-101 -108v-326h-258z" horiz-adv-x="1100" unicode="ĸ"/><glyph d="M150 0v1384h282v-1126h582v-258h-864zM352 1544l189 361h315l-299 -361h-205z" horiz-adv-x="1038" unicode="Ĺ"/><glyph d="M104 1546l189 361h315l-299 -361h-205zM145 0v1489h258v-1489h-258z" horiz-adv-x="549" unicode="ĺ"/><glyph d="M150 0v1384h282v-1126h582v-258h-864zM414 -233q0 73 35 116t131 43q160 0 160 -180q0 -170 -119 -309h-166q47 55 63.5 95t20.5 79q-66 4 -95.5 42t-29.5 114z" horiz-adv-x="1038" unicode="Ļ"/><glyph d="M117 -233q0 73 35 116t131 43q160 0 160 -180q0 -170 -119 -309h-166q47 55 63.5 95t20.5 79q-66 4 -95.5 42t-29.5 114zM145 0v1489h258v-1489h-258z" horiz-adv-x="549" unicode="ļ"/><glyph d="M150 0v1384h282v-1126h582v-258h-864zM514 1026l55 361h271l-166 -361h-160z" horiz-adv-x="1038" unicode="Ľ"/><glyph d="M145 0v1489h258v-1489h-258zM475 1128l55 361h271l-166 -361h-160z" horiz-adv-x="674" unicode="ľ"/><glyph d="M150 0v1384h282v-1126h582v-258h-864zM664 762q0 70 31.5 100.5t109.5 30.5t112 -29.5t34 -101.5q0 -73 -36 -102t-110 -29q-82 0 -111.5 34t-29.5 97z" horiz-adv-x="1038" unicode="Ŀ"/><glyph d="M145 0v1489h258v-1489h-258zM547 762q0 70 31.5 100.5t109.5 30.5t112 -29.5t34 -101.5q0 -73 -36 -102t-110 -29q-82 0 -111.5 34t-29.5 97z" horiz-adv-x="831" unicode="ŀ"/><glyph d="M10 391v268l140 109v616h282v-417l225 176v-269l-225 -176v-440h582v-258h-864v500z" horiz-adv-x="1038" unicode="Ł"/><glyph d="M10 360v232l135 137v760h258v-520l136 137v-232l-136 -137v-737h-258v498z" horiz-adv-x="549" unicode="ł"/><glyph d="M150 0v1384h366l469 -933v933h277v-1384h-332l-504 989v-989h-276zM522 1544l189 361h315l-299 -361h-205z" horiz-adv-x="1411" unicode="Ń"/><glyph d="M145 0v1049h258v-136q82 82 175 124t182 42q161 0 240 -88t79 -291v-700h-258v578q0 164 -29.5 219t-111.5 55q-115 0 -277 -152v-700h-258zM454 1208l189 361h315l-299 -361h-205z" horiz-adv-x="1217" unicode="ń"/><glyph d="M150 0v1384h366l469 -933v933h277v-1384h-332l-504 989v-989h-276zM563 -233q0 73 35 116t131 43q160 0 160 -180q0 -170 -119 -309h-166q47 55 63.5 95t20.5 79q-66 4 -95.5 42t-29.5 114z" horiz-adv-x="1411" unicode="Ņ"/><glyph d="M145 0v1049h258v-136q82 82 175 124t182 42q161 0 240 -88t79 -291v-700h-258v578q0 164 -29.5 219t-111.5 55q-115 0 -277 -152v-700h-258zM432 -233q0 73 35 116t131 43q160 0 160 -180q0 -170 -119 -309h-166q47 55 63.5 95t20.5 79q-66 4 -95.5 42t-29.5 114z" horiz-adv-x="1217" unicode="ņ"/><glyph d="M150 0v1384h366l469 -933v933h277v-1384h-332l-504 989v-989h-276zM346 1905h211l145 -174l150 174h209l-236 -361h-244z" horiz-adv-x="1411" unicode="Ň"/><glyph d="M145 0v1049h258v-136q82 82 175 124t182 42q161 0 240 -88t79 -291v-700h-258v578q0 164 -29.5 219t-111.5 55q-115 0 -277 -152v-700h-258zM268 1569h211l145 -174l150 174h209l-236 -361h-244z" horiz-adv-x="1217" unicode="ň"/><glyph d="M-20 815q61 86 91 165t34 118q-66 4 -95.5 42t-29.5 113q0 74 35 117t131 43q160 0 160 -180q0 -123 -42 -234.5t-91 -183.5h-193zM381 0v1049h258v-136q82 82 175 124t182 42q161 0 240 -88t79 -291v-700h-258v578q0 164 -29.5 219t-111.5 55q-115 0 -277 -152v-700 h-258z" horiz-adv-x="1452" unicode="ŉ"/><glyph d="M150 0v1384h366l469 -864v864h277v-1429q0 -188 -84 -269t-275 -81q-45 0 -115.5 9.5t-105.5 20.5l55 224q74 -29 152 -29q72 0 92 40t23 130l-578 989v-989h-276z" horiz-adv-x="1411" unicode="Ŋ"/><glyph d="M145 0v1049h258v-136q82 82 175 124t182 42q161 0 240 -88t79 -291v-745q0 -188 -84 -269t-274 -81q-44 0 -114 9.5t-107 20.5l55 224q74 -29 152 -29q77 0 95.5 48t18.5 159v541q0 164 -29.5 219t-111.5 55q-115 0 -277 -152v-700h-258z" horiz-adv-x="1217" unicode="ŋ"/><glyph d="M86 692q0 344 144.5 532.5t451.5 188.5q309 0 452.5 -188.5t143.5 -532.5q0 -361 -152.5 -541t-443.5 -180q-307 0 -451.5 189.5t-144.5 531.5zM356 1591v185h672v-185h-672zM377 692q0 -246 70.5 -358.5t234.5 -112.5q166 0 235.5 112.5t69.5 358.5t-69.5 358.5 t-235.5 112.5t-235.5 -112.5t-69.5 -358.5z" horiz-adv-x="1364" unicode="Ō"/><glyph d="M92 522q0 266 121 411.5t383 145.5q260 0 381 -145.5t121 -411.5q0 -262 -121 -407.5t-381 -145.5q-504 0 -504 553zM254 1255v185h672v-185h-672zM358 522q0 -168 55.5 -247.5t182.5 -79.5q125 0 180 78.5t55 248.5q0 173 -54 252.5t-181 79.5q-126 0 -182 -81.5 t-56 -250.5z" horiz-adv-x="1190" unicode="ō"/><glyph d="M86 692q0 344 144.5 532.5t451.5 188.5q309 0 452.5 -188.5t143.5 -532.5q0 -361 -152.5 -541t-443.5 -180q-307 0 -451.5 189.5t-144.5 531.5zM324 1845h188q15 -47 58 -75.5t116 -28.5q68 0 112 28.5t58 75.5h189q0 -88 -44.5 -161.5t-127 -117.5t-189.5 -44 q-106 0 -188.5 43.5t-127 117.5t-44.5 162zM377 692q0 -246 70.5 -358.5t234.5 -112.5q166 0 235.5 112.5t69.5 358.5t-69.5 358.5t-235.5 112.5t-235.5 -112.5t-69.5 -358.5z" horiz-adv-x="1364" unicode="Ŏ"/><glyph d="M92 522q0 266 121 411.5t383 145.5q260 0 381 -145.5t121 -411.5q0 -262 -121 -407.5t-381 -145.5q-504 0 -504 553zM236 1509h188q15 -47 58 -75.5t116 -28.5q68 0 112 28.5t58 75.5h189q0 -88 -44.5 -161.5t-127 -117.5t-189.5 -44q-106 0 -188.5 43.5t-127 117.5 t-44.5 162zM358 522q0 -168 55.5 -247.5t182.5 -79.5q125 0 180 78.5t55 248.5q0 173 -54 252.5t-181 79.5q-126 0 -182 -81.5t-56 -250.5z" horiz-adv-x="1190" unicode="ŏ"/><glyph d="M86 692q0 344 144.5 532.5t451.5 188.5q309 0 452.5 -188.5t143.5 -532.5q0 -361 -152.5 -541t-443.5 -180q-307 0 -451.5 189.5t-144.5 531.5zM346 1544l189 361h315l-299 -361h-205zM377 692q0 -246 70.5 -358.5t234.5 -112.5q166 0 235.5 112.5t69.5 358.5 t-69.5 358.5t-235.5 112.5t-235.5 -112.5t-69.5 -358.5zM762 1544l189 361h315l-299 -361h-205z" horiz-adv-x="1364" unicode="Ő"/><glyph d="M92 522q0 266 121 411.5t383 145.5q260 0 381 -145.5t121 -411.5q0 -262 -121 -407.5t-381 -145.5q-504 0 -504 553zM264 1208l189 361h315l-299 -361h-205zM358 522q0 -168 55.5 -247.5t182.5 -79.5q125 0 180 78.5t55 248.5q0 173 -54 252.5t-181 79.5 q-126 0 -182 -81.5t-56 -250.5zM680 1208l189 361h315l-299 -361h-205z" horiz-adv-x="1190" unicode="ő"/><glyph d="M96 692q0 344 151.5 532.5t459.5 188.5q121 0 247 -29h865v-249h-568v-301h467v-250h-467v-326h568v-258h-861q-106 -29 -251 -29q-312 0 -461.5 189.5t-149.5 531.5zM387 692q0 -246 78 -358.5t264 -112.5q78 0 130 14.5t108 49.5v813q-100 65 -238 65q-182 0 -262 -110 t-80 -361z" horiz-adv-x="1919" unicode="Œ"/><glyph d="M92 522q0 269 121 413t373 144q244 0 377 -149q57 63 144 106t230 43q219 0 334 -128.5t115 -366.5v-127h-696q6 -140 66.5 -201t193.5 -61q73 0 131.5 19t101.5 73l193 -137q-64 -91 -162 -136t-260 -45q-264 0 -391 152q-139 -152 -367 -152q-264 0 -384 146.5 t-120 406.5zM358 522q0 -168 55.5 -247.5t182.5 -79.5q117 0 176 74.5t59 252.5q0 184 -58 258t-177 74q-126 0 -182 -81.5t-56 -250.5zM1096 635h434q0 239 -209 239q-68 0 -113 -23.5t-71 -70.5t-41 -145z" horiz-adv-x="1874" unicode="œ"/><glyph d="M150 0v1384h503q267 0 390.5 -96t123.5 -315q0 -177 -74.5 -282t-211.5 -134l370 -557h-323l-353 524h-143v-524h-282zM432 770h207q95 0 146 18t73.5 56t22.5 117q0 106 -53.5 142t-176.5 36h-219v-369zM436 1544l189 361h315l-299 -361h-205z" horiz-adv-x="1284" unicode="Ŕ"/><glyph d="M145 0v1049h258v-150q66 72 142 119t170 47q80 0 114 -21l-51 -247q-40 20 -106 20q-72 0 -136.5 -34.5t-132.5 -100.5v-682h-258zM307 1208l189 361h315l-299 -361h-205z" horiz-adv-x="840" unicode="ŕ"/><glyph d="M150 0v1384h503q267 0 390.5 -96t123.5 -315q0 -177 -74.5 -282t-211.5 -134l370 -557h-323l-353 524h-143v-524h-282zM432 770h207q95 0 146 18t73.5 56t22.5 117q0 106 -53.5 142t-176.5 36h-219v-369zM489 -233q0 73 35 116t131 43q160 0 160 -180q0 -170 -119 -309 h-166q47 55 63.5 95t20.5 79q-66 4 -95.5 42t-29.5 114z" horiz-adv-x="1284" unicode="Ŗ"/><glyph d="M113 -233q0 73 35 116t131 43q160 0 160 -180q0 -170 -119 -309h-166q47 55 63.5 95t20.5 79q-66 4 -95.5 42t-29.5 114zM145 0v1049h258v-150q66 72 142 119t170 47q80 0 114 -21l-51 -247q-40 20 -106 20q-72 0 -136.5 -34.5t-132.5 -100.5v-682h-258z" horiz-adv-x="840" unicode="ŗ"/><glyph d="M150 0v1384h503q267 0 390.5 -96t123.5 -315q0 -177 -74.5 -282t-211.5 -134l370 -557h-323l-353 524h-143v-524h-282zM270 1905h211l145 -174l150 174h209l-236 -361h-244zM432 770h207q95 0 146 18t73.5 56t22.5 117q0 106 -53.5 142t-176.5 36h-219v-369z" horiz-adv-x="1284" unicode="Ř"/><glyph d="M100 1569h211l145 -174l150 174h209l-236 -361h-244zM145 0v1049h258v-150q66 72 142 119t170 47q80 0 114 -21l-51 -247q-40 20 -106 20q-72 0 -136.5 -34.5t-132.5 -100.5v-682h-258z" horiz-adv-x="840" unicode="ř"/><glyph d="M66 229l217 166q48 -68 91 -102t102 -53t136 -19q115 0 179.5 39.5t64.5 120.5q0 46 -22.5 77t-67.5 53.5t-156 51.5q-108 29 -203.5 58.5t-165 76.5t-109.5 118t-40 179q0 197 133 307.5t381 110.5q359 0 508 -246l-215 -168q-57 88 -128 126t-169 38t-159.5 -35.5 t-61.5 -111.5q0 -67 64 -102.5t223 -71.5q88 -23 174 -49.5t153.5 -73.5t108.5 -123t41 -195q0 -208 -136.5 -319t-402.5 -111q-184 0 -319.5 61t-220.5 197zM450 1544l189 361h315l-299 -361h-205z" horiz-adv-x="1229" unicode="Ś"/><glyph d="M76 152l192 135q47 -64 108.5 -85.5t131.5 -21.5q184 0 184 107q0 47 -52 72.5t-163 52.5q-209 46 -294 130t-85 218q0 139 106.5 229t313.5 90q141 0 248.5 -45t165.5 -135l-193 -137q-69 106 -225 106q-80 0 -121 -27.5t-41 -70.5q0 -41 37 -65.5t146 -51.5 q179 -44 255.5 -87.5t116 -108t39.5 -158.5q0 -104 -52.5 -178t-149 -113t-220.5 -39q-329 0 -448 183zM354 1208l189 361h315l-299 -361h-205z" horiz-adv-x="1026" unicode="ś"/><glyph d="M66 229l217 166q48 -68 91 -102t102 -53t136 -19q115 0 179.5 39.5t64.5 120.5q0 46 -22.5 77t-67.5 53.5t-156 51.5q-108 29 -203.5 58.5t-165 76.5t-109.5 118t-40 179q0 197 133 307.5t381 110.5q359 0 508 -246l-215 -168q-57 88 -128 126t-169 38t-159.5 -35.5 t-61.5 -111.5q0 -67 64 -102.5t223 -71.5q88 -23 174 -49.5t153.5 -73.5t108.5 -123t41 -195q0 -208 -136.5 -319t-402.5 -111q-184 0 -319.5 61t-220.5 197zM244 1544l235 361h244l236 -361h-211l-146 174l-149 -174h-209z" horiz-adv-x="1229" unicode="Ŝ"/><glyph d="M76 152l192 135q47 -64 108.5 -85.5t131.5 -21.5q184 0 184 107q0 47 -52 72.5t-163 52.5q-209 46 -294 130t-85 218q0 139 106.5 229t313.5 90q141 0 248.5 -45t165.5 -135l-193 -137q-69 106 -225 106q-80 0 -121 -27.5t-41 -70.5q0 -41 37 -65.5t146 -51.5 q179 -44 255.5 -87.5t116 -108t39.5 -158.5q0 -104 -52.5 -178t-149 -113t-220.5 -39q-329 0 -448 183zM164 1208l235 361h244l236 -361h-211l-146 174l-149 -174h-209z" horiz-adv-x="1026" unicode="ŝ"/><glyph d="M66 229l217 166q48 -68 91 -102t102 -53t136 -19q115 0 179.5 39.5t64.5 120.5q0 46 -22.5 77t-67.5 53.5t-156 51.5q-108 29 -203.5 58.5t-165 76.5t-109.5 118t-40 179q0 197 133 307.5t381 110.5q359 0 508 -246l-215 -168q-57 88 -128 126t-169 38t-159.5 -35.5 t-61.5 -111.5q0 -67 64 -102.5t223 -71.5q88 -23 174 -49.5t153.5 -73.5t108.5 -123t41 -195q0 -186 -108.5 -294.5t-319.5 -129.5q59 -16 100 -63t41 -119q0 -190 -287 -190q-171 0 -264 45l70 145q106 -45 192 -45q54 0 75.5 11.5t21.5 35.5q0 63 -181 72l54 104 q-165 12 -279 71t-194 185z" horiz-adv-x="1229" unicode="Ş"/><glyph d="M76 152l192 135q47 -64 108.5 -85.5t131.5 -21.5q184 0 184 107q0 47 -52 72.5t-163 52.5q-209 46 -294 130t-85 218q0 139 106.5 229t313.5 90q141 0 248.5 -45t165.5 -135l-193 -137q-69 106 -225 106q-80 0 -121 -27.5t-41 -70.5q0 -41 37 -65.5t146 -51.5 q179 -44 255.5 -87.5t116 -108t39.5 -158.5q0 -130 -80.5 -213t-228.5 -106v-3q61 -14 103 -61t42 -121q0 -190 -286 -190q-172 0 -265 45l70 145q106 -45 193 -45q53 0 74.5 11.5t21.5 35.5q0 63 -180 72l53 102q-281 19 -387 181z" horiz-adv-x="1026" unicode="ş"/><glyph d="M66 229l217 166q48 -68 91 -102t102 -53t136 -19q115 0 179.5 39.5t64.5 120.5q0 46 -22.5 77t-67.5 53.5t-156 51.5q-108 29 -203.5 58.5t-165 76.5t-109.5 118t-40 179q0 197 133 307.5t381 110.5q359 0 508 -246l-215 -168q-57 88 -128 126t-169 38t-159.5 -35.5 t-61.5 -111.5q0 -67 64 -102.5t223 -71.5q88 -23 174 -49.5t153.5 -73.5t108.5 -123t41 -195q0 -208 -136.5 -319t-402.5 -111q-184 0 -319.5 61t-220.5 197zM223 1905h211l145 -174l150 174h209l-236 -361h-244z" horiz-adv-x="1229" unicode="Š"/><glyph d="M76 152l192 135q47 -64 108.5 -85.5t131.5 -21.5q184 0 184 107q0 47 -52 72.5t-163 52.5q-209 46 -294 130t-85 218q0 139 106.5 229t313.5 90q141 0 248.5 -45t165.5 -135l-193 -137q-69 106 -225 106q-80 0 -121 -27.5t-41 -70.5q0 -41 37 -65.5t146 -51.5 q179 -44 255.5 -87.5t116 -108t39.5 -158.5q0 -104 -52.5 -178t-149 -113t-220.5 -39q-329 0 -448 183zM129 1569h211l145 -174l150 174h209l-236 -361h-244z" horiz-adv-x="1026" unicode="š"/><glyph d="M35 1126v258h1134v-258h-426v-1126h-65l-10 -23q94 -12 140 -60t46 -122q0 -190 -287 -190q-171 0 -264 45l70 145q106 -45 192 -45q53 0 75 11.5t22 35.5q0 63 -181 72l68 131h-88v1126h-426z" horiz-adv-x="1204" unicode="Ţ"/><glyph d="M31 844v205h133v292h258v-292h244v-205h-244v-494q0 -98 30.5 -133t86.5 -35q71 0 141 29l45 -211q-63 -18 -156 -27q54 -18 90.5 -63t36.5 -115q0 -190 -286 -190q-172 0 -265 45l70 145q106 -45 193 -45q53 0 74.5 11.5t21.5 35.5q0 63 -180 72l57 113 q-115 24 -166 106t-51 229v527h-133z" horiz-adv-x="739" unicode="ţ"/><glyph d="M35 1126v258h1134v-258h-426v-1126h-282v1126h-426zM246 1905h211l145 -174l150 174h209l-236 -361h-244z" horiz-adv-x="1204" unicode="Ť"/><glyph d="M31 844v205h133v292h258v-292h244v-205h-244v-494q0 -98 30.5 -133t86.5 -35q71 0 141 29l45 -211q-104 -31 -219 -31q-182 0 -262 82t-80 266v527h-133zM514 1128l55 361h271l-166 -361h-160z" horiz-adv-x="739" unicode="ť"/><glyph d="M35 1126v258h1134v-258h-426v-270h195v-184h-195v-672h-282v672h-195v184h195v270h-426z" horiz-adv-x="1204" unicode="Ŧ"/><glyph d="M10 537v184h154v123h-133v205h133v292h258v-292h244v-205h-244v-123h260v-184h-260v-187q0 -98 30.5 -133t86.5 -35q71 0 141 29l45 -211q-104 -31 -219 -31q-182 0 -262 82t-80 266v220h-154z" horiz-adv-x="739" unicode="ŧ"/><glyph d="M150 578v806h282v-786q0 -141 27 -222t86 -119t172 -38q161 0 225 85.5t64 289.5v790h282v-806q0 -325 -132 -467t-437 -142q-302 0 -435.5 140.5t-133.5 468.5zM316 1567q5 155 73 236t189 81q61 0 104 -22.5t77 -48t62.5 -48t61.5 -22.5q35 0 51.5 35t16.5 92h182 q-10 -165 -75.5 -243.5t-188.5 -78.5q-66 0 -109 22.5t-75.5 50.5t-59.5 50.5t-60 22.5q-67 0 -67 -127h-182z" horiz-adv-x="1438" unicode="Ũ"/><glyph d="M137 348v701h258v-578q0 -111 13 -170t42.5 -81.5t86.5 -22.5q115 0 276 151v701h258v-1049h-258v135q-68 -73 -166.5 -119.5t-189.5 -46.5q-178 0 -249 98.5t-71 280.5zM217 1231q5 155 73 236t189 81q61 0 104 -22.5t77 -48t62.5 -48t61.5 -22.5q35 0 51.5 35t16.5 92 h182q-10 -165 -75.5 -243.5t-188.5 -78.5q-66 0 -109 22.5t-75.5 50.5t-59.5 50.5t-60 22.5q-67 0 -67 -127h-182z" horiz-adv-x="1217" unicode="ũ"/><glyph d="M150 578v806h282v-786q0 -141 27 -222t86 -119t172 -38q161 0 225 85.5t64 289.5v790h282v-806q0 -325 -132 -467t-437 -142q-302 0 -435.5 140.5t-133.5 468.5zM397 1591v185h672v-185h-672z" horiz-adv-x="1438" unicode="Ū"/><glyph d="M137 348v701h258v-578q0 -111 13 -170t42.5 -81.5t86.5 -22.5q115 0 276 151v701h258v-1049h-258v135q-68 -73 -166.5 -119.5t-189.5 -46.5q-178 0 -249 98.5t-71 280.5zM266 1255v185h672v-185h-672z" horiz-adv-x="1217" unicode="ū"/><glyph d="M150 578v806h282v-786q0 -141 27 -222t86 -119t172 -38q161 0 225 85.5t64 289.5v790h282v-806q0 -325 -132 -467t-437 -142q-302 0 -435.5 140.5t-133.5 468.5zM371 1845h188q15 -47 58 -75.5t116 -28.5q68 0 112 28.5t58 75.5h189q0 -88 -44.5 -161.5t-127 -117.5 t-189.5 -44q-106 0 -188.5 43.5t-127 117.5t-44.5 162z" horiz-adv-x="1438" unicode="Ŭ"/><glyph d="M137 348v701h258v-578q0 -111 13 -170t42.5 -81.5t86.5 -22.5q115 0 276 151v701h258v-1049h-258v135q-68 -73 -166.5 -119.5t-189.5 -46.5q-178 0 -249 98.5t-71 280.5zM242 1509h188q15 -47 58 -75.5t116 -28.5q68 0 112 28.5t58 75.5h189q0 -88 -44.5 -161.5 t-127 -117.5t-189.5 -44q-106 0 -188.5 43.5t-127 117.5t-44.5 162z" horiz-adv-x="1217" unicode="ŭ"/><glyph d="M150 578v806h282v-786q0 -141 27 -222t86 -119t172 -38q161 0 225 85.5t64 289.5v790h282v-806q0 -325 -132 -467t-437 -142q-302 0 -435.5 140.5t-133.5 468.5zM494 1716q0 107 57.5 166.5t171.5 59.5q119 0 175.5 -60.5t56.5 -165.5q0 -110 -59.5 -167.5t-172.5 -57.5 q-117 0 -173 60.5t-56 164.5zM637 1716q0 -90 86 -90q88 0 88 90t-88 90q-86 0 -86 -90z" horiz-adv-x="1438" unicode="Ů"/><glyph d="M137 348v701h258v-578q0 -111 13 -170t42.5 -81.5t86.5 -22.5q115 0 276 151v701h258v-1049h-258v135q-68 -73 -166.5 -119.5t-189.5 -46.5q-178 0 -249 98.5t-71 280.5zM363 1380q0 107 57.5 166.5t171.5 59.5q119 0 175.5 -60.5t56.5 -165.5q0 -110 -59.5 -167.5 t-172.5 -57.5q-117 0 -173 60.5t-56 164.5zM506 1380q0 -90 86 -90q88 0 88 90t-88 90q-86 0 -86 -90z" horiz-adv-x="1217" unicode="ů"/><glyph d="M150 578v806h282v-786q0 -141 27 -222t86 -119t172 -38q161 0 225 85.5t64 289.5v790h282v-806q0 -325 -132 -467t-437 -142q-302 0 -435.5 140.5t-133.5 468.5zM387 1544l189 361h315l-299 -361h-205zM803 1544l189 361h315l-299 -361h-205z" horiz-adv-x="1438" unicode="Ű"/><glyph d="M137 348v701h258v-578q0 -111 13 -170t42.5 -81.5t86.5 -22.5q115 0 276 151v701h258v-1049h-258v135q-68 -73 -166.5 -119.5t-189.5 -46.5q-178 0 -249 98.5t-71 280.5zM286 1208l189 361h315l-299 -361h-205zM702 1208l189 361h315l-299 -361h-205z" horiz-adv-x="1217" unicode="ű"/><glyph d="M150 578v806h282v-786q0 -141 27 -222t86 -119t172 -38q161 0 225 85.5t64 289.5v790h282v-806q0 -302 -110 -443q-69 -86 -106.5 -163.5t-37.5 -114.5q0 -33 17.5 -47.5t42.5 -14.5q16 0 45.5 7.5t54.5 23.5l94 -158q-128 -63 -239 -63q-105 0 -162.5 47t-57.5 133 q0 101 60 197q-78 -13 -170 -13q-302 0 -435.5 140.5t-133.5 468.5z" horiz-adv-x="1438" unicode="Ų"/><glyph d="M137 348v701h258v-578q0 -111 13 -170t42.5 -81.5t86.5 -22.5q115 0 276 151v701h258v-1049q-137 -29 -195.5 -63.5t-58.5 -79.5q0 -33 17.5 -47.5t42.5 -14.5q16 0 45.5 7.5t54.5 23.5l94 -158q-128 -63 -240 -63q-104 0 -161.5 47t-57.5 133q0 90 60.5 148.5 t140.5 91.5v110q-68 -73 -166.5 -119.5t-189.5 -46.5q-178 0 -249 98.5t-71 280.5z" horiz-adv-x="1217" unicode="ų"/><glyph d="M43 1384h281l221 -903l229 903h279l231 -909l227 909h279l-358 -1384h-289l-232 915l-233 -915h-285zM561 1544l235 361h244l236 -361h-211l-146 174l-149 -174h-209z" horiz-adv-x="1833" unicode="Ŵ"/><glyph d="M27 1049h268l162 -676l235 676h195l237 -670l156 670h258l-281 -1049h-235l-236 668l-237 -668h-236zM428 1208l235 361h244l236 -361h-211l-146 174l-149 -174h-209z" horiz-adv-x="1565" unicode="ŵ"/><glyph d="M18 1384h308l270 -579l276 579h297l-434 -856v-528h-284v522zM238 1544l235 361h244l236 -361h-211l-146 174l-149 -174h-209z" horiz-adv-x="1188" unicode="Ŷ"/><glyph d="M-20 -365l55 224q84 -29 151 -29q58 0 102 35t91 145l27 62l-379 977h268l248 -670l254 670h262l-451 -1121q-55 -135 -107 -200t-121.5 -94t-174.5 -29q-114 0 -225 30zM182 1208l235 361h244l236 -361h-211l-146 174l-149 -174h-209z" horiz-adv-x="1085" unicode="ŷ"/><glyph d="M18 1384h308l270 -579l276 579h297l-434 -856v-528h-284v522zM226 1671q0 70 31.5 100.5t109.5 30.5t111.5 -29.5t33.5 -101.5q0 -73 -35.5 -102t-109.5 -29q-82 0 -111.5 34t-29.5 97zM670 1671q0 70 31.5 100.5t109.5 30.5t112 -29.5t34 -101.5q0 -73 -36 -102 t-110 -29q-82 0 -111.5 34t-29.5 97z" horiz-adv-x="1188" unicode="Ÿ"/><glyph d="M72 0v238l635 888h-605v258h942v-227l-641 -899h658v-258h-989zM395 1542l189 361h315l-299 -361h-205z" horiz-adv-x="1147" unicode="Ź"/><glyph d="M57 0v188l490 656h-477v205h786v-187l-491 -657h507v-205h-815zM287 1208l189 361h315l-299 -361h-205z" horiz-adv-x="930" unicode="ź"/><glyph d="M72 0v238l635 888h-605v258h942v-227l-641 -899h658v-258h-989zM414 1669q0 70 31.5 100.5t109.5 30.5t112 -29.5t34 -101.5q0 -73 -36 -102t-110 -29q-82 0 -111.5 34t-29.5 97z" horiz-adv-x="1147" unicode="Ż"/><glyph d="M57 0v188l490 656h-477v205h786v-187l-491 -657h507v-205h-815zM315 1335q0 70 31.5 100.5t109.5 30.5t112 -29.5t34 -101.5q0 -73 -36 -102t-110 -29q-82 0 -111.5 34t-29.5 97z" horiz-adv-x="930" unicode="ż"/><glyph d="M72 0v238l635 888h-605v258h942v-227l-641 -899h658v-258h-989zM199 1903h211l145 -174l150 174h209l-236 -361h-244z" horiz-adv-x="1147" unicode="Ž"/><glyph d="M57 0v188l490 656h-477v205h786v-187l-491 -657h507v-205h-815zM100 1569h211l145 -174l150 174h209l-236 -361h-244z" horiz-adv-x="930" unicode="ž"/><glyph d="M45 844v205h123v102q0 195 96.5 282t290.5 87q91 0 193 -25l-50 -225q-72 24 -139 24q-76 0 -104.5 -31.5t-28.5 -111.5v-1151h-258v844h-123z" horiz-adv-x="614" unicode="ſ"/><glyph d="M-270 -365l90 230q97 -35 168 -35q75 0 110 33t52 110l169 871h-133l39 205h133l21 102q40 197 154 283t305 86q53 0 114.5 -8.5t104.5 -22.5l-90 -227q-94 32 -168 32q-76 0 -111 -32.5t-51 -110.5l-21 -102h203l-39 -205h-202l-170 -871q-35 -178 -141.5 -273 t-317.5 -95q-127 0 -219 30z" horiz-adv-x="1038" unicode="ƒ"/><glyph d="M86 692q0 344 144.5 532.5t451.5 188.5q386 0 518 -297h23q86 0 116.5 40t30.5 128v162h211v-162q0 -170 -74.5 -255t-234.5 -85h-17q23 -119 23 -252q0 -361 -152.5 -541t-443.5 -180q-307 0 -451.5 189.5t-144.5 531.5zM377 692q0 -246 70.5 -358.5t234.5 -112.5 q166 0 235.5 112.5t69.5 358.5t-69.5 358.5t-235.5 112.5t-235.5 -112.5t-69.5 -358.5z" horiz-adv-x="1540" unicode="Ơ"/><glyph d="M92 522q0 266 121 411.5t383 145.5q328 0 440 -237q84 0 115 40t31 128v120h211v-120q0 -318 -306 -340q11 -77 11 -148q0 -262 -121 -407.5t-381 -145.5q-504 0 -504 553zM358 522q0 -168 55.5 -247.5t182.5 -79.5q125 0 180 78.5t55 248.5q0 173 -54 252.5t-181 79.5 q-126 0 -182 -81.5t-56 -250.5z" horiz-adv-x="1352" unicode="ơ"/><glyph d="M150 578v806h282v-786q0 -141 27 -222t86 -119t172 -38q161 0 225 85.5t64 289.5v790h282v-268h17q86 0 116.5 40t30.5 128v162h211v-162q0 -340 -346 -340h-29v-366q0 -325 -132 -467t-437 -142q-302 0 -435.5 140.5t-133.5 468.5z" horiz-adv-x="1622" unicode="Ư"/><glyph d="M137 348v701h258v-578q0 -111 13 -170t42.5 -81.5t86.5 -22.5q115 0 276 151v701h258v-207h12q84 0 113 40t29 128v120h211v-120q0 -340 -340 -340h-25v-670h-258v135q-68 -73 -166.5 -119.5t-189.5 -46.5q-178 0 -249 98.5t-71 280.5z" horiz-adv-x="1395" unicode="ư"/><glyph d="M27 0l458 1384h367l459 -1384h-289l-92 281h-533l-90 -281h-280zM309 1905h211l145 -174l150 174h209l-236 -361h-244zM477 528h373l-186 572z" horiz-adv-x="1337" unicode="Ǎ"/><glyph d="M84 295q0 112 45.5 185t135 114.5t257.5 58.5l221 21v47q0 88 -53 120.5t-155 32.5q-84 0 -144.5 -28t-89.5 -80l-201 129q53 89 166 136.5t273 47.5q245 0 353.5 -85.5t108.5 -280.5v-713h-237v109q-153 -140 -328 -140q-174 0 -263 91.5t-89 234.5zM211 1569h211 l145 -174l150 174h209l-236 -361h-244zM350 299q0 -72 40 -98.5t106 -26.5q47 0 114.5 29.5t132.5 83.5v200l-131 -12q-139 -12 -200.5 -53t-61.5 -123z" horiz-adv-x="1139" unicode="ǎ"/><glyph d="M80 1905h211l145 -174l150 174h209l-236 -361h-244zM102 0v217h193v950h-193v217h668v-217h-192v-950h192v-217h-668z" horiz-adv-x="872" unicode="Ǐ"/><glyph d="M-80 1569h211l145 -174l150 174h209l-236 -361h-244zM145 0v1049h258v-1049h-258z" horiz-adv-x="549" unicode="ǐ"/><glyph d="M86 692q0 344 144.5 532.5t451.5 188.5q309 0 452.5 -188.5t143.5 -532.5q0 -361 -152.5 -541t-443.5 -180q-307 0 -451.5 189.5t-144.5 531.5zM322 1905h211l145 -174l150 174h209l-236 -361h-244zM377 692q0 -246 70.5 -358.5t234.5 -112.5q166 0 235.5 112.5 t69.5 358.5t-69.5 358.5t-235.5 112.5t-235.5 -112.5t-69.5 -358.5z" horiz-adv-x="1364" unicode="Ǒ"/><glyph d="M92 522q0 266 121 411.5t383 145.5q260 0 381 -145.5t121 -411.5q0 -262 -121 -407.5t-381 -145.5q-504 0 -504 553zM238 1569h211l145 -174l150 174h209l-236 -361h-244zM358 522q0 -168 55.5 -247.5t182.5 -79.5q125 0 180 78.5t55 248.5q0 173 -54 252.5t-181 79.5 q-126 0 -182 -81.5t-56 -250.5z" horiz-adv-x="1190" unicode="ǒ"/><glyph d="M150 578v806h282v-786q0 -141 27 -222t86 -119t172 -38q161 0 225 85.5t64 289.5v790h282v-806q0 -325 -132 -467t-437 -142q-302 0 -435.5 140.5t-133.5 468.5zM369 1905h211l145 -174l150 174h209l-236 -361h-244z" horiz-adv-x="1438" unicode="Ǔ"/><glyph d="M137 348v701h258v-578q0 -111 13 -170t42.5 -81.5t86.5 -22.5q115 0 276 151v701h258v-1049h-258v135q-68 -73 -166.5 -119.5t-189.5 -46.5q-178 0 -249 98.5t-71 280.5zM250 1569h211l145 -174l150 174h209l-236 -361h-244z" horiz-adv-x="1217" unicode="ǔ"/><glyph d="M150 578v806h282v-786q0 -141 27 -222t86 -119t172 -38q161 0 225 85.5t64 289.5v790h282v-806q0 -325 -132 -467t-437 -142q-302 0 -435.5 140.5t-133.5 468.5zM351 1640q0 70 31.5 101t109.5 31t111.5 -30t33.5 -102q0 -73 -35.5 -102t-109.5 -29q-82 0 -111.5 34 t-29.5 97zM385 1835v184h672v-184h-672zM795 1640q0 70 31.5 101t109.5 31t112 -30t34 -102q0 -73 -36 -102t-110 -29q-82 0 -111.5 34t-29.5 97z" horiz-adv-x="1438" unicode="Ǖ"/><glyph d="M137 348v701h258v-578q0 -111 13 -170t42.5 -81.5t86.5 -22.5q115 0 276 151v701h258v-1049h-258v135q-68 -73 -166.5 -119.5t-189.5 -46.5q-178 0 -249 98.5t-71 280.5zM242 1305q0 69 31.5 100t109.5 31t111.5 -30t33.5 -101q0 -74 -35.5 -102.5t-109.5 -28.5 q-82 0 -111.5 33.5t-29.5 97.5zM276 1499v184h672v-184h-672zM686 1305q0 69 31.5 100t109.5 31t112 -30t34 -101q0 -74 -36 -102.5t-110 -28.5q-82 0 -111.5 33.5t-29.5 97.5z" horiz-adv-x="1217" unicode="ǖ"/><glyph d="M150 578v806h282v-786q0 -141 27 -222t86 -119t172 -38q161 0 225 85.5t64 289.5v790h282v-806q0 -325 -132 -467t-437 -142q-302 0 -435.5 140.5t-133.5 468.5zM357 1640q0 70 31.5 101t109.5 31t111.5 -30t33.5 -102q0 -73 -35.5 -102t-109.5 -29q-82 0 -111.5 34 t-29.5 97zM608 1798l123 291h316l-244 -291h-195zM801 1640q0 70 31.5 101t109.5 31t112 -30t34 -102q0 -73 -36 -102t-110 -29q-82 0 -111.5 34t-29.5 97z" horiz-adv-x="1438" unicode="Ǘ"/><glyph d="M137 348v701h258v-578q0 -111 13 -170t42.5 -81.5t86.5 -22.5q115 0 276 151v701h258v-1049h-258v135q-68 -73 -166.5 -119.5t-189.5 -46.5q-178 0 -249 98.5t-71 280.5zM242 1305q0 69 31.5 100t109.5 31t111.5 -30t33.5 -101q0 -74 -35.5 -102.5t-109.5 -28.5 q-82 0 -111.5 33.5t-29.5 97.5zM493 1462l123 291h316l-244 -291h-195zM686 1305q0 69 31.5 100t109.5 31t112 -30t34 -101q0 -74 -36 -102.5t-110 -28.5q-82 0 -111.5 33.5t-29.5 97.5z" horiz-adv-x="1217" unicode="ǘ"/><glyph d="M150 578v806h282v-786q0 -141 27 -222t86 -119t172 -38q161 0 225 85.5t64 289.5v790h282v-806q0 -325 -132 -467t-437 -142q-302 0 -435.5 140.5t-133.5 468.5zM359 1638q0 70 31.5 99.5t109.5 29.5t111.5 -28.5t33.5 -100.5q0 -73 -35.5 -101t-109.5 -28 q-82 0 -111.5 33t-29.5 96zM371 2089h211l145 -139l150 139h209l-236 -291h-244zM803 1638q0 70 31.5 99.5t109.5 29.5t112 -28.5t34 -100.5q0 -73 -36 -101t-110 -28q-82 0 -111.5 33t-29.5 96z" horiz-adv-x="1438" unicode="Ǚ"/><glyph d="M137 348v701h258v-578q0 -111 13 -170t42.5 -81.5t86.5 -22.5q115 0 276 151v701h258v-1049h-258v135q-68 -73 -166.5 -119.5t-189.5 -46.5q-178 0 -249 98.5t-71 280.5zM242 1303q0 69 31.5 99t109.5 30t111.5 -29t33.5 -100q0 -74 -35.5 -101.5t-109.5 -27.5 q-82 0 -111.5 32.5t-29.5 96.5zM254 1753h211l145 -139l150 139h209l-236 -291h-244zM686 1303q0 69 31.5 99t109.5 30t112 -29t34 -100q0 -74 -36 -101.5t-110 -27.5q-82 0 -111.5 32.5t-29.5 96.5z" horiz-adv-x="1217" unicode="ǚ"/><glyph d="M150 578v806h282v-786q0 -141 27 -222t86 -119t172 -38q161 0 225 85.5t64 289.5v790h282v-806q0 -325 -132 -467t-437 -142q-302 0 -435.5 140.5t-133.5 468.5zM355 1640q0 70 31.5 101t109.5 31t111.5 -30t33.5 -102q0 -73 -35.5 -102t-109.5 -29q-82 0 -111.5 34 t-29.5 97zM391 2089h316l123 -291h-195zM799 1640q0 70 31.5 101t109.5 31t112 -30t34 -102q0 -73 -36 -102t-110 -29q-82 0 -111.5 34t-29.5 97z" horiz-adv-x="1438" unicode="Ǜ"/><glyph d="M137 348v701h258v-578q0 -111 13 -170t42.5 -81.5t86.5 -22.5q115 0 276 151v701h258v-1049h-258v135q-68 -73 -166.5 -119.5t-189.5 -46.5q-178 0 -249 98.5t-71 280.5zM242 1305q0 69 31.5 100t109.5 31t111.5 -30t33.5 -101q0 -74 -35.5 -102.5t-109.5 -28.5 q-82 0 -111.5 33.5t-29.5 97.5zM278 1753h316l123 -291h-195zM686 1305q0 69 31.5 100t109.5 31t112 -30t34 -101q0 -74 -36 -102.5t-110 -28.5q-82 0 -111.5 33.5t-29.5 97.5z" horiz-adv-x="1217" unicode="ǜ"/><glyph d="M27 0l448 1352q-35 43 -35 123q0 106 57.5 163.5t172.5 57.5q118 0 174.5 -58.5t56.5 -162.5q0 -82 -37 -127l447 -1348h-289l-92 281h-533l-90 -281h-280zM477 528h373l-186 572zM557 1749l131 279h316l-242 -279h-205zM584 1475q0 -86 86 -86q88 0 88 86t-88 86 q-86 0 -86 -86z" horiz-adv-x="1337" unicode="Ǻ"/><glyph d="M84 295q0 112 45.5 185t135 114.5t257.5 58.5l221 21v47q0 88 -53 120.5t-155 32.5q-84 0 -144.5 -28t-89.5 -80l-201 129q53 89 166 136.5t273 47.5q245 0 353.5 -85.5t108.5 -280.5v-713h-237v109q-153 -140 -328 -140q-174 0 -263 91.5t-89 234.5zM309 1378 q0 107 57.5 166.5t171.5 59.5q119 0 175.5 -60.5t56.5 -165.5q0 -110 -59.5 -167.5t-172.5 -57.5q-117 0 -173 60.5t-56 164.5zM350 299q0 -72 40 -98.5t106 -26.5q47 0 114.5 29.5t132.5 83.5v200l-131 -12q-139 -12 -200.5 -53t-61.5 -123zM379 1659l189 361h315 l-299 -361h-205zM452 1378q0 -90 86 -90q88 0 88 90t-88 90q-86 0 -86 -90z" horiz-adv-x="1139" unicode="ǻ"/><glyph d="M20 0l555 1384h1135v-249h-567v-301h469v-250h-469v-326h567v-258h-850v360h-409l-144 -360h-287zM547 608h313v527h-104zM858 1544l189 361h315l-299 -361h-205z" horiz-adv-x="1810" unicode="Ǽ"/><glyph d="M84 303q0 157 105.5 244t332.5 106l221 21v47q0 86 -52 119.5t-148 33.5q-109 0 -162 -32.5t-80 -75.5l-201 129q53 89 164.5 136.5t276.5 47.5q254 0 356 -123q121 123 350 123q220 0 335.5 -127.5t115.5 -367.5v-127h-697q7 -140 67 -201t196 -61q73 0 130.5 19 t100.5 73l193 -137q-64 -91 -162.5 -136t-257.5 -45q-299 0 -428 168q-97 -82 -196 -125t-212 -43q-170 0 -259 91.5t-89 242.5zM350 299q0 -125 139 -125q64 0 140 25.5t141 76.5q-13 40 -20 113t-7 98l-131 -12q-139 -12 -200.5 -53t-61.5 -123zM743 1208l189 361h315 l-299 -361h-205zM1008 635h434q0 239 -211 239q-113 0 -160 -64.5t-63 -174.5z" horiz-adv-x="1786" unicode="ǽ"/><glyph d="M27 -115l194 285q-135 180 -135 522q0 344 144.5 532.5t451.5 188.5q201 0 334 -84l108 160h199l-184 -270q139 -182 139 -527q0 -361 -152.5 -541t-443.5 -180q-207 0 -338 86l-117 -172h-200zM377 692q0 -157 26 -256l461 674q-69 53 -182 53q-166 0 -235.5 -112.5 t-69.5 -358.5zM496 276q67 -55 186 -55q166 0 235.5 112.5t69.5 358.5q0 158 -29 262zM512 1544l189 361h315l-299 -361h-205z" horiz-adv-x="1364" unicode="Ǿ"/><glyph d="M92 522q0 266 121 411.5t383 145.5q141 0 246 -47l61 92h182l-118 -180q131 -145 131 -422q0 -262 -121 -407.5t-381 -145.5q-144 0 -248 45l-59 -90h-183l117 176q-131 141 -131 422zM358 522q0 -103 23 -184l328 493q-45 23 -113 23q-126 0 -182 -81.5t-56 -250.5z M426 1208l189 361h315l-299 -361h-205zM483 215q47 -20 113 -20q125 0 180 78.5t55 248.5q0 108 -22 185z" horiz-adv-x="1190" unicode="ǿ"/><glyph d="M66 229l217 166q48 -68 91 -102t102 -53t136 -19q115 0 179.5 39.5t64.5 120.5q0 46 -22.5 77t-67.5 53.5t-156 51.5q-108 29 -203.5 58.5t-165 76.5t-109.5 118t-40 179q0 197 133 307.5t381 110.5q359 0 508 -246l-215 -168q-57 88 -128 126t-169 38t-159.5 -35.5 t-61.5 -111.5q0 -67 64 -102.5t223 -71.5q88 -23 174 -49.5t153.5 -73.5t108.5 -123t41 -195q0 -208 -136.5 -319t-402.5 -111q-184 0 -319.5 61t-220.5 197zM496 -233q0 73 35 116t131 43q160 0 160 -180q0 -170 -119 -309h-166q47 55 63.5 95t20.5 79q-66 4 -95.5 42 t-29.5 114z" horiz-adv-x="1229" unicode="Ș"/><glyph d="M76 152l192 135q47 -64 108.5 -85.5t131.5 -21.5q184 0 184 107q0 47 -52 72.5t-163 52.5q-209 46 -294 130t-85 218q0 139 106.5 229t313.5 90q141 0 248.5 -45t165.5 -135l-193 -137q-69 106 -225 106q-80 0 -121 -27.5t-41 -70.5q0 -41 37 -65.5t146 -51.5 q179 -44 255.5 -87.5t116 -108t39.5 -158.5q0 -104 -52.5 -178t-149 -113t-220.5 -39q-329 0 -448 183zM371 -233q0 73 35 116t131 43q160 0 160 -180q0 -170 -119 -309h-166q47 55 63.5 95t20.5 79q-66 4 -95.5 42t-29.5 114z" horiz-adv-x="1026" unicode="ș"/><glyph d="M35 1126v258h1134v-258h-426v-1126h-282v1126h-426zM453 -233q0 73 35 116t131 43q160 0 160 -180q0 -170 -119 -309h-166q47 55 63.5 95t20.5 79q-66 4 -95.5 42t-29.5 114z" horiz-adv-x="1204" unicode="Ț"/><glyph d="M31 844v205h133v292h258v-292h244v-205h-244v-494q0 -98 30.5 -133t86.5 -35q71 0 141 29l45 -211q-104 -31 -219 -31q-182 0 -262 82t-80 266v527h-133zM270 -233q0 73 35 116t131 43q160 0 160 -180q0 -170 -119 -309h-166q47 55 63.5 95t20.5 79q-66 4 -95.5 42 t-29.5 114z" horiz-adv-x="739" unicode="ț"/><glyph d="M-162 -365l56 224q73 -29 151 -29t96.5 48t18.5 159v1012h258v-1094q0 -188 -84 -269t-275 -81q-43 0 -113 9.5t-108 20.5z" horiz-adv-x="563" unicode="ȷ"/><glyph d="M-10 1165q69 123 180 185.5t287 62.5q235 0 362 -106t127 -295q0 -111 -37 -195.5t-109 -153.5t-218 -147v-516h-263v639q137 61 211 113t107 108t33 137q0 78 -51.5 134.5t-159.5 56.5q-90 0 -144.5 -36t-99.5 -110z" horiz-adv-x="1018" unicode="ˀ"/><glyph d="M164 1208l235 361h244l236 -361h-211l-146 174l-149 -174h-209z" unicode="ˆ"/><glyph d="M164 1569h211l145 -174l150 174h209l-236 -361h-244z" unicode="ˇ"/><glyph d="M186 1255v185h672v-185h-672z" unicode="ˉ"/><glyph d="M162 1509h188q15 -47 58 -75.5t116 -28.5q68 0 112 28.5t58 75.5h189q0 -88 -44.5 -161.5t-127 -117.5t-189.5 -44q-106 0 -188.5 43.5t-127 117.5t-44.5 162z" unicode="˘"/><glyph d="M379 1335q0 70 31.5 100.5t109.5 30.5t112 -29.5t34 -101.5q0 -73 -36 -102t-110 -29q-82 0 -111.5 34t-29.5 97z" unicode="˙"/><glyph d="M291 1378q0 107 57.5 166.5t171.5 59.5q119 0 175.5 -60.5t56.5 -165.5q0 -110 -59.5 -167.5t-172.5 -57.5q-117 0 -173 60.5t-56 164.5zM434 1378q0 -90 86 -90q88 0 88 90t-88 90q-86 0 -86 -90z" unicode="˚"/><glyph d="M375 -215q0 75 50.5 134.5t137 100.5t180.5 52l91 -72q-138 -29 -196 -63.5t-58 -79.5q0 -62 59 -62q16 0 46 7.5t54 23.5l95 -158q-131 -63 -240 -63q-105 0 -162 47t-57 133z" unicode="˛"/><glyph d="M113 1231q5 155 73 236t189 81q61 0 104 -22.5t77 -48t62.5 -48t61.5 -22.5q35 0 51.5 35t16.5 92h182q-10 -165 -75.5 -243.5t-188.5 -78.5q-66 0 -109 22.5t-75.5 50.5t-59.5 50.5t-60 22.5q-67 0 -67 -127h-182z" unicode="˜"/><glyph d="M145 1208l189 361h315l-299 -361h-205zM561 1208l189 361h315l-299 -361h-205z" unicode="˝"/><glyph d="M-328 1569h316l188 -361h-205z" horiz-adv-x="0" unicode="̀"/><glyph d="M-174 1208l188 361h316l-299 -361h-205z" horiz-adv-x="0" unicode="́"/><glyph d="M-358 1208l235 361h244l235 -361h-211l-145 174l-150 -174h-208z" horiz-adv-x="0" unicode="̂"/><glyph d="M-410 1231q5 152 73 234.5t190 82.5q61 0 104 -22.5t77 -48t62.5 -48t61.5 -22.5q67 0 67 127h183q-13 -171 -79 -246.5t-186 -75.5q-65 0 -108 22.5t-76 50.5t-59.5 50.5t-59.5 22.5q-67 0 -67 -127h-183z" horiz-adv-x="0" unicode="̃"/><glyph d="M-336 1255v185h672v-185h-672z" horiz-adv-x="0" unicode="̄"/><glyph d="M-360 1530h188q14 -47 57 -76t117 -29q68 0 112 29t58 76h188q0 -89 -45 -163t-127.5 -117.5t-187.5 -43.5t-188 44t-127.5 118t-44.5 162z" horiz-adv-x="0" unicode="̆"/><glyph d="M-143 1335q0 70 31.5 100.5t109.5 30.5t111.5 -29.5t33.5 -101.5q0 -73 -35.5 -102t-109.5 -29q-82 0 -111.5 34t-29.5 97z" horiz-adv-x="0" unicode="̇"/><glyph d="M-367 1335q0 70 32 100.5t110 30.5t111.5 -29.5t33.5 -101.5q0 -73 -36 -102t-109 -29q-82 0 -112 34t-30 97zM80 1335q0 70 31.5 100.5t109.5 30.5t112 -29.5t34 -101.5q0 -73 -36 -102t-110 -29q-82 0 -111.5 34t-29.5 97z" horiz-adv-x="0" unicode="̈"/><glyph d="M-207 1487q70 53 197 53q104 0 160.5 -46t56.5 -120q0 -69 -47 -116.5t-127 -53.5v-43h-127v137h43q74 0 74 60q0 51 -76 51q-57 0 -97 -25z" horiz-adv-x="0" unicode="̉"/><glyph d="M-215 1366q0 100 52 156.5t161 56.5q113 0 164 -57.5t51 -155.5q0 -104 -54.5 -158.5t-160.5 -54.5q-111 0 -162 57.5t-51 155.5zM-88 1366q0 -90 86 -90q88 0 88 90t-88 90q-86 0 -86 -90z" horiz-adv-x="0" unicode="̊"/><glyph d="M-358 1569h211l145 -174l149 174h209l-235 -361h-244z" horiz-adv-x="0" unicode="̌"/><glyph d="M379 -248q0 70 31.5 100.5t109.5 30.5t112 -29.5t34 -101.5q0 -74 -36 -102.5t-110 -28.5q-82 0 -111.5 34t-29.5 97z" unicode="̣"/><glyph d="M72 1128l55 361h270l-166 -361h-159z" horiz-adv-x="438" unicode="ʹ"/><glyph d="M57 -231l166 360h160l-55 -360h-271z" horiz-adv-x="438" unicode="͵"/><glyph d="M129 145q0 74 35 117t131 43q160 0 160 -180q0 -123 -42 -234.5t-91 -183.5h-177q41 69 72.5 151t36.5 132q-66 4 -95.5 42t-29.5 113zM129 889q0 82 36 121t126 39q92 0 128 -38t36 -122q0 -86 -39 -123t-125 -37q-94 0 -128 41t-34 119z" horiz-adv-x="584" unicode=";"/><glyph d="M0 1208l188 361h316l-299 -361h-205z" horiz-adv-x="504" unicode="΄"/><glyph d="M152 1333q0 68 31.5 100.5t103.5 32.5q73 0 106 -31.5t33 -101.5q0 -71 -35 -100t-104 -29q-78 0 -106.5 35t-28.5 94zM471 1208l123 361h274l-213 -361h-184zM834 1333q0 68 32.5 100.5t104.5 32.5q73 0 106 -31.5t33 -101.5q0 -71 -35 -100t-104 -29q-78 0 -107.5 35 t-29.5 94z" horiz-adv-x="0" unicode="΅"/><glyph d="M2 1024l123 360h275l-213 -360h-185zM72 0l458 1384h367l459 -1384h-289l-92 281h-533l-90 -281h-280zM522 528h373l-186 572z" horiz-adv-x="1382" unicode="Ά"/><glyph d="M129 743q0 82 36 121t126 39q92 0 128 -38t36 -122q0 -86 -39 -122.5t-125 -36.5q-94 0 -128 41t-34 118z" horiz-adv-x="584" unicode="·"/><glyph d="M2 1024l123 360h275l-213 -360h-185zM439 0v1384h899v-249h-617v-295h520v-250h-520v-332h617v-258h-899z" horiz-adv-x="1438" unicode="Έ"/><glyph d="M2 1024l123 360h275l-213 -360h-185zM439 0v1384h282v-538h545v538h283v-1384h-283v588h-545v-588h-282z" horiz-adv-x="1698" unicode="Ή"/><glyph d="M2 1024l123 360h275l-213 -360h-185zM440 0v217h193v950h-193v217h668v-217h-192v-950h192v-217h-668z" horiz-adv-x="1210" unicode="Ί"/><glyph d="M2 1024l123 360h275l-213 -360h-185zM336 692q0 344 144.5 532.5t451.5 188.5q309 0 452.5 -188.5t143.5 -532.5q0 -361 -152.5 -541t-443.5 -180q-307 0 -451.5 189.5t-144.5 531.5zM627 692q0 -246 70.5 -358.5t234.5 -112.5q166 0 235.5 112.5t69.5 358.5t-69.5 358.5 t-235.5 112.5t-235.5 -112.5t-69.5 -358.5z" horiz-adv-x="1614" unicode="Ό"/><glyph d="M2 1024l123 360h275l-213 -360h-185zM430 1384h308l270 -579l276 579h297l-434 -856v-528h-284v522z" horiz-adv-x="1599" unicode="Ύ"/><glyph d="M2 1024l123 360h275l-213 -360h-185zM336 807q0 182 69.5 319.5t202 212t324.5 74.5q289 0 444.5 -157.5t155.5 -448.5q0 -204 -58 -333t-194 -193v-31h242v-250h-490v401q107 16 156 115t49 291q0 168 -75.5 262t-229.5 94q-149 0 -227 -89t-78 -265q0 -139 18.5 -220.5 t58.5 -125t128 -62.5v-401h-486v250h248v31q-102 35 -155 94t-78 162t-25 270z" horiz-adv-x="1751" unicode="Ώ"/><glyph d="M-190 1333q0 68 31.5 100.5t103.5 32.5q73 0 106 -31.5t33 -101.5q0 -71 -35 -100t-104 -29q-78 0 -106.5 35t-28.5 94zM129 1208l123 361h274l-213 -361h-184zM137 311v738h258v-711q0 -90 20.5 -126t82.5 -36q64 0 110 19l60 -195q-105 -31 -224 -31q-161 0 -234 77.5 t-73 264.5zM492 1333q0 68 32.5 100.5t104.5 32.5q73 0 106 -31.5t33 -101.5q0 -71 -35 -100t-104 -29q-78 0 -107.5 35t-29.5 94z" horiz-adv-x="682" unicode="ΐ"/><glyph d="M27 0l458 1384h367l459 -1384h-289l-92 281h-533l-90 -281h-280zM477 528h373l-186 572z" horiz-adv-x="1337" unicode="Α"/><glyph d="M150 0v1384h489q266 0 381 -77.5t115 -245.5q0 -129 -62.5 -209t-195.5 -107q174 -24 253.5 -110t79.5 -234q0 -208 -143 -304.5t-397 -96.5h-520zM432 250h143q165 0 227.5 16t91 54t28.5 106q0 93 -63 131.5t-236 38.5h-191v-346zM432 842h172q125 0 185.5 35t60.5 122 q0 79 -58 109.5t-180 30.5h-180v-297z" horiz-adv-x="1298" unicode="Β"/><glyph d="M127 0v1384h897v-235h-614v-1149h-283z" horiz-adv-x="1065" unicode="Γ"/><glyph d="M27 0v115l222 635q141 406 224 634h344l440 -1269v-115h-1230zM340 236h584l-260 763q-13 37 -18 68t-9 41h-8q-14 -72 -25 -104z" horiz-adv-x="1284" unicode="Δ"/><glyph d="M150 0v1384h899v-249h-617v-295h520v-250h-520v-332h617v-258h-899z" horiz-adv-x="1149" unicode="Ε"/><glyph d="M72 0v238l635 888h-605v258h942v-227l-641 -899h658v-258h-989z" horiz-adv-x="1147" unicode="Ζ"/><glyph d="M150 0v1384h282v-538h545v538h283v-1384h-283v588h-545v-588h-282z" horiz-adv-x="1409" unicode="Η"/><glyph d="M86 692q0 368 156 544.5t483 176.5q326 0 481.5 -177.5t155.5 -543.5q0 -368 -157 -544.5t-480 -176.5q-322 0 -480.5 176.5t-158.5 544.5zM381 692q0 -246 78 -368.5t266 -122.5q186 0 263 122.5t77 368.5q0 248 -77 370t-263 122q-188 0 -266 -123t-78 -369zM473 582 v223h502v-223h-502z" horiz-adv-x="1448" unicode="Θ"/><glyph d="M102 0v217h193v950h-193v217h668v-217h-192v-950h192v-217h-668z" horiz-adv-x="872" unicode="Ι"/><glyph d="M150 0v1384h282v-540l453 540h329l-516 -596l553 -788h-352l-383 578l-84 -97v-481h-282z" horiz-adv-x="1280" unicode="Κ"/><glyph d="M27 0l469 1384h286l463 -1384h-291l-323 1024l-330 -1024h-274z" horiz-adv-x="1272" unicode="Λ"/><glyph d="M150 0v1384h325l361 -657l364 657h318v-1384h-273v930l-332 -578h-163l-328 578v-930h-272z" horiz-adv-x="1667" unicode="Μ"/><glyph d="M150 0v1384h366l469 -933v933h277v-1384h-332l-504 989v-989h-276z" horiz-adv-x="1411" unicode="Ν"/><glyph d="M100 0v258h895v-258h-895zM100 1135v249h895v-249h-895zM160 590v250h776v-250h-776z" horiz-adv-x="1096" unicode="Ξ"/><glyph d="M86 692q0 344 144.5 532.5t451.5 188.5q309 0 452.5 -188.5t143.5 -532.5q0 -361 -152.5 -541t-443.5 -180q-307 0 -451.5 189.5t-144.5 531.5zM377 692q0 -246 70.5 -358.5t234.5 -112.5q166 0 235.5 112.5t69.5 358.5t-69.5 358.5t-235.5 112.5t-235.5 -112.5 t-69.5 -358.5z" horiz-adv-x="1364" unicode="Ο"/><glyph d="M150 0v1384h1118v-1384h-289v1143h-541v-1143h-288z" horiz-adv-x="1417" unicode="Π"/><glyph d="M150 0v1384h520q235 0 363 -109.5t128 -354.5q0 -250 -117.5 -371t-381.5 -121h-230v-428h-282zM432 674h115q155 0 214.5 21.5t84 72.5t24.5 150q0 117 -64.5 169t-232.5 52h-141v-465z" horiz-adv-x="1239" unicode="Ρ"/><glyph d="M72 0v211l452 491l-452 478v204h977v-227h-603l347 -366v-175l-363 -389h655v-227h-1013z" horiz-adv-x="1169" unicode="Σ"/><glyph d="M35 1126v258h1134v-258h-426v-1126h-282v1126h-426z" horiz-adv-x="1204" unicode="Τ"/><glyph d="M18 1384h308l270 -579l276 579h297l-434 -856v-528h-284v522z" horiz-adv-x="1188" unicode="Υ"/><glyph d="M86 690q0 270 132.5 413t387.5 171v188h279v-188q518 -64 518 -584q0 -522 -518 -586v-182h-279v182q-262 32 -391 177.5t-129 408.5zM381 690q0 -162 56.5 -246t168.5 -110v717q-112 -27 -168.5 -111t-56.5 -250zM885 334q114 26 169.5 110t55.5 246q0 166 -55.5 250 t-169.5 111v-717z" horiz-adv-x="1489" unicode="Φ"/><glyph d="M29 0l463 694l-451 690h321l287 -466l297 466h311l-454 -684l452 -700h-317l-297 477l-301 -477h-311z" horiz-adv-x="1286" unicode="Χ"/><glyph d="M102 795v589h283v-571q0 -149 62 -231t147 -82h8v884h283v-886h7q57 0 104.5 38.5t77.5 111.5t30 161v575h280v-589q0 -252 -121 -385t-378 -160v-275h-283v275q-259 27 -379.5 161t-120.5 384z" horiz-adv-x="1487" unicode="Ψ"/><glyph d="M86 807q0 182 69.5 319.5t202 212t324.5 74.5q289 0 444.5 -157.5t155.5 -448.5q0 -204 -58 -333t-194 -193v-31h242v-250h-490v401q107 16 156 115t49 291q0 168 -75.5 262t-229.5 94q-149 0 -227 -89t-78 -265q0 -139 18.5 -220.5t58.5 -125t128 -62.5v-401h-486v250 h248v31q-102 35 -155 94t-78 162t-25 270z" horiz-adv-x="1368" unicode="Ω"/><glyph d="M74 1671q0 70 31.5 100.5t109.5 30.5t111.5 -29.5t33.5 -101.5q0 -73 -35.5 -102t-109.5 -29q-82 0 -111.5 34t-29.5 97zM102 0v217h193v950h-193v217h668v-217h-192v-950h192v-217h-668zM518 1671q0 70 31.5 100.5t109.5 30.5t112 -29.5t34 -101.5q0 -73 -36 -102 t-110 -29q-82 0 -111.5 34t-29.5 97z" horiz-adv-x="872" unicode="Ϊ"/><glyph d="M18 1384h308l270 -579l276 579h297l-434 -856v-528h-284v522zM226 1671q0 70 31.5 100.5t109.5 30.5t111.5 -29.5t33.5 -101.5q0 -73 -35.5 -102t-109.5 -29q-82 0 -111.5 34t-29.5 97zM670 1671q0 70 31.5 100.5t109.5 30.5t112 -29.5t34 -101.5q0 -73 -36 -102 t-110 -29q-82 0 -111.5 34t-29.5 97z" horiz-adv-x="1188" unicode="Ϋ"/><glyph d="M92 522q0 263 122.5 410t346.5 147q176 0 301 -118l17 88h258q-46 -213 -59 -304t-13 -170v-237q0 -96 22.5 -129t79.5 -33q52 0 90 19l60 -195q-87 -31 -203 -31q-137 0 -195.5 59.5t-70.5 182.5q-92 -242 -316 -242q-219 0 -329.5 144.5t-110.5 408.5zM360 516 q0 -167 49.5 -251.5t145.5 -84.5q115 0 192.5 154t94.5 418q-51 59 -117 90.5t-123 31.5q-123 0 -182.5 -87.5t-59.5 -270.5zM518 1208l188 361h316l-299 -361h-205z" horiz-adv-x="1327" unicode="ά"/><glyph d="M92 299q0 70 44 134t106 89q-62 23 -106 78t-44 141q0 160 132.5 249t371.5 89q301 0 412 -180l-181 -125q-41 55 -92 82t-137 27q-112 0 -175 -36t-63 -108q0 -71 54.5 -89.5t171.5 -18.5h223v-189h-234q-122 0 -168.5 -31.5t-46.5 -103.5q0 -64 60.5 -101.5 t161.5 -37.5q96 0 161.5 22.5t110.5 79.5l168 -120q-59 -89 -164.5 -135t-271.5 -46q-241 0 -367.5 85.5t-126.5 244.5zM436 1208l188 361h316l-299 -361h-205z" horiz-adv-x="1063" unicode="έ"/><glyph d="M145 0v1049h244v-125q193 155 369 155q168 0 250 -92t82 -291v-1085h-259v1007q0 132 -29.5 185t-117.5 53q-57 0 -133 -39t-148 -94v-723h-258zM467 1208l188 361h316l-299 -361h-205z" horiz-adv-x="1227" unicode="ή"/><glyph d="M104 1208l188 361h316l-299 -361h-205zM137 311v738h258v-711q0 -90 20.5 -126t82.5 -36q64 0 110 19l60 -195q-105 -31 -224 -31q-161 0 -234 77.5t-73 264.5z" horiz-adv-x="682" unicode="ί"/><glyph d="M123 1333q0 68 31.5 100.5t103.5 32.5q73 0 106 -31.5t33 -101.5q0 -71 -35 -100t-104 -29q-78 0 -106.5 35t-28.5 94zM137 365v684h258v-678q0 -93 58.5 -144t150.5 -51q118 0 179 90.5t61 270.5q0 147 -28 283t-50 229h254q33 -80 62.5 -226.5t29.5 -265.5 q0 -296 -122.5 -442t-391.5 -146q-233 0 -347 102t-114 294zM442 1208l123 361h274l-213 -361h-184zM805 1333q0 68 32.5 100.5t104.5 32.5q73 0 106 -31.5t33 -101.5q0 -71 -35 -100t-104 -29q-78 0 -107.5 35t-29.5 94z" horiz-adv-x="1212" unicode="ΰ"/><glyph d="M92 522q0 263 122.5 410t346.5 147q176 0 301 -118l17 88h258q-46 -213 -59 -304t-13 -170v-237q0 -96 22.5 -129t79.5 -33q52 0 90 19l60 -195q-87 -31 -203 -31q-137 0 -195.5 59.5t-70.5 182.5q-92 -242 -316 -242q-219 0 -329.5 144.5t-110.5 408.5zM360 516 q0 -167 49.5 -251.5t145.5 -84.5q115 0 192.5 154t94.5 418q-51 59 -117 90.5t-123 31.5q-123 0 -182.5 -87.5t-59.5 -270.5z" horiz-adv-x="1327" unicode="α"/><glyph d="M145 -383v1407q0 260 117.5 378t347.5 118q200 0 316 -88.5t116 -251.5q0 -254 -270 -310q178 -24 277.5 -133.5t99.5 -269.5q0 -243 -116 -370.5t-328 -127.5q-95 0 -174.5 20.5t-127.5 47.5v-420h-258zM403 244q116 -68 263 -68q104 0 160.5 71.5t56.5 213.5 q0 141 -81 210.5t-265 69.5v205q116 0 179.5 52.5t63.5 154.5q0 66 -44 116t-136 50q-75 0 -118 -25.5t-61 -82.5t-18 -179v-788z" horiz-adv-x="1249" unicode="β"/><glyph d="M37 1049h274l264 -756q41 76 87.5 162t84 179t62.5 189.5t25 190.5v35h258v-45q0 -189 -109.5 -440.5t-308.5 -506.5v-446h-256v446z" horiz-adv-x="1155" unicode="γ"/><glyph d="M92 463q0 345 369 498q-94 63 -145.5 131.5t-51.5 160.5q0 127 81 197t249 70q123 0 251.5 -32.5t203.5 -78.5l-99 -203q-82 47 -173 84t-179 37q-45 0 -61.5 -18.5t-16.5 -38.5q0 -38 16 -61t52.5 -52.5t101.5 -62.5q185 -100 287 -186t149.5 -182.5t47.5 -233.5 q0 -242 -147 -382.5t-396 -140.5q-166 0 -288.5 61t-186.5 173t-64 260zM360 463q0 -136 75 -211.5t210 -75.5q115 0 187.5 80t72.5 231q0 138 -74.5 228t-189.5 145q-80 -27 -144.5 -84t-100.5 -137.5t-36 -175.5z" horiz-adv-x="1266" unicode="δ"/><glyph d="M92 299q0 70 44 134t106 89q-62 23 -106 78t-44 141q0 160 132.5 249t371.5 89q301 0 412 -180l-181 -125q-41 55 -92 82t-137 27q-112 0 -175 -36t-63 -108q0 -71 54.5 -89.5t171.5 -18.5h223v-189h-234q-122 0 -168.5 -31.5t-46.5 -103.5q0 -64 60.5 -101.5 t161.5 -37.5q96 0 161.5 22.5t110.5 79.5l168 -120q-59 -89 -164.5 -135t-271.5 -46q-241 0 -367.5 85.5t-126.5 244.5z" horiz-adv-x="1063" unicode="ε"/><glyph d="M100 459q0 145 56 301t162 298t255 238h-430v193h758v-158q-140 -85 -264 -230t-196 -311.5t-72 -316.5q0 -88 28.5 -143t80 -88.5t165.5 -59.5q118 -25 178 -59.5t89.5 -89.5t29.5 -142q0 -48 -26.5 -132t-57.5 -154h-250q49 118 64.5 172.5t15.5 89.5q0 31 -17 51 t-47 33.5t-102 25.5q-67 15 -142 35.5t-136.5 70.5t-101.5 138t-40 238z" horiz-adv-x="971" unicode="ζ"/><glyph d="M145 0v1049h244v-125q193 155 369 155q168 0 250 -92t82 -291v-1085h-259v1007q0 132 -29.5 185t-117.5 53q-57 0 -133 -39t-148 -94v-723h-258z" horiz-adv-x="1227" unicode="η"/><glyph d="M109 748q0 317 50 465t159 227.5t298 79.5q186 0 296 -78.5t160 -227t50 -466.5q0 -313 -50.5 -465.5t-160 -233t-295.5 -80.5q-187 0 -296 80t-160 232t-51 467zM373 672q0 -210 23.5 -305.5t74.5 -143t141 -47.5q92 0 144.5 47t77 140.5t24.5 308.5h-485zM373 860h485 q-4 189 -29 275t-76 131t-137 45t-138 -43t-76.5 -130.5t-28.5 -277.5z" horiz-adv-x="1231" unicode="θ"/><glyph d="M137 311v738h258v-711q0 -90 20.5 -126t82.5 -36q64 0 110 19l60 -195q-105 -31 -224 -31q-161 0 -234 77.5t-73 264.5z" horiz-adv-x="682" unicode="ι"/><glyph d="M145 0v1049h258v-402l371 402h293l-416 -443l461 -606h-295l-317 440l-97 -96v-344h-258z" horiz-adv-x="1137" unicode="κ"/><glyph d="M35 0l452 1049q-47 150 -66.5 187t-43 55t-60.5 18q-28 0 -70 -11.5t-77 -27.5l-59 188q130 62 245 62q113 0 193 -59.5t123 -198.5l276 -926q33 -102 51.5 -130t40.5 -28q38 0 80 17l62 -195q-121 -31 -195 -31q-76 0 -122.5 23t-83 79t-60.5 144l-141 528l-281 -743 h-264z" horiz-adv-x="1196" unicode="λ"/><glyph d="M131 -395v1444h258v-750q29 -39 83 -69.5t114 -30.5q131 0 227 120v730h256v-1049h-238l-4 111q-49 -70 -104 -106t-133 -36q-62 0 -109 17.5t-92 52.5v-434h-258z" horiz-adv-x="1202" unicode="μ"/><glyph d="M37 1049h274l275 -777q152 273 200 421t48 288v68h258v-62q0 -210 -123 -481.5t-318 -505.5h-219z" horiz-adv-x="1155" unicode="ν"/><glyph d="M100 428q0 122 70 220.5t195 142.5q-91 34 -143 108t-52 166q0 78 43 143.5t115 91.5h-209v189h755v-193h-90q-188 0 -268 -51t-80 -178q0 -81 52.5 -130.5t136.5 -49.5h223v-193h-242q-104 0 -170.5 -72.5t-66.5 -181.5q0 -70 26 -117.5t71.5 -78.5t168.5 -64 q140 -34 197 -68t86.5 -86.5t29.5 -134.5q0 -92 -80 -286h-243q75 191 75 262q0 32 -14.5 52.5t-42.5 35.5t-127 41q-67 18 -141 41.5t-135.5 70t-100.5 122t-39 198.5z" horiz-adv-x="987" unicode="ξ"/><glyph d="M92 522q0 266 121 411.5t383 145.5q260 0 381 -145.5t121 -411.5q0 -262 -121 -407.5t-381 -145.5q-504 0 -504 553zM358 522q0 -168 55.5 -247.5t182.5 -79.5q125 0 180 78.5t55 248.5q0 173 -54 252.5t-181 79.5q-126 0 -182 -81.5t-56 -250.5z" horiz-adv-x="1190" unicode="ο"/><glyph d="M14 969q56 28 150 54t203 26h983v-193h-242v-514q0 -92 30.5 -127t84.5 -35q41 0 75 15l48 -175q-33 -16 -89.5 -27t-115.5 -11q-135 0 -213 80.5t-78 252.5v541h-283v-555q0 -92 -5 -163.5t-25 -137.5h-287q57 187 57 313v539q-138 -23 -217 -64z" horiz-adv-x="1419" unicode="π"/><glyph d="M129 -389v924q0 262 126 403t392 141q252 0 382 -144t130 -392q0 -265 -126.5 -419.5t-332.5 -154.5q-176 0 -313 109v-467h-258zM387 291q135 -111 266 -111q113 0 175.5 79t62.5 267q0 177 -59.5 262.5t-184.5 85.5q-260 0 -260 -319v-264z" horiz-adv-x="1251" unicode="ρ"/><glyph d="M92 522q0 275 132 416t394 141q284 0 394 -180l-193 -137q-77 112 -198 112q-140 0 -200.5 -90t-60.5 -262q0 -92 26 -150.5t67 -95t92 -56t104 -36.5q136 -42 186.5 -77t78.5 -86t28 -127q0 -89 -80 -283h-254q80 187 80 260q0 42 -28 68t-132 57q-69 20 -146 49 t-141.5 85t-106.5 149.5t-42 242.5z" horiz-adv-x="1057" unicode="ς"/><glyph d="M92 492q0 290 135.5 423.5t425.5 133.5h607v-191h-271q158 -162 158 -383q0 -151 -62.5 -266.5t-180.5 -177.5t-279 -62q-251 0 -392 137.5t-141 385.5zM360 485q0 -135 64.5 -222t204.5 -87q124 0 187 85.5t63 248.5q0 100 -27 191.5t-84 156.5h-147q-94 0 -151.5 -38.5 t-83.5 -115t-26 -219.5z" horiz-adv-x="1311" unicode="σ"/><glyph d="M-4 973q144 76 348 76h680v-191h-356v-520q0 -90 30.5 -124t83.5 -34q43 0 78 15l47 -175q-35 -16 -93 -27t-114 -11q-135 0 -212.5 80.5t-77.5 248.5v547h-78q-92 0 -160 -23.5t-102 -39.5z" horiz-adv-x="1075" unicode="τ"/><glyph d="M137 365v684h258v-678q0 -93 58.5 -144t150.5 -51q118 0 179 90.5t61 270.5q0 147 -28 283t-50 229h254q33 -80 62.5 -226.5t29.5 -265.5q0 -296 -122.5 -442t-391.5 -146q-233 0 -347 102t-114 294z" horiz-adv-x="1212" unicode="υ"/><glyph d="M92 524q0 496 502 551v414h246v-414q252 -29 376.5 -170.5t124.5 -380.5q0 -240 -126 -380t-375 -167v-368h-246v368q-244 26 -373 164.5t-129 382.5zM360 524q0 -149 50.5 -238t183.5 -118v719q-133 -29 -183.5 -119t-50.5 -244zM840 168q131 29 183 119t52 237 q0 146 -52 239t-183 122v-717z" horiz-adv-x="1434" unicode="φ"/><glyph d="M35 1030q117 49 207 49q84 0 147.5 -46t110.5 -161l114 -262l207 439h279l-379 -682l176 -398q35 -71 60.5 -105t74.5 -34q31 0 84 16l55 -184q-121 -51 -204 -51q-68 0 -115 25.5t-89 85t-86 159t-108 246.5l-256 -516h-276l424 768l-148 330q-34 75 -60 118t-79 43 q-35 0 -84 -16z" horiz-adv-x="1202" unicode="χ"/><glyph d="M137 410v639h258v-592q0 -116 61 -185.5t191 -89.5v1293h252v-1291q142 34 207 125t65 230q0 166 -29.5 294t-58.5 216h258q33 -74 66 -225t33 -265q0 -256 -134 -404t-407 -178v-368h-252v366q-510 40 -510 435z" horiz-adv-x="1532" unicode="ψ"/><glyph d="M92 424q0 166 59.5 344.5t143.5 294.5l244 -45q-179 -314 -179 -572q0 -131 46.5 -200.5t130.5 -69.5t138 86t54 281v291h260v-291q0 -195 54.5 -281t138.5 -86t130 69.5t46 200.5q0 260 -178 572l243 45q98 -147 150.5 -316.5t52.5 -322.5q0 -226 -111.5 -340.5 t-322.5 -114.5q-115 0 -202 52.5t-128 154.5q-41 -102 -131 -154.5t-205 -52.5q-214 0 -324 116.5t-110 338.5z" horiz-adv-x="1718" unicode="ω"/><glyph d="M-90 1335q0 70 31.5 100.5t109.5 30.5t111.5 -29.5t33.5 -101.5q0 -73 -35.5 -102t-109.5 -29q-82 0 -111.5 34t-29.5 97zM137 311v738h258v-711q0 -90 20.5 -126t82.5 -36q64 0 110 19l60 -195q-105 -31 -224 -31q-161 0 -234 77.5t-73 264.5zM354 1335q0 70 31.5 100.5 t109.5 30.5t112 -29.5t34 -101.5q0 -73 -36 -102t-110 -29q-82 0 -111.5 34t-29.5 97z" horiz-adv-x="682" unicode="ϊ"/><glyph d="M137 365v684h258v-678q0 -93 58.5 -144t150.5 -51q118 0 179 90.5t61 270.5q0 147 -28 283t-50 229h254q33 -80 62.5 -226.5t29.5 -265.5q0 -296 -122.5 -442t-391.5 -146q-233 0 -347 102t-114 294zM222 1335q0 70 31.5 100.5t109.5 30.5t111.5 -29.5t33.5 -101.5 q0 -73 -35.5 -102t-109.5 -29q-82 0 -111.5 34t-29.5 97zM666 1335q0 70 31.5 100.5t109.5 30.5t112 -29.5t34 -101.5q0 -73 -36 -102t-110 -29q-82 0 -111.5 34t-29.5 97z" horiz-adv-x="1212" unicode="ϋ"/><glyph d="M92 522q0 266 121 411.5t383 145.5q260 0 381 -145.5t121 -411.5q0 -262 -121 -407.5t-381 -145.5q-504 0 -504 553zM358 522q0 -168 55.5 -247.5t182.5 -79.5q125 0 180 78.5t55 248.5q0 173 -54 252.5t-181 79.5q-126 0 -182 -81.5t-56 -250.5zM477 1208l188 361h316 l-299 -361h-205z" horiz-adv-x="1190" unicode="ό"/><glyph d="M137 365v684h258v-678q0 -93 58.5 -144t150.5 -51q118 0 179 90.5t61 270.5q0 147 -28 283t-50 229h254q33 -80 62.5 -226.5t29.5 -265.5q0 -296 -122.5 -442t-391.5 -146q-233 0 -347 102t-114 294zM418 1208l188 361h316l-299 -361h-205z" horiz-adv-x="1212" unicode="ύ"/><glyph d="M92 424q0 166 59.5 344.5t143.5 294.5l244 -45q-179 -314 -179 -572q0 -131 46.5 -200.5t130.5 -69.5t138 86t54 281v291h260v-291q0 -195 54.5 -281t138.5 -86t130 69.5t46 200.5q0 260 -178 572l243 45q98 -147 150.5 -316.5t52.5 -322.5q0 -226 -111.5 -340.5 t-322.5 -114.5q-115 0 -202 52.5t-128 154.5q-41 -102 -131 -154.5t-205 -52.5q-214 0 -324 116.5t-110 338.5zM727 1208l188 361h316l-299 -361h-205z" horiz-adv-x="1718" unicode="ώ"/><glyph d="M150 0v1384h899v-249h-617v-295h520v-250h-520v-332h617v-258h-899zM267 1905h315l188 -361h-204z" horiz-adv-x="1149" unicode="Ѐ"/><glyph d="M150 0v1384h899v-249h-617v-295h520v-250h-520v-332h617v-258h-899zM228 1671q0 70 31.5 100.5t109.5 30.5t111.5 -29.5t33.5 -101.5q0 -73 -35.5 -102t-109.5 -29q-82 0 -111.5 34t-29.5 97zM672 1671q0 70 31.5 100.5t109.5 30.5t112 -29.5t34 -101.5q0 -73 -36 -102 t-110 -29q-82 0 -111.5 34t-29.5 97z" horiz-adv-x="1149" unicode="Ё"/><glyph d="M25 1151v233h770v-233h-248v-307h172q307 0 455.5 -102t148.5 -310q0 -157 -62 -250.5t-190.5 -137.5t-355.5 -44v233q166 0 238.5 42t72.5 163q0 98 -65.5 137t-212.5 39h-201v-614h-283v1151h-239z" horiz-adv-x="1389" unicode="Ђ"/><glyph d="M127 0v1384h897v-235h-614v-1149h-283zM424 1544l189 361h315l-299 -361h-205z" horiz-adv-x="1065" unicode="Ѓ"/><glyph d="M96 692q0 369 163 545t470 176q203 0 331 -68.5t195 -179.5l-219 -170q-48 72 -88 104t-91 48t-122 16q-145 0 -231 -77.5t-109 -260.5h576v-250h-578q17 -174 100 -264t244 -90q123 0 191.5 47t124.5 125l223 -164q-89 -133 -218.5 -195.5t-318.5 -62.5q-643 0 -643 721 z" horiz-adv-x="1309" unicode="Є"/><glyph d="M66 229l217 166q48 -68 91 -102t102 -53t136 -19q115 0 179.5 39.5t64.5 120.5q0 46 -22.5 77t-67.5 53.5t-156 51.5q-108 29 -203.5 58.5t-165 76.5t-109.5 118t-40 179q0 197 133 307.5t381 110.5q359 0 508 -246l-215 -168q-57 88 -128 126t-169 38t-159.5 -35.5 t-61.5 -111.5q0 -67 64 -102.5t223 -71.5q88 -23 174 -49.5t153.5 -73.5t108.5 -123t41 -195q0 -208 -136.5 -319t-402.5 -111q-184 0 -319.5 61t-220.5 197z" horiz-adv-x="1229" unicode="Ѕ"/><glyph d="M102 0v217h193v950h-193v217h668v-217h-192v-950h192v-217h-668z" horiz-adv-x="872" unicode="І"/><glyph d="M72 1671q0 70 31.5 100.5t109.5 30.5t111.5 -29.5t33.5 -101.5q0 -73 -35.5 -102t-109.5 -29q-82 0 -111.5 34t-29.5 97zM102 0v217h193v950h-193v217h668v-217h-192v-950h192v-217h-668zM516 1671q0 70 31.5 100.5t109.5 30.5t112 -29.5t34 -101.5q0 -73 -36 -102 t-110 -29q-82 0 -111.5 34t-29.5 97z" horiz-adv-x="872" unicode="Ї"/><glyph d="M20 23l86 251q32 -17 102.5 -36t110.5 -19q74 0 107 20t47 70t14 144v931h283v-1007q0 -219 -110.5 -313.5t-346.5 -94.5q-51 0 -142 15t-151 39z" horiz-adv-x="924" unicode="Ј"/><glyph d="M18 31l88 221q62 -27 113 -27q70 0 110.5 83t60.5 271.5t20 503.5v301h839v-491h213q287 0 413 -107.5t126 -328.5q0 -238 -132 -347.5t-413 -109.5h-489v1149h-283v-113q0 -552 -98 -809.5t-314 -257.5q-151 0 -254 62zM1249 248h199q129 0 195.5 49t66.5 160 q0 106 -62.5 149t-199.5 43h-199v-401z" horiz-adv-x="2079" unicode="Љ"/><glyph d="M150 0v1384h282v-491h475v491h283v-491h213q287 0 413 -107.5t126 -328.5q0 -238 -132.5 -347.5t-412.5 -109.5h-490v649h-475v-649h-282zM1190 248h199q129 0 195.5 49t66.5 160q0 106 -62.5 149t-199.5 43h-199v-401z" horiz-adv-x="2019" unicode="Њ"/><glyph d="M25 1151v233h739v-233h-248v-293q147 35 283 35q183 0 275.5 -42t135.5 -137t43 -268v-446h-282v367q0 173 -46 235t-175 62q-88 0 -236 -33v-631h-281v1151h-208z" horiz-adv-x="1331" unicode="Ћ"/><glyph d="M150 0v1384h282v-565h160q56 0 99 55.5t86 178.5t95 331h291q-66 -288 -140 -450t-169 -225q81 -46 136 -117.5t100 -191.5t114 -400h-293q-39 145 -70.5 255t-68.5 182.5t-83 108.5t-116 36h-141v-582h-282zM483 1544l189 361h315l-299 -361h-205z" horiz-adv-x="1286" unicode="Ќ"/><glyph d="M150 0v1384h264v-964l512 964h329v-1384h-264v1028l-540 -1028h-301zM363 1905h315l188 -361h-204z" horiz-adv-x="1405" unicode="Ѝ"/><glyph d="M35 1384h305l326 -675l282 675h297l-510 -1130q-48 -106 -99 -167.5t-111.5 -88.5t-162.5 -27q-41 0 -137.5 18t-152.5 42l82 219q38 -19 101.5 -34t94.5 -15q48 0 89.5 40.5t86.5 170.5zM303 1800h221q0 -149 141 -149q56 0 97 32.5t41 116.5h221q0 -76 -45 -139.5 t-126.5 -101t-189.5 -37.5q-106 0 -188 37t-127 101t-45 140z" horiz-adv-x="1262" unicode="Ў"/><glyph d="M150 0v1384h280v-1126h498v1126h280v-1384h-387v-246h-280v246h-391z" horiz-adv-x="1358" unicode="Џ"/><glyph d="M27 0l458 1384h367l459 -1384h-289l-92 281h-533l-90 -281h-280zM477 528h373l-186 572z" horiz-adv-x="1337" unicode="А"/><glyph d="M150 0v1384h942v-231h-660v-305h193q286 0 429.5 -112.5t143.5 -329.5q0 -203 -133.5 -304.5t-431.5 -101.5h-483zM432 231h180q142 0 218.5 40t76.5 153q0 72 -29.5 114t-89.5 60t-194 18h-162v-385z" horiz-adv-x="1303" unicode="Б"/><glyph d="M150 0v1384h489q266 0 381 -77.5t115 -245.5q0 -129 -62.5 -209t-195.5 -107q174 -24 253.5 -110t79.5 -234q0 -208 -143 -304.5t-397 -96.5h-520zM432 250h143q165 0 227.5 16t91 54t28.5 106q0 93 -63 131.5t-236 38.5h-191v-346zM432 842h172q125 0 185.5 35t60.5 122 q0 79 -58 109.5t-180 30.5h-180v-297z" horiz-adv-x="1298" unicode="В"/><glyph d="M127 0v1384h897v-235h-614v-1149h-283z" horiz-adv-x="1065" unicode="Г"/><glyph d="M27 231h127q105 233 152.5 518t47.5 635h817v-1153h164v-477h-282v246h-744v-246h-282v477zM434 236h457v913h-281q-14 -320 -69.5 -549t-106.5 -364z" horiz-adv-x="1362" unicode="Д"/><glyph d="M150 0v1384h899v-249h-617v-295h520v-250h-520v-332h617v-258h-899z" horiz-adv-x="1149" unicode="Е"/><glyph d="M82 0q73 298 117.5 411.5t100 185t134.5 114.5q-189 120 -309 673h293q75 -313 137.5 -439t138.5 -126h101v565h282v-565h101q54 0 95.5 51.5t85.5 178.5t93 335h293q-56 -259 -131.5 -435.5t-175.5 -239.5q80 -46 134.5 -116.5t99.5 -187.5t116 -405h-293 q-41 152 -73.5 262.5t-69.5 181t-82 104.5t-111 34h-82v-582h-282v582h-84q-77 0 -128.5 -49t-95.5 -157t-110 -376h-295z" horiz-adv-x="1870" unicode="Ж"/><glyph d="M33 258l231 137q112 -194 318 -194q106 0 177.5 55t71.5 147q0 101 -51 147t-168 46h-293v233h308q89 0 136.5 47.5t47.5 139.5q0 75 -70 121.5t-176 46.5q-78 0 -159.5 -24.5t-182.5 -96.5l-141 203q202 147 493 147q169 0 289.5 -46t183 -134.5t62.5 -210.5 q0 -117 -58.5 -201t-144.5 -114q221 -95 221 -310q0 -210 -141 -318t-399 -108q-190 0 -326 68.5t-229 218.5z" horiz-adv-x="1217" unicode="З"/><glyph d="M150 0v1384h264v-964l512 964h329v-1384h-264v1028l-540 -1028h-301z" horiz-adv-x="1405" unicode="И"/><glyph d="M150 0v1384h264v-964l512 964h329v-1384h-264v1028l-540 -1028h-301zM355 1800h221q0 -149 141 -149q56 0 97 32.5t41 116.5h221q0 -76 -45 -139.5t-126.5 -101t-189.5 -37.5q-106 0 -188 37t-127 101t-45 140z" horiz-adv-x="1405" unicode="Й"/><glyph d="M150 0v1384h282v-565h160q56 0 99 55.5t86 178.5t95 331h291q-66 -288 -140 -450t-169 -225q81 -46 136 -117.5t100 -191.5t114 -400h-293q-39 145 -70.5 255t-68.5 182.5t-83 108.5t-116 36h-141v-582h-282z" horiz-adv-x="1286" unicode="К"/><glyph d="M18 31l88 221q62 -27 113 -27q70 0 110.5 83t60.5 271.5t20 503.5v301h893v-1384h-281v1149h-338v-113q0 -552 -98 -809.5t-314 -257.5q-151 0 -254 62z" horiz-adv-x="1452" unicode="Л"/><glyph d="M150 0v1384h325l361 -657l364 657h318v-1384h-273v930l-332 -578h-163l-328 578v-930h-272z" horiz-adv-x="1667" unicode="М"/><glyph d="M150 0v1384h282v-538h545v538h283v-1384h-283v588h-545v-588h-282z" horiz-adv-x="1409" unicode="Н"/><glyph d="M86 692q0 344 144.5 532.5t451.5 188.5q309 0 452.5 -188.5t143.5 -532.5q0 -361 -152.5 -541t-443.5 -180q-307 0 -451.5 189.5t-144.5 531.5zM377 692q0 -246 70.5 -358.5t234.5 -112.5q166 0 235.5 112.5t69.5 358.5t-69.5 358.5t-235.5 112.5t-235.5 -112.5 t-69.5 -358.5z" horiz-adv-x="1364" unicode="О"/><glyph d="M150 0v1384h1118v-1384h-289v1143h-541v-1143h-288z" horiz-adv-x="1417" unicode="П"/><glyph d="M150 0v1384h520q235 0 363 -109.5t128 -354.5q0 -250 -117.5 -371t-381.5 -121h-230v-428h-282zM432 674h115q155 0 214.5 21.5t84 72.5t24.5 150q0 117 -64.5 169t-232.5 52h-141v-465z" horiz-adv-x="1239" unicode="Р"/><glyph d="M96 692q0 369 163 545t470 176q203 0 331 -68.5t195 -179.5l-219 -170q-48 72 -88 104t-91 48t-122 16q-170 0 -259 -108.5t-89 -362.5q0 -237 83.5 -354t266.5 -117q123 0 191.5 47t124.5 125l223 -164q-89 -133 -218.5 -195.5t-318.5 -62.5q-643 0 -643 721z" horiz-adv-x="1333" unicode="С"/><glyph d="M35 1126v258h1134v-258h-426v-1126h-282v1126h-426z" horiz-adv-x="1204" unicode="Т"/><glyph d="M35 1384h305l326 -675l282 675h297l-510 -1130q-48 -106 -99 -167.5t-111.5 -88.5t-162.5 -27q-41 0 -137.5 18t-152.5 42l82 219q38 -19 101.5 -34t94.5 -15q48 0 89.5 40.5t86.5 170.5z" horiz-adv-x="1262" unicode="У"/><glyph d="M78 698q0 263 142.5 395t424.5 154v183h264v-183q281 -22 421 -154t140 -395q0 -262 -138.5 -396.5t-422.5 -158.5v-188h-264v188q-286 23 -426.5 157t-140.5 398zM365 698q0 -159 70.5 -235t209.5 -94v655q-137 -18 -208.5 -93t-71.5 -233zM909 369q135 18 205 94 t70 235q0 158 -70 230.5t-205 93.5v-653z" horiz-adv-x="1548" unicode="Ф"/><glyph d="M29 0l463 694l-451 690h321l287 -466l297 466h311l-454 -684l452 -700h-317l-297 477l-301 -477h-311z" horiz-adv-x="1286" unicode="Х"/><glyph d="M150 0v1384h282v-1126h510v1126h283v-1126h164v-504h-283v246h-956z" horiz-adv-x="1415" unicode="Ц"/><glyph d="M88 926v458h283v-356q0 -130 16.5 -188.5t57 -83.5t124.5 -25q157 0 287 33v620h283v-1384h-283v514q-160 -41 -330 -41q-175 0 -266.5 43.5t-131.5 141t-40 268.5z" horiz-adv-x="1288" unicode="Ч"/><glyph d="M150 0v1384h282v-1126h363v1126h280v-1126h363v1126h282v-1384h-1570z" horiz-adv-x="1870" unicode="Ш"/><glyph d="M150 0v1384h282v-1126h363v1126h280v-1126h363v1126h282v-1130h160v-500h-283v246h-1447z" horiz-adv-x="1907" unicode="Щ"/><glyph d="M35 1149v235h696v-491h213q287 0 413 -107.5t126 -328.5q0 -238 -132 -347.5t-413 -109.5h-489v1149h-414zM731 248h199q129 0 195.5 49t66.5 160q0 106 -62.5 149t-199.5 43h-199v-401z" horiz-adv-x="1561" unicode="Ъ"/><glyph d="M150 0v1384h282v-491h213q287 0 413 -107.5t126 -328.5q0 -238 -132 -347.5t-413 -109.5h-489zM432 248h199q129 0 195.5 49t66.5 160q0 106 -62.5 149t-199.5 43h-199v-401zM1382 0v1384h281v-1384h-281z" horiz-adv-x="1812" unicode="Ы"/><glyph d="M150 0v1384h282v-491h213q287 0 413 -107.5t126 -328.5q0 -238 -132 -347.5t-413 -109.5h-489zM432 248h199q129 0 195.5 49t66.5 160q0 106 -62.5 149t-199.5 43h-199v-401z" horiz-adv-x="1262" unicode="Ь"/><glyph d="M33 229l223 164q55 -78 124 -125t191 -47q162 0 244.5 89.5t99.5 264.5h-577v250h575q-22 183 -108 260.5t-232 77.5q-70 0 -120 -15.5t-89.5 -46.5t-91.5 -106l-219 170q68 111 196 179.5t331 68.5q632 0 632 -721t-643 -721q-187 0 -316 62t-220 196z" horiz-adv-x="1270" unicode="Э"/><glyph d="M150 0v1384h282v-579h242q21 297 168.5 452.5t419.5 155.5q291 0 441 -182.5t150 -540.5q0 -355 -151 -537t-440 -182q-268 0 -415 153t-173 449h-242v-573h-282zM965 690q0 -247 74 -368t223 -121q150 0 223.5 126t73.5 363q0 494 -297 494q-147 0 -222 -120t-75 -374z" horiz-adv-x="1939" unicode="Ю"/><glyph d="M33 0l370 557q-135 27 -210.5 132.5t-75.5 283.5q0 219 122.5 315t391.5 96h504v-1384h-283v524h-143l-353 -524h-323zM403 961q0 -79 22.5 -117t73.5 -56t146 -18h207v369h-219q-123 0 -176.5 -36t-53.5 -142z" horiz-adv-x="1284" unicode="Я"/><glyph d="M84 295q0 112 45.5 185t135 114.5t257.5 58.5l221 21v47q0 88 -53 120.5t-155 32.5q-84 0 -144.5 -28t-89.5 -80l-201 129q53 89 166 136.5t273 47.5q245 0 353.5 -85.5t108.5 -280.5v-713h-237v109q-153 -140 -328 -140q-174 0 -263 91.5t-89 234.5zM350 299 q0 -72 40 -98.5t106 -26.5q47 0 114.5 29.5t132.5 83.5v200l-131 -12q-139 -12 -200.5 -53t-61.5 -123z" horiz-adv-x="1139" unicode="а"/><glyph d="M106 655q0 191 26 326t78 227t132 147.5t187.5 88.5t243.5 48t302 28v-211q-164 -11 -290 -24t-214 -51t-137 -112.5t-59 -206.5q128 103 319 103q461 0 461 -488q0 -265 -133.5 -413t-366.5 -148q-270 0 -409.5 175t-139.5 511zM373 614q0 -204 71.5 -322t212.5 -118 q107 0 170.5 94.5t63.5 253.5q0 152 -55.5 222.5t-178.5 70.5q-72 0 -147 -33t-135 -90l-2 -38v-40z" horiz-adv-x="1247" unicode="б"/><glyph d="M131 0v1049h426q229 0 330.5 -57.5t101.5 -192.5q0 -90 -52 -145.5t-120 -84.5q107 -22 175.5 -82.5t68.5 -173.5q0 -149 -116 -231t-355 -82h-459zM387 184h150q116 0 187 28t71 114q0 77 -55.5 105t-170.5 28h-182v-275zM387 641h152q108 0 150 27.5t42 89.5 q0 63 -51 85.5t-152 22.5h-141v-225z" horiz-adv-x="1143" unicode="в"/><glyph d="M131 0v1049h741v-191h-483v-858h-258z" horiz-adv-x="889" unicode="г"/><glyph d="M29 186h112q86 160 132 376t46 487h717v-863h146v-448h-246v262h-662v-262h-245v448zM387 193h393v665h-223q-10 -191 -58 -372.5t-112 -292.5z" horiz-adv-x="1210" unicode="д"/><glyph d="M92 516q0 563 504 563q224 0 341.5 -126.5t117.5 -368.5v-127h-697q7 -140 68 -201t192 -61q76 0 133.5 19t100.5 73l192 -137q-63 -91 -163.5 -136t-274.5 -45q-259 0 -386.5 136t-127.5 411zM365 635h434q0 239 -209 239q-69 0 -113 -23.5t-70.5 -70t-41.5 -145.5z" horiz-adv-x="1143" unicode="е"/><glyph d="M41 0q69 236 106 317t84 134.5t119 87.5q-81 51 -146.5 170t-125.5 340h266q57 -210 113 -313t123 -103h82v416h258v-416h79q67 0 116.5 86.5t119.5 329.5h266q-59 -215 -122.5 -336t-147.5 -174q63 -31 106 -77t77 -110.5t61.5 -151.5t62.5 -200h-266q-37 115 -65.5 198 t-59.5 137t-69 79.5t-93 25.5h-65v-440h-258v440h-68q-66 0 -110.5 -39t-81.5 -120.5t-93 -280.5h-268z" horiz-adv-x="1579" unicode="ж"/><glyph d="M47 150l195 137q45 -58 95 -81.5t116 -23.5q90 0 148 32t58 93q0 70 -39.5 102.5t-150.5 32.5h-233v185h223q96 0 138 20.5t42 91.5q0 72 -45 100.5t-131 28.5q-82 0 -133 -25.5t-86 -72.5l-183 129q56 92 161.5 136t240.5 44q229 0 335.5 -93t106.5 -245 q0 -71 -34.5 -127.5t-104.5 -87.5q69 -25 114.5 -91t45.5 -138q0 -158 -118 -243t-355 -85q-286 0 -406 181z" horiz-adv-x="1008" unicode="з"/><glyph d="M131 0v1049h234v-709l485 709h246v-1049h-234v707l-487 -707h-244z" horiz-adv-x="1217" unicode="и"/><glyph d="M131 0v1049h234v-709l485 709h246v-1049h-234v707l-487 -707h-244zM256 1466h221q0 -149 139 -149q58 0 99 32.5t41 116.5h221q0 -77 -45.5 -140.5t-128 -100.5t-189.5 -37q-103 0 -185 36t-127.5 101t-45.5 141z" horiz-adv-x="1217" unicode="й"/><glyph d="M131 0v1049h256v-416h135q51 0 89 42.5t73 126.5t82 247h264q-56 -206 -121.5 -329t-154.5 -181q65 -31 110 -77t79 -110.5t61.5 -151.5t62.5 -200h-264q-35 109 -63.5 191.5t-60.5 138t-73 83t-100 27.5h-119v-440h-256z" horiz-adv-x="1108" unicode="к"/><glyph d="M16 8l45 187q31 -9 56 -9q107 0 153.5 154.5t46.5 490.5v218h775v-1049h-256v858h-269v-65q0 -421 -95 -616t-310 -195q-35 0 -79 8t-67 18z" horiz-adv-x="1223" unicode="л"/><glyph d="M131 0v1049h287l289 -498l274 498h281v-1049h-228v748l-262 -486h-141l-273 486v-748h-227z" horiz-adv-x="1393" unicode="м"/><glyph d="M131 0v1049h258v-414h424v414h258v-1049h-258v442h-424v-442h-258z" horiz-adv-x="1202" unicode="н"/><glyph d="M92 522q0 266 121 411.5t383 145.5q260 0 381 -145.5t121 -411.5q0 -262 -121 -407.5t-381 -145.5q-504 0 -504 553zM358 522q0 -168 55.5 -247.5t182.5 -79.5q125 0 180 78.5t55 248.5q0 173 -54 252.5t-181 79.5q-126 0 -182 -81.5t-56 -250.5z" horiz-adv-x="1190" unicode="о"/><glyph d="M131 0v1049h940v-1049h-258v858h-424v-858h-258z" horiz-adv-x="1202" unicode="п"/><glyph d="M145 -395v1444h238v-103q72 62 151.5 97.5t182.5 35.5q199 0 303 -140t104 -407q0 -169 -51 -298t-146 -197t-227 -68q-174 0 -297 109v-473h-258zM403 291q41 -37 101.5 -65.5t124.5 -28.5q106 0 167.5 90.5t61.5 240.5q0 153 -53 238.5t-158 85.5q-63 0 -129.5 -29.5 t-114.5 -72.5v-459z" horiz-adv-x="1217" unicode="р"/><glyph d="M92 518q0 265 126 413t378 148q135 0 240.5 -44t160.5 -136l-192 -137q-35 47 -82 69.5t-121 22.5q-132 0 -188 -81t-56 -251t57.5 -248.5t196.5 -78.5q60 0 110 17t95 75l195 -137q-60 -89 -158 -135t-248 -46q-254 0 -384 138.5t-130 410.5z" horiz-adv-x="1059" unicode="с"/><glyph d="M16 862v187h971v-187h-356v-862h-256v862h-359z" horiz-adv-x="1004" unicode="т"/><glyph d="M-20 -365l55 224q84 -29 151 -29q58 0 102 35t91 145l27 62l-379 977h268l248 -670l254 670h262l-451 -1121q-55 -135 -107 -200t-121.5 -94t-174.5 -29q-114 0 -225 30z" horiz-adv-x="1085" unicode="у"/><glyph d="M78 524q0 496 495 551v400h246v-400q249 -28 372.5 -168.5t123.5 -382.5q0 -243 -125 -382t-371 -165v-368h-246v368q-241 25 -368 162t-127 385zM344 524q0 -149 50 -238t179 -118v719q-129 -31 -179 -120t-50 -243zM819 168q127 29 178.5 119t51.5 237q0 146 -51.5 238 t-178.5 123v-717z" horiz-adv-x="1393" unicode="ф"/><glyph d="M31 0l362 518l-356 531h301l209 -332l215 332h285l-361 -517l363 -532h-306l-208 334l-218 -334h-286z" horiz-adv-x="1079" unicode="х"/><glyph d="M131 0v1049h258v-861h420v861h256v-861h143v-450h-235v262h-842z" horiz-adv-x="1237" unicode="ц"/><glyph d="M90 711v338h256v-281q0 -94 14 -138t46.5 -62.5t109.5 -18.5q103 0 248 20v480h256v-1049h-256v393q-74 -12 -151.5 -23.5t-139.5 -11.5q-212 0 -297.5 79t-85.5 274z" horiz-adv-x="1151" unicode="ч"/><glyph d="M131 0v1049h258v-861h299v861h258v-861h299v861h258v-1049h-1372z" horiz-adv-x="1634" unicode="ш"/><glyph d="M131 0v1049h258v-861h297v861h258v-861h297v861h258v-863h139v-448h-237v262h-1270z" horiz-adv-x="1667" unicode="щ"/><glyph d="M16 862v187h605v-371h184q248 0 364.5 -83t116.5 -251q0 -180 -123 -262t-372 -82h-426v862h-349zM621 188h163q127 0 181.5 36t54.5 122q0 82 -58.5 112.5t-185.5 30.5h-155v-301z" horiz-adv-x="1352" unicode="ъ"/><glyph d="M131 0v1049h256v-371h182q248 0 363 -83t115 -251q0 -180 -120 -262t-372 -82h-424zM387 188h162q125 0 178 36t53 122q0 82 -55 112.5t-184 30.5h-154v-301zM1188 0v1049h256v-1049h-256z" horiz-adv-x="1575" unicode="ы"/><glyph d="M131 0v1049h256v-371h182q248 0 363 -83t115 -251q0 -180 -120 -262t-372 -82h-424zM387 188h162q125 0 178 36t53 122q0 82 -55 112.5t-184 30.5h-154v-301z" horiz-adv-x="1112" unicode="ь"/><glyph d="M47 150l195 137q45 -58 95 -75t109 -17q117 0 177.5 56t72.5 191h-473v185h471q-16 129 -77.5 178t-159.5 49q-74 0 -121 -22.5t-82 -69.5l-193 137q56 92 161.5 136t240.5 44q250 0 377 -147.5t127 -413.5q0 -273 -131.5 -411t-382.5 -138q-286 0 -406 181z" horiz-adv-x="1059" unicode="э"/><glyph d="M131 0v1051h256v-437h221q19 233 151.5 349t366.5 116q256 0 389.5 -142t133.5 -415q0 -176 -59.5 -301.5t-175.5 -188.5t-288 -63q-235 0 -367 118t-151 339h-221v-426h-256zM870 522q0 -180 61.5 -263t194.5 -83q134 0 195 84t61 262q0 187 -61 269.5t-195 82.5 q-133 0 -194.5 -82.5t-61.5 -269.5z" horiz-adv-x="1726" unicode="ю"/><glyph d="M41 0l289 438q-248 57 -248 320q0 155 100.5 223t343.5 68h432v-1049h-256v418h-105l-275 -418h-281zM342 735q0 -78 40 -106.5t148 -28.5h172v266h-172q-100 0 -144 -30.5t-44 -100.5z" horiz-adv-x="1090" unicode="я"/><glyph d="M92 516q0 563 504 563q224 0 341.5 -126.5t117.5 -368.5v-127h-697q7 -140 68 -201t192 -61q76 0 133.5 19t100.5 73l192 -137q-63 -91 -163.5 -136t-274.5 -45q-259 0 -386.5 136t-127.5 411zM248 1569h315l188 -361h-204zM365 635h434q0 239 -209 239q-69 0 -113 -23.5 t-70.5 -70t-41.5 -145.5z" horiz-adv-x="1143" unicode="ѐ"/><glyph d="M92 516q0 563 504 563q224 0 341.5 -126.5t117.5 -368.5v-127h-697q7 -140 68 -201t192 -61q76 0 133.5 19t100.5 73l192 -137q-63 -91 -163.5 -136t-274.5 -45q-259 0 -386.5 136t-127.5 411zM168 1335q0 70 31.5 100.5t109.5 30.5t111.5 -29.5t33.5 -101.5 q0 -73 -35.5 -102t-109.5 -29q-82 0 -111.5 34t-29.5 97zM365 635h434q0 239 -209 239q-69 0 -113 -23.5t-70.5 -70t-41.5 -145.5zM612 1335q0 70 31.5 100.5t109.5 30.5t112 -29.5t34 -101.5q0 -73 -36 -102t-110 -29q-82 0 -111.5 34t-29.5 97z" horiz-adv-x="1143" unicode="ё"/><glyph d="M23 1204v180h149v105h252v-105h287v-180h-287v-293q77 77 177.5 122.5t182.5 45.5q205 0 305.5 -138t100.5 -400q0 -437 -132.5 -670t-391.5 -262l-45 205q123 35 187.5 115t94 224.5t29.5 374.5q0 328 -221 328q-59 0 -143.5 -49.5t-143.5 -104.5v-702h-252v1204h-149z" horiz-adv-x="1319" unicode="ђ"/><glyph d="M131 0v1049h741v-191h-483v-858h-258zM321 1208l189 361h315l-299 -361h-205z" horiz-adv-x="889" unicode="ѓ"/><glyph d="M92 518q0 265 126 413t378 148q135 0 240.5 -44t160.5 -136l-192 -137q-35 47 -82 69.5t-121 22.5q-98 0 -159.5 -49t-77.5 -178h471v-185h-474q13 -135 73.5 -191t176.5 -56q60 0 110 17t95 75l195 -137q-60 -89 -158 -135t-248 -46q-254 0 -384 138.5t-130 410.5z" horiz-adv-x="1059" unicode="є"/><glyph d="M76 152l192 135q47 -64 108.5 -85.5t131.5 -21.5q184 0 184 107q0 47 -52 72.5t-163 52.5q-209 46 -294 130t-85 218q0 139 106.5 229t313.5 90q141 0 248.5 -45t165.5 -135l-193 -137q-69 106 -225 106q-80 0 -121 -27.5t-41 -70.5q0 -41 37 -65.5t146 -51.5 q179 -44 255.5 -87.5t116 -108t39.5 -158.5q0 -104 -52.5 -178t-149 -113t-220.5 -39q-329 0 -448 183z" horiz-adv-x="1026" unicode="ѕ"/><glyph d="M131 1335q0 70 32 100.5t109 30.5q78 0 112 -29.5t34 -101.5q0 -73 -36 -102t-110 -29q-82 0 -111.5 34t-29.5 97zM145 0v1049h258v-1049h-258z" horiz-adv-x="549" unicode="і"/><glyph d="M-92 1335q0 70 31.5 100.5t109.5 30.5t111.5 -29.5t33.5 -101.5q0 -73 -35.5 -102t-109.5 -29q-82 0 -111.5 34t-29.5 97zM145 0v1049h258v-1049h-258zM352 1335q0 70 31.5 100.5t109.5 30.5t112 -29.5t34 -101.5q0 -73 -36 -102t-110 -29q-82 0 -111.5 34t-29.5 97z" horiz-adv-x="549" unicode="ї"/><glyph d="M-162 -365l56 224q73 -29 151 -29t96.5 48t18.5 159v1012h258v-1094q0 -188 -84 -269t-275 -81q-43 0 -113 9.5t-108 20.5zM145 1335q0 70 32 100.5t110 30.5t111.5 -29.5t33.5 -101.5q0 -73 -36 -102t-109 -29q-82 0 -112 34t-30 97z" horiz-adv-x="563" unicode="ј"/><glyph d="M16 8l45 187q31 -9 56 -9q103 0 149.5 146.5t46.5 498.5v218h760v-371h180q244 0 357.5 -83t113.5 -251q0 -180 -119.5 -262t-367.5 -82h-422v862h-250v-69q0 -421 -95 -616t-308 -195q-35 0 -78 8t-68 18zM1073 188h158q121 0 174 37t53 121q0 82 -56 112.5t-177 30.5 h-152v-301z" horiz-adv-x="1790" unicode="љ"/><glyph d="M131 0v1049h256v-385h406v385h256v-385h180q241 0 354 -73t113 -247q0 -180 -120 -262t-364 -82h-419v475h-406v-475h-256zM1049 188h157q119 0 171.5 36t52.5 122q0 72 -54.5 100.5t-175.5 28.5h-151v-287z" horiz-adv-x="1761" unicode="њ"/><glyph d="M23 1192v174h149v123h252v-123h285v-174h-285v-281q68 70 166 119t201 49q169 0 247 -92t78 -287v-700h-252v580q0 166 -31 221t-118 55q-116 0 -291 -154v-702h-252v1192h-149z" horiz-adv-x="1243" unicode="ћ"/><glyph d="M131 0v1049h256v-416h135q51 0 89 42.5t73 126.5t82 247h264q-56 -206 -121.5 -329t-154.5 -181q65 -31 110 -77t79 -110.5t61.5 -151.5t62.5 -200h-264q-35 109 -63.5 191.5t-60.5 138t-73 83t-100 27.5h-119v-440h-256zM407 1208l189 361h315l-299 -361h-205z" horiz-adv-x="1108" unicode="ќ"/><glyph d="M131 0v1049h234v-709l485 709h246v-1049h-234v707l-487 -707h-244zM273 1569h315l188 -361h-204z" horiz-adv-x="1217" unicode="ѝ"/><glyph d="M-20 -365l55 224q84 -29 151 -29q58 0 102 35t91 145l27 62l-379 977h268l248 -670l254 670h262l-451 -1121q-55 -135 -107 -200t-121.5 -94t-174.5 -29q-114 0 -225 30zM182 1466h221q0 -149 139 -149q58 0 99 32.5t41 116.5h221q0 -77 -45.5 -140.5t-128 -100.5 t-189.5 -37q-103 0 -185 36t-127.5 101t-45.5 141z" horiz-adv-x="1085" unicode="ў"/><glyph d="M131 0v1049h258v-861h424v861h258v-1049h-342v-264h-256v264h-342z" horiz-adv-x="1202" unicode="џ"/><glyph d="M150 0v1384h538v250h283v-508h-541v-1126h-280z" horiz-adv-x="999" unicode="Ґ"/><glyph d="M131 0v1049h490v286h256v-479h-488v-856h-258z" horiz-adv-x="905" unicode="ґ"/><glyph d="M43 1384h281l221 -903l229 903h279l231 -909l227 909h279l-358 -1384h-289l-232 915l-233 -915h-285zM588 1905h315l188 -361h-204z" horiz-adv-x="1833" unicode="Ẁ"/><glyph d="M27 1049h268l162 -676l235 676h195l237 -670l156 670h258l-281 -1049h-235l-236 668l-237 -668h-236zM435 1569h315l188 -361h-204z" horiz-adv-x="1565" unicode="ẁ"/><glyph d="M43 1384h281l221 -903l229 903h279l231 -909l227 909h279l-358 -1384h-289l-232 915l-233 -915h-285zM747 1544l189 361h315l-299 -361h-205z" horiz-adv-x="1833" unicode="Ẃ"/><glyph d="M27 1049h268l162 -676l235 676h195l237 -670l156 670h258l-281 -1049h-235l-236 668l-237 -668h-236zM655 1208l189 361h315l-299 -361h-205z" horiz-adv-x="1565" unicode="ẃ"/><glyph d="M43 1384h281l221 -903l229 903h279l231 -909l227 909h279l-358 -1384h-289l-232 915l-233 -915h-285zM549 1671q0 70 31.5 100.5t109.5 30.5t111.5 -29.5t33.5 -101.5q0 -73 -35.5 -102t-109.5 -29q-82 0 -111.5 34t-29.5 97zM993 1671q0 70 31.5 100.5t109.5 30.5 t112 -29.5t34 -101.5q0 -73 -36 -102t-110 -29q-82 0 -111.5 34t-29.5 97z" horiz-adv-x="1833" unicode="Ẅ"/><glyph d="M27 1049h268l162 -676l235 676h195l237 -670l156 670h258l-281 -1049h-235l-236 668l-237 -668h-236zM416 1335q0 70 31.5 100.5t109.5 30.5t111.5 -29.5t33.5 -101.5q0 -73 -35.5 -102t-109.5 -29q-82 0 -111.5 34t-29.5 97zM860 1335q0 70 31.5 100.5t109.5 30.5 t112 -29.5t34 -101.5q0 -73 -36 -102t-110 -29q-82 0 -111.5 34t-29.5 97z" horiz-adv-x="1565" unicode="ẅ"/><glyph d="M150 0v868q0 289 136 418t433 129q129 0 219 -15.5t174 -37.5v-199q-98 0 -159.5 -35.5t-61.5 -111.5q0 -43 17 -68.5t59.5 -50.5t122.5 -55q167 -62 248 -165.5t81 -275.5q0 -196 -128 -313t-363 -117q-157 0 -254.5 55t-169.5 185l217 166q41 -84 96 -120t129 -36 q184 0 184 166q0 66 -35.5 117t-133.5 88q-201 76 -280 164.5t-79 238.5q0 92 51 170q-128 -8 -174.5 -70.5t-46.5 -215.5v-879h-282z" horiz-adv-x="1503" unicode="ẞ"/><glyph d="M27 0l458 1384h367l459 -1384h-289l-92 281h-533l-90 -281h-280zM477 528h373l-186 572zM524 -248q0 70 31.5 100.5t109.5 30.5t112 -29.5t34 -101.5q0 -74 -36 -102.5t-110 -28.5q-82 0 -111.5 34t-29.5 97z" horiz-adv-x="1337" unicode="Ạ"/><glyph d="M84 295q0 112 45.5 185t135 114.5t257.5 58.5l221 21v47q0 88 -53 120.5t-155 32.5q-84 0 -144.5 -28t-89.5 -80l-201 129q53 89 166 136.5t273 47.5q245 0 353.5 -85.5t108.5 -280.5v-713h-237v109q-153 -140 -328 -140q-174 0 -263 91.5t-89 234.5zM350 299 q0 -72 40 -98.5t106 -26.5q47 0 114.5 29.5t132.5 83.5v200l-131 -12q-139 -12 -200.5 -53t-61.5 -123zM377 -248q0 70 31.5 100.5t109.5 30.5t112 -29.5t34 -101.5q0 -74 -36 -102.5t-110 -28.5q-82 0 -111.5 34t-29.5 97z" horiz-adv-x="1139" unicode="ạ"/><glyph d="M27 0l458 1384h367l459 -1384h-289l-92 281h-533l-90 -281h-280zM458 1823q70 53 197 53q104 0 160.5 -46t56.5 -120q0 -69 -47 -116.5t-127 -53.5v-43h-127v137h43q74 0 74 60q0 51 -76 51q-58 0 -96 -25zM477 528h373l-186 572z" horiz-adv-x="1337" unicode="Ả"/><glyph d="M84 295q0 112 45.5 185t135 114.5t257.5 58.5l221 21v47q0 88 -53 120.5t-155 32.5q-84 0 -144.5 -28t-89.5 -80l-201 129q53 89 166 136.5t273 47.5q245 0 353.5 -85.5t108.5 -280.5v-713h-237v109q-153 -140 -328 -140q-174 0 -263 91.5t-89 234.5zM350 299 q0 -72 40 -98.5t106 -26.5q47 0 114.5 29.5t132.5 83.5v200l-131 -12q-139 -12 -200.5 -53t-61.5 -123zM350 1487q70 53 197 53q104 0 160.5 -46t56.5 -120q0 -69 -47 -116.5t-127 -53.5v-43h-127v137h43q74 0 74 60q0 51 -76 51q-58 0 -96 -25z" horiz-adv-x="1139" unicode="ả"/><glyph d="M27 0l458 1384h367l459 -1384h-289l-92 281h-533l-90 -281h-280zM318 1503l235 299h244l236 -299h-211l-146 133l-149 -133h-209zM477 528h373l-186 572zM906 1716l153 291h316l-265 -291h-204z" horiz-adv-x="1337" unicode="Ấ"/><glyph d="M84 295q0 112 45.5 185t135 114.5t257.5 58.5l221 21v47q0 88 -53 120.5t-155 32.5q-84 0 -144.5 -28t-89.5 -80l-201 129q53 89 166 136.5t273 47.5q245 0 353.5 -85.5t108.5 -280.5v-713h-237v109q-153 -140 -328 -140q-174 0 -263 91.5t-89 234.5zM184 1167l235 299 h244l236 -299h-211l-146 144l-149 -144h-209zM350 299q0 -72 40 -98.5t106 -26.5q47 0 114.5 29.5t132.5 83.5v200l-131 -12q-139 -12 -200.5 -53t-61.5 -123zM772 1380l153 291h316l-265 -291h-204z" horiz-adv-x="1139" unicode="ấ"/><glyph d="M-22 2007h315l154 -291h-205zM27 0l458 1384h367l459 -1384h-289l-92 281h-533l-90 -281h-280zM318 1503l235 299h244l236 -299h-211l-146 133l-149 -133h-209zM477 528h373l-186 572z" horiz-adv-x="1337" unicode="Ầ"/><glyph d="M-156 1671h315l154 -291h-205zM84 295q0 112 45.5 185t135 114.5t257.5 58.5l221 21v47q0 88 -53 120.5t-155 32.5q-84 0 -144.5 -28t-89.5 -80l-201 129q53 89 166 136.5t273 47.5q245 0 353.5 -85.5t108.5 -280.5v-713h-237v109q-153 -140 -328 -140q-174 0 -263 91.5 t-89 234.5zM184 1167l235 299h244l236 -299h-211l-146 133l-149 -133h-209zM350 299q0 -72 40 -98.5t106 -26.5q47 0 114.5 29.5t132.5 83.5v200l-131 -12q-139 -12 -200.5 -53t-61.5 -123z" horiz-adv-x="1139" unicode="ầ"/><glyph d="M27 0l458 1384h367l459 -1384h-289l-92 281h-533l-90 -281h-280zM318 1503l235 299h244l236 -299h-211l-146 133l-149 -133h-209zM477 528h373l-186 572zM813 2001q70 53 197 53q105 0 161 -46t56 -120q0 -69 -47 -116.5t-127 -53.5v-43h-127v137h43q74 0 74 60 q0 51 -76 51q-58 0 -96 -25z" horiz-adv-x="1337" unicode="Ẩ"/><glyph d="M84 295q0 112 45.5 185t135 114.5t257.5 58.5l221 21v47q0 88 -53 120.5t-155 32.5q-84 0 -144.5 -28t-89.5 -80l-201 129q53 89 166 136.5t273 47.5q245 0 353.5 -85.5t108.5 -280.5v-713h-237v109q-153 -140 -328 -140q-174 0 -263 91.5t-89 234.5zM184 1167l235 299 h244l236 -299h-211l-146 133l-149 -133h-209zM350 299q0 -72 40 -98.5t106 -26.5q47 0 114.5 29.5t132.5 83.5v200l-131 -12q-139 -12 -200.5 -53t-61.5 -123zM679 1665q67 53 197 53q105 0 161 -46t56 -120q0 -69 -47 -116.5t-127 -53.5v-43h-127v138h43q74 0 74 59 q0 51 -76 51q-56 0 -96 -24z" horiz-adv-x="1139" unicode="ẩ"/><glyph d="M27 0l458 1384h367l459 -1384h-289l-92 281h-533l-90 -281h-280zM267 1849q5 136 74 206.5t188 70.5q49 0 91 -15.5t79 -35t69.5 -35t65.5 -15.5q37 0 50 24t18 62h182q-10 -144 -76 -212t-188 -68q-54 0 -96 16.5t-77.5 36t-66.5 35.5t-64 16q-38 0 -50.5 -23.5 t-16.5 -62.5h-182zM318 1503l235 279h244l236 -279h-211l-146 123l-149 -123h-209zM477 528h373l-186 572z" horiz-adv-x="1337" unicode="Ẫ"/><glyph d="M84 295q0 112 45.5 185t135 114.5t257.5 58.5l221 21v47q0 88 -53 120.5t-155 32.5q-84 0 -144.5 -28t-89.5 -80l-201 129q53 89 166 136.5t273 47.5q245 0 353.5 -85.5t108.5 -280.5v-713h-237v109q-153 -140 -328 -140q-174 0 -263 91.5t-89 234.5zM133 1513 q5 136 74 206.5t188 70.5q49 0 91 -15.5t79 -35t69.5 -34.5t65.5 -15q37 0 50 23.5t18 62.5h182q-10 -145 -75.5 -213t-188.5 -68q-54 0 -96 16.5t-77.5 36t-66.5 35.5t-64 16q-38 0 -50.5 -23.5t-16.5 -62.5h-182zM184 1167l235 279h244l236 -279h-211l-146 123l-149 -123 h-209zM350 299q0 -72 40 -98.5t106 -26.5q47 0 114.5 29.5t132.5 83.5v200l-131 -12q-139 -12 -200.5 -53t-61.5 -123z" horiz-adv-x="1139" unicode="ẫ"/><glyph d="M27 0l458 1384h367l459 -1384h-289l-92 281h-533l-90 -281h-280zM318 1544l235 361h244l236 -361h-211l-146 174l-149 -174h-209zM477 528h373l-186 572zM522 -248q0 70 31.5 100.5t109.5 30.5t112 -29.5t34 -101.5q0 -74 -36 -102.5t-110 -28.5q-82 0 -111.5 34 t-29.5 97z" horiz-adv-x="1337" unicode="Ậ"/><glyph d="M84 295q0 112 45.5 185t135 114.5t257.5 58.5l221 21v47q0 88 -53 120.5t-155 32.5q-84 0 -144.5 -28t-89.5 -80l-201 129q53 89 166 136.5t273 47.5q245 0 353.5 -85.5t108.5 -280.5v-713h-237v109q-153 -140 -328 -140q-174 0 -263 91.5t-89 234.5zM184 1208l235 361 h244l236 -361h-211l-146 174l-149 -174h-209zM350 299q0 -72 40 -98.5t106 -26.5q47 0 114.5 29.5t132.5 83.5v200l-131 -12q-139 -12 -200.5 -53t-61.5 -123zM379 -248q0 70 31.5 100.5t109.5 30.5t112 -29.5t34 -101.5q0 -74 -36 -102.5t-110 -28.5q-82 0 -111.5 34 t-29.5 97z" horiz-adv-x="1139" unicode="ậ"/><glyph d="M27 0l458 1384h367l459 -1384h-289l-92 281h-533l-90 -281h-280zM305 1835h188q15 -61 58 -86t116 -25q145 0 170 111h189q0 -87 -43.5 -158.5t-126.5 -113t-191 -41.5t-190.5 41.5t-126 114t-43.5 157.5zM477 528h373l-186 572zM555 1819l104 249h315l-225 -249h-194z" horiz-adv-x="1337" unicode="Ắ"/><glyph d="M84 295q0 112 45.5 185t135 114.5t257.5 58.5l221 21v47q0 88 -53 120.5t-155 32.5q-84 0 -144.5 -28t-89.5 -80l-201 129q53 89 166 136.5t273 47.5q245 0 353.5 -85.5t108.5 -280.5v-713h-237v109q-153 -140 -328 -140q-174 0 -263 91.5t-89 234.5zM182 1520h188 q15 -62 58 -86.5t116 -24.5q68 0 112 24.5t58 86.5h189q0 -88 -43.5 -159.5t-126 -113t-191.5 -41.5q-108 0 -190.5 41.5t-126 114t-43.5 158.5zM350 299q0 -72 40 -98.5t106 -26.5q47 0 114.5 29.5t132.5 83.5v200l-131 -12q-139 -12 -200.5 -53t-61.5 -123zM432 1503 l104 250h315l-225 -250h-194z" horiz-adv-x="1139" unicode="ắ"/><glyph d="M27 0l458 1384h367l459 -1384h-289l-92 281h-533l-90 -281h-280zM305 1835h188q15 -61 58 -86t116 -25q145 0 170 111h189q0 -87 -43.5 -158.5t-126.5 -113t-191 -41.5t-190.5 41.5t-126 114t-43.5 157.5zM356 2068h315l105 -249h-195zM477 528h373l-186 572z" horiz-adv-x="1337" unicode="Ằ"/><glyph d="M84 295q0 112 45.5 185t135 114.5t257.5 58.5l221 21v47q0 88 -53 120.5t-155 32.5q-84 0 -144.5 -28t-89.5 -80l-201 129q53 89 166 136.5t273 47.5q245 0 353.5 -85.5t108.5 -280.5v-713h-237v109q-153 -140 -328 -140q-174 0 -263 91.5t-89 234.5zM182 1520h188 q15 -62 58 -86.5t116 -24.5q68 0 112 24.5t58 86.5h189q0 -88 -43.5 -159.5t-126 -113t-191.5 -41.5q-108 0 -190.5 41.5t-126 114t-43.5 158.5zM233 1753h315l105 -250h-195zM350 299q0 -72 40 -98.5t106 -26.5q47 0 114.5 29.5t132.5 83.5v200l-131 -12 q-139 -12 -200.5 -53t-61.5 -123z" horiz-adv-x="1139" unicode="ằ"/><glyph d="M27 0l458 1384h367l459 -1384h-289l-92 281h-533l-90 -281h-280zM305 1835h188q15 -61 58 -86t116 -25q145 0 170 111h189q0 -87 -43.5 -158.5t-126.5 -113t-191 -41.5t-190.5 41.5t-126 114t-43.5 157.5zM477 528h373l-186 572zM483 2152q68 54 197 54q104 0 160.5 -46 t56.5 -120q0 -71 -47.5 -118t-128.5 -52v-43h-125v137h43q73 0 73 59q0 52 -75 52q-53 0 -97 -25z" horiz-adv-x="1337" unicode="Ẳ"/><glyph d="M84 295q0 112 45.5 185t135 114.5t257.5 58.5l221 21v47q0 88 -53 120.5t-155 32.5q-84 0 -144.5 -28t-89.5 -80l-201 129q53 89 166 136.5t273 47.5q245 0 353.5 -85.5t108.5 -280.5v-713h-237v109q-153 -140 -328 -140q-174 0 -263 91.5t-89 234.5zM182 1520h188 q15 -62 58 -86.5t116 -24.5q68 0 112 24.5t58 86.5h189q0 -88 -43.5 -159.5t-126 -113t-191.5 -41.5q-108 0 -190.5 41.5t-126 114t-43.5 158.5zM350 299q0 -72 40 -98.5t106 -26.5q47 0 114.5 29.5t132.5 83.5v200l-131 -12q-139 -12 -200.5 -53t-61.5 -123zM360 1837 q67 53 197 53q104 0 160.5 -46t56.5 -120q0 -72 -49 -118.5t-127 -51.5v-43h-125v138h43q73 0 73 59q0 51 -75 51q-55 0 -97 -24z" horiz-adv-x="1139" unicode="ẳ"/><glyph d="M27 0l458 1384h367l459 -1384h-289l-92 281h-533l-90 -281h-280zM256 1903q5 135 74 205.5t188 70.5q49 0 91 -15.5t79 -35t69.5 -34.5t65.5 -15q37 0 50 23.5t18 62.5h182q-10 -145 -75.5 -213t-188.5 -68q-54 0 -96 16.5t-77.5 36t-66.5 36t-64 16.5q-38 0 -50.5 -23.5 t-16.5 -62.5h-182zM305 1825h188q15 -62 58 -86.5t116 -24.5q68 0 112 24.5t58 86.5h189q0 -133 -98 -218t-263 -85q-166 0 -263 85.5t-97 217.5zM477 528h373l-186 572z" horiz-adv-x="1337" unicode="Ẵ"/><glyph d="M84 295q0 112 45.5 185t135 114.5t257.5 58.5l221 21v47q0 88 -53 120.5t-155 32.5q-84 0 -144.5 -28t-89.5 -80l-201 129q53 89 166 136.5t273 47.5q245 0 353.5 -85.5t108.5 -280.5v-713h-237v109q-153 -140 -328 -140q-174 0 -263 91.5t-89 234.5zM133 1587 q5 136 74 206.5t188 70.5q49 0 91 -15.5t79 -35t69.5 -35t65.5 -15.5q37 0 50 23.5t18 62.5h182q-10 -144 -76 -212t-188 -68q-54 0 -96 16.5t-77.5 35.5t-66.5 35.5t-64 16.5q-38 0 -50.5 -23.5t-16.5 -62.5h-182zM182 1509h188q15 -61 58 -85.5t116 -24.5q68 0 112 24.5 t58 85.5h189q0 -133 -98 -218t-263 -85q-110 0 -190.5 38.5t-125 109t-44.5 155.5zM350 299q0 -72 40 -98.5t106 -26.5q47 0 114.5 29.5t132.5 83.5v200l-131 -12q-139 -12 -200.5 -53t-61.5 -123z" horiz-adv-x="1139" unicode="ẵ"/><glyph d="M27 0l458 1384h367l459 -1384h-289l-92 281h-533l-90 -281h-280zM305 1845h188q15 -47 58 -75.5t116 -28.5q68 0 112 28.5t58 75.5h189q0 -88 -44.5 -161.5t-127 -117.5t-189.5 -44q-106 0 -188.5 43.5t-127 117.5t-44.5 162zM477 528h373l-186 572zM522 -248 q0 70 31.5 100.5t109.5 30.5t112 -29.5t34 -101.5q0 -74 -36 -102.5t-110 -28.5q-82 0 -111.5 34t-29.5 97z" horiz-adv-x="1337" unicode="Ặ"/><glyph d="M84 295q0 112 45.5 185t135 114.5t257.5 58.5l221 21v47q0 88 -53 120.5t-155 32.5q-84 0 -144.5 -28t-89.5 -80l-201 129q53 89 166 136.5t273 47.5q245 0 353.5 -85.5t108.5 -280.5v-713h-237v109q-153 -140 -328 -140q-174 0 -263 91.5t-89 234.5zM182 1509h188 q15 -47 58 -75.5t116 -28.5q68 0 112 28.5t58 75.5h189q0 -88 -44.5 -161.5t-127 -117.5t-189.5 -44q-106 0 -188.5 43.5t-127 117.5t-44.5 162zM350 299q0 -72 40 -98.5t106 -26.5q47 0 114.5 29.5t132.5 83.5v200l-131 -12q-139 -12 -200.5 -53t-61.5 -123zM379 -248 q0 70 31.5 100.5t109.5 30.5t112 -29.5t34 -101.5q0 -74 -36 -102.5t-110 -28.5q-82 0 -111.5 34t-29.5 97z" horiz-adv-x="1139" unicode="ặ"/><glyph d="M150 0v1384h899v-249h-617v-295h520v-250h-520v-332h617v-258h-899zM451 -248q0 70 31.5 100.5t109.5 30.5t112 -29.5t34 -101.5q0 -74 -36 -102.5t-110 -28.5q-82 0 -111.5 34t-29.5 97z" horiz-adv-x="1149" unicode="Ẹ"/><glyph d="M92 516q0 563 504 563q224 0 341.5 -126.5t117.5 -368.5v-127h-697q7 -140 68 -201t192 -61q76 0 133.5 19t100.5 73l192 -137q-63 -91 -163.5 -136t-274.5 -45q-259 0 -386.5 136t-127.5 411zM365 635h434q0 239 -209 239q-69 0 -113 -23.5t-70.5 -70t-41.5 -145.5z M438 -248q0 70 31.5 100.5t109.5 30.5t112 -29.5t34 -101.5q0 -74 -36 -102.5t-110 -28.5q-82 0 -111.5 34t-29.5 97z" horiz-adv-x="1143" unicode="ẹ"/><glyph d="M150 0v1384h899v-249h-617v-295h520v-250h-520v-332h617v-258h-899zM391 1823q70 53 197 53q104 0 160.5 -46t56.5 -120q0 -69 -47 -116.5t-127 -53.5v-43h-127v137h43q74 0 74 60q0 51 -76 51q-58 0 -96 -25z" horiz-adv-x="1149" unicode="Ẻ"/><glyph d="M92 516q0 563 504 563q224 0 341.5 -126.5t117.5 -368.5v-127h-697q7 -140 68 -201t192 -61q76 0 133.5 19t100.5 73l192 -137q-63 -91 -163.5 -136t-274.5 -45q-259 0 -386.5 136t-127.5 411zM365 635h434q0 239 -209 239q-69 0 -113 -23.5t-70.5 -70t-41.5 -145.5z M385 1487q70 53 197 53q104 0 160.5 -46t56.5 -120q0 -69 -47 -116.5t-127 -53.5v-43h-127v137h43q74 0 74 60q0 51 -76 51q-58 0 -96 -25z" horiz-adv-x="1143" unicode="ẻ"/><glyph d="M150 0v1384h899v-249h-617v-295h520v-250h-520v-332h617v-258h-899zM189 1567q5 155 73 236t189 81q61 0 104 -22.5t77 -48t62.5 -48t61.5 -22.5q34 0 51 33t17 94h182q-10 -165 -75.5 -243.5t-188.5 -78.5q-66 0 -109 22.5t-75.5 50.5t-59.5 50.5t-60 22.5 q-67 0 -67 -127h-182z" horiz-adv-x="1149" unicode="Ẽ"/><glyph d="M92 516q0 563 504 563q224 0 341.5 -126.5t117.5 -368.5v-127h-697q7 -140 68 -201t192 -61q76 0 133.5 19t100.5 73l192 -137q-63 -91 -163.5 -136t-274.5 -45q-259 0 -386.5 136t-127.5 411zM179 1231q5 155 73 236t189 81q61 0 104 -22.5t77 -48t62.5 -48t61.5 -22.5 q35 0 51.5 35t16.5 92h182q-10 -165 -75.5 -243.5t-188.5 -78.5q-66 0 -109 22.5t-75.5 50.5t-59.5 50.5t-60 22.5q-67 0 -67 -127h-182zM365 635h434q0 239 -209 239q-69 0 -113 -23.5t-70.5 -70t-41.5 -145.5z" horiz-adv-x="1143" unicode="ẽ"/><glyph d="M150 0v1384h899v-249h-617v-295h520v-250h-520v-332h617v-258h-899zM236 1503l235 299h244l236 -299h-211l-146 133l-149 -133h-209zM824 1716l153 291h316l-265 -291h-204z" horiz-adv-x="1149" unicode="Ế"/><glyph d="M92 516q0 563 504 563q224 0 341.5 -126.5t117.5 -368.5v-127h-697q7 -140 68 -201t192 -61q76 0 133.5 19t100.5 73l192 -137q-63 -91 -163.5 -136t-274.5 -45q-259 0 -386.5 136t-127.5 411zM225 1167l235 299h244l236 -299h-211l-146 144l-149 -144h-209zM365 635h434 q0 239 -209 239q-69 0 -113 -23.5t-70.5 -70t-41.5 -145.5zM813 1380l153 291h316l-265 -291h-204z" horiz-adv-x="1143" unicode="ế"/><glyph d="M-104 2007h315l154 -291h-205zM150 0v1384h899v-249h-617v-295h520v-250h-520v-332h617v-258h-899zM236 1503l235 299h244l236 -299h-211l-146 133l-149 -133h-209z" horiz-adv-x="1149" unicode="Ề"/><glyph d="M-104 1671h315l154 -291h-205zM92 516q0 563 504 563q224 0 341.5 -126.5t117.5 -368.5v-127h-697q7 -140 68 -201t192 -61q76 0 133.5 19t100.5 73l192 -137q-63 -91 -163.5 -136t-274.5 -45q-259 0 -386.5 136t-127.5 411zM236 1167l235 299h244l236 -299h-211 l-146 133l-149 -133h-209zM365 635h434q0 239 -209 239q-69 0 -113 -23.5t-70.5 -70t-41.5 -145.5z" horiz-adv-x="1143" unicode="ề"/><glyph d="M150 0v1384h899v-249h-617v-295h520v-250h-520v-332h617v-258h-899zM236 1503l235 299h244l236 -299h-211l-146 133l-149 -133h-209zM731 2001q70 53 197 53q105 0 161 -46t56 -120q0 -69 -47 -116.5t-127 -53.5v-43h-127v137h43q74 0 74 60q0 51 -76 51q-58 0 -96 -25z" horiz-adv-x="1149" unicode="Ể"/><glyph d="M92 516q0 563 504 563q224 0 341.5 -126.5t117.5 -368.5v-127h-697q7 -140 68 -201t192 -61q76 0 133.5 19t100.5 73l192 -137q-63 -91 -163.5 -136t-274.5 -45q-259 0 -386.5 136t-127.5 411zM225 1167l235 299h244l236 -299h-211l-146 133l-149 -133h-209zM365 635h434 q0 239 -209 239q-69 0 -113 -23.5t-70.5 -70t-41.5 -145.5zM720 1665q67 53 197 53q105 0 161 -46t56 -120q0 -69 -47 -116.5t-127 -53.5v-43h-127v138h43q74 0 74 59q0 51 -76 51q-56 0 -96 -24z" horiz-adv-x="1143" unicode="ể"/><glyph d="M150 0v1384h899v-249h-617v-295h520v-250h-520v-332h617v-258h-899zM195 1849q5 136 74 206.5t188 70.5q49 0 91 -15.5t79 -35t69.5 -35t65.5 -15.5q37 0 50 24t18 62h182q-10 -144 -76 -212t-188 -68q-54 0 -96 16.5t-77.5 36t-66.5 35.5t-64 16q-38 0 -50.5 -23.5 t-16.5 -62.5h-182zM246 1503l235 279h244l236 -279h-211l-146 123l-149 -123h-209z" horiz-adv-x="1149" unicode="Ễ"/><glyph d="M92 516q0 563 504 563q224 0 341.5 -126.5t117.5 -368.5v-127h-697q7 -140 68 -201t192 -61q76 0 133.5 19t100.5 73l192 -137q-63 -91 -163.5 -136t-274.5 -45q-259 0 -386.5 136t-127.5 411zM174 1513q5 136 74 206.5t188 70.5q49 0 91 -15.5t79 -35t69.5 -34.5 t65.5 -15q37 0 50 23.5t18 62.5h182q-10 -145 -75.5 -213t-188.5 -68q-54 0 -96 16.5t-77.5 36t-66.5 35.5t-64 16q-38 0 -50.5 -23.5t-16.5 -62.5h-182zM225 1167l235 279h244l236 -279h-211l-146 123l-149 -123h-209zM365 635h434q0 239 -209 239q-69 0 -113 -23.5 t-70.5 -70t-41.5 -145.5z" horiz-adv-x="1143" unicode="ễ"/><glyph d="M150 0v1384h899v-249h-617v-295h520v-250h-520v-332h617v-258h-899zM246 1544l235 361h244l236 -361h-211l-146 174l-149 -174h-209zM451 -248q0 70 31.5 100.5t109.5 30.5t112 -29.5t34 -101.5q0 -74 -36 -102.5t-110 -28.5q-82 0 -111.5 34t-29.5 97z" horiz-adv-x="1149" unicode="Ệ"/><glyph d="M92 516q0 563 504 563q224 0 341.5 -126.5t117.5 -368.5v-127h-697q7 -140 68 -201t192 -61q76 0 133.5 19t100.5 73l192 -137q-63 -91 -163.5 -136t-274.5 -45q-259 0 -386.5 136t-127.5 411zM225 1208l235 361h244l236 -361h-211l-146 174l-149 -174h-209zM365 635h434 q0 239 -209 239q-69 0 -113 -23.5t-70.5 -70t-41.5 -145.5zM440 -248q0 70 31.5 100.5t109.5 30.5t112 -29.5t34 -101.5q0 -74 -36 -102.5t-110 -28.5q-82 0 -111.5 34t-29.5 97z" horiz-adv-x="1143" unicode="ệ"/><glyph d="M102 0v217h193v950h-193v217h668v-217h-192v-950h192v-217h-668zM225 1823q70 53 197 53q104 0 160.5 -46t56.5 -120q0 -69 -47 -116.5t-127 -53.5v-43h-127v137h43q74 0 74 60q0 51 -76 51q-58 0 -96 -25z" horiz-adv-x="872" unicode="Ỉ"/><glyph d="M69 1487q70 53 197 53q104 0 160.5 -46t56.5 -120q0 -69 -47 -116.5t-127 -53.5v-43h-127v137h43q74 0 74 60q0 51 -76 51q-58 0 -96 -25zM145 0v1049h258v-1049h-258z" horiz-adv-x="549" unicode="ỉ"/><glyph d="M102 0v217h193v950h-193v217h668v-217h-192v-950h192v-217h-668zM295 -248q0 70 31.5 100.5t109.5 30.5t112 -29.5t34 -101.5q0 -74 -36 -102.5t-110 -28.5q-82 0 -111.5 34t-29.5 97z" horiz-adv-x="872" unicode="Ị"/><glyph d="M131 1335q0 70 32 100.5t109 30.5q78 0 112 -29.5t34 -101.5q0 -73 -36 -102t-110 -29q-82 0 -111.5 34t-29.5 97zM133 -248q0 70 31.5 100.5t109.5 30.5t112 -29.5t34 -101.5q0 -74 -36 -102.5t-110 -28.5q-82 0 -111.5 34t-29.5 97zM145 0v1049h258v-1049h-258z" horiz-adv-x="549" unicode="ị"/><glyph d="M86 692q0 344 144.5 532.5t451.5 188.5q309 0 452.5 -188.5t143.5 -532.5q0 -361 -152.5 -541t-443.5 -180q-307 0 -451.5 189.5t-144.5 531.5zM377 692q0 -246 70.5 -358.5t234.5 -112.5q166 0 235.5 112.5t69.5 358.5t-69.5 358.5t-235.5 112.5t-235.5 -112.5 t-69.5 -358.5zM539 -248q0 70 31.5 100.5t109.5 30.5t112 -29.5t34 -101.5q0 -74 -36 -102.5t-110 -28.5q-82 0 -111.5 34t-29.5 97z" horiz-adv-x="1364" unicode="Ọ"/><glyph d="M92 522q0 266 121 411.5t383 145.5q260 0 381 -145.5t121 -411.5q0 -262 -121 -407.5t-381 -145.5q-504 0 -504 553zM358 522q0 -168 55.5 -247.5t182.5 -79.5q125 0 180 78.5t55 248.5q0 173 -54 252.5t-181 79.5q-126 0 -182 -81.5t-56 -250.5zM451 -248 q0 70 31.5 100.5t109.5 30.5t112 -29.5t34 -101.5q0 -74 -36 -102.5t-110 -28.5q-82 0 -111.5 34t-29.5 97z" horiz-adv-x="1190" unicode="ọ"/><glyph d="M86 692q0 344 144.5 532.5t451.5 188.5q309 0 452.5 -188.5t143.5 -532.5q0 -361 -152.5 -541t-443.5 -180q-307 0 -451.5 189.5t-144.5 531.5zM377 692q0 -246 70.5 -358.5t234.5 -112.5q166 0 235.5 112.5t69.5 358.5t-69.5 358.5t-235.5 112.5t-235.5 -112.5 t-69.5 -358.5zM454 1823q70 53 197 53q104 0 160.5 -46t56.5 -120q0 -69 -47 -116.5t-127 -53.5v-43h-127v137h43q74 0 74 60q0 51 -76 51q-58 0 -96 -25z" horiz-adv-x="1364" unicode="Ỏ"/><glyph d="M92 522q0 266 121 411.5t383 145.5q260 0 381 -145.5t121 -411.5q0 -262 -121 -407.5t-381 -145.5q-504 0 -504 553zM358 522q0 -168 55.5 -247.5t182.5 -79.5q125 0 180 78.5t55 248.5q0 173 -54 252.5t-181 79.5q-126 0 -182 -81.5t-56 -250.5zM387 1487q70 53 197 53 q104 0 160.5 -46t56.5 -120q0 -69 -47 -116.5t-127 -53.5v-43h-127v137h43q74 0 74 60q0 51 -76 51q-58 0 -96 -25z" horiz-adv-x="1190" unicode="ỏ"/><glyph d="M86 692q0 344 144.5 532.5t451.5 188.5q309 0 452.5 -188.5t143.5 -532.5q0 -361 -152.5 -541t-443.5 -180q-307 0 -451.5 189.5t-144.5 531.5zM318 1503l235 299h244l236 -299h-211l-146 133l-149 -133h-209zM377 692q0 -246 70.5 -358.5t234.5 -112.5 q166 0 235.5 112.5t69.5 358.5t-69.5 358.5t-235.5 112.5t-235.5 -112.5t-69.5 -358.5zM906 1716l153 291h316l-265 -291h-204z" horiz-adv-x="1364" unicode="Ố"/><glyph d="M92 522q0 266 121 411.5t383 145.5q260 0 381 -145.5t121 -411.5q0 -262 -121 -407.5t-381 -145.5q-504 0 -504 553zM236 1167l235 299h244l236 -299h-211l-146 144l-149 -144h-209zM358 522q0 -168 55.5 -247.5t182.5 -79.5q125 0 180 78.5t55 248.5q0 173 -54 252.5 t-181 79.5q-126 0 -182 -81.5t-56 -250.5zM824 1380l153 291h316l-265 -291h-204z" horiz-adv-x="1190" unicode="ố"/><glyph d="M-12 2007h315l154 -291h-205zM86 692q0 344 144.5 532.5t451.5 188.5q309 0 452.5 -188.5t143.5 -532.5q0 -361 -152.5 -541t-443.5 -180q-307 0 -451.5 189.5t-144.5 531.5zM328 1503l235 299h244l236 -299h-211l-146 133l-149 -133h-209zM377 692q0 -246 70.5 -358.5 t234.5 -112.5q166 0 235.5 112.5t69.5 358.5t-69.5 358.5t-235.5 112.5t-235.5 -112.5t-69.5 -358.5z" horiz-adv-x="1364" unicode="Ồ"/><glyph d="M-104 1671h315l154 -291h-205zM92 522q0 266 121 411.5t383 145.5q260 0 381 -145.5t121 -411.5q0 -262 -121 -407.5t-381 -145.5q-504 0 -504 553zM236 1167l235 299h244l236 -299h-211l-146 133l-149 -133h-209zM358 522q0 -168 55.5 -247.5t182.5 -79.5 q125 0 180 78.5t55 248.5q0 173 -54 252.5t-181 79.5q-126 0 -182 -81.5t-56 -250.5z" horiz-adv-x="1190" unicode="ồ"/><glyph d="M86 692q0 344 144.5 532.5t451.5 188.5q309 0 452.5 -188.5t143.5 -532.5q0 -361 -152.5 -541t-443.5 -180q-307 0 -451.5 189.5t-144.5 531.5zM328 1503l235 299h244l236 -299h-211l-146 133l-149 -133h-209zM377 692q0 -246 70.5 -358.5t234.5 -112.5 q166 0 235.5 112.5t69.5 358.5t-69.5 358.5t-235.5 112.5t-235.5 -112.5t-69.5 -358.5zM823 2001q70 53 197 53q105 0 161 -46t56 -120q0 -69 -47 -116.5t-127 -53.5v-43h-127v137h43q74 0 74 60q0 51 -76 51q-58 0 -96 -25z" horiz-adv-x="1364" unicode="Ổ"/><glyph d="M92 522q0 266 121 411.5t383 145.5q260 0 381 -145.5t121 -411.5q0 -262 -121 -407.5t-381 -145.5q-504 0 -504 553zM236 1167l235 299h244l236 -299h-211l-146 133l-149 -133h-209zM358 522q0 -168 55.5 -247.5t182.5 -79.5q125 0 180 78.5t55 248.5q0 173 -54 252.5 t-181 79.5q-126 0 -182 -81.5t-56 -250.5zM731 1665q67 53 197 53q105 0 161 -46t56 -120q0 -69 -47 -116.5t-127 -53.5v-43h-127v138h43q74 0 74 59q0 51 -76 51q-56 0 -96 -24z" horiz-adv-x="1190" unicode="ổ"/><glyph d="M86 692q0 344 144.5 532.5t451.5 188.5q309 0 452.5 -188.5t143.5 -532.5q0 -361 -152.5 -541t-443.5 -180q-307 0 -451.5 189.5t-144.5 531.5zM277 1849q5 136 74 206.5t188 70.5q49 0 91 -15.5t79 -35t69.5 -35t65.5 -15.5q37 0 50 24t18 62h182q-10 -144 -76 -212 t-188 -68q-54 0 -96 16.5t-77.5 36t-66.5 35.5t-64 16q-38 0 -50.5 -23.5t-16.5 -62.5h-182zM328 1503l235 279h244l236 -279h-211l-146 123l-149 -123h-209zM377 692q0 -246 70.5 -358.5t234.5 -112.5q166 0 235.5 112.5t69.5 358.5t-69.5 358.5t-235.5 112.5 t-235.5 -112.5t-69.5 -358.5z" horiz-adv-x="1364" unicode="Ỗ"/><glyph d="M92 522q0 266 121 411.5t383 145.5q260 0 381 -145.5t121 -411.5q0 -262 -121 -407.5t-381 -145.5q-504 0 -504 553zM195 1513q5 136 74 206.5t188 70.5q49 0 91 -15.5t79 -35t69.5 -34.5t65.5 -15q37 0 50 23.5t18 62.5h182q-10 -145 -75.5 -213t-188.5 -68 q-54 0 -96 16.5t-77.5 36t-66.5 35.5t-64 16q-38 0 -50.5 -23.5t-16.5 -62.5h-182zM246 1167l235 279h244l236 -279h-211l-146 123l-149 -123h-209zM358 522q0 -168 55.5 -247.5t182.5 -79.5q125 0 180 78.5t55 248.5q0 173 -54 252.5t-181 79.5q-126 0 -182 -81.5 t-56 -250.5z" horiz-adv-x="1190" unicode="ỗ"/><glyph d="M86 692q0 344 144.5 532.5t451.5 188.5q309 0 452.5 -188.5t143.5 -532.5q0 -361 -152.5 -541t-443.5 -180q-307 0 -451.5 189.5t-144.5 531.5zM318 1544l235 361h244l236 -361h-211l-146 174l-149 -174h-209zM377 692q0 -246 70.5 -358.5t234.5 -112.5 q166 0 235.5 112.5t69.5 358.5t-69.5 358.5t-235.5 112.5t-235.5 -112.5t-69.5 -358.5zM522 -248q0 70 31.5 100.5t109.5 30.5t112 -29.5t34 -101.5q0 -74 -36 -102.5t-110 -28.5q-82 0 -111.5 34t-29.5 97z" horiz-adv-x="1364" unicode="Ộ"/><glyph d="M92 522q0 266 121 411.5t383 145.5q260 0 381 -145.5t121 -411.5q0 -262 -121 -407.5t-381 -145.5q-504 0 -504 553zM246 1208l235 361h244l236 -361h-211l-146 174l-149 -174h-209zM358 522q0 -168 55.5 -247.5t182.5 -79.5q125 0 180 78.5t55 248.5q0 173 -54 252.5 t-181 79.5q-126 0 -182 -81.5t-56 -250.5zM451 -248q0 70 31.5 100.5t109.5 30.5t112 -29.5t34 -101.5q0 -74 -36 -102.5t-110 -28.5q-82 0 -111.5 34t-29.5 97z" horiz-adv-x="1190" unicode="ộ"/><glyph d="M86 692q0 344 144.5 532.5t451.5 188.5q386 0 518 -297h23q86 0 116.5 40t30.5 128v162h211v-162q0 -170 -74.5 -255t-234.5 -85h-17q23 -119 23 -252q0 -361 -152.5 -541t-443.5 -180q-307 0 -451.5 189.5t-144.5 531.5zM377 692q0 -246 70.5 -358.5t234.5 -112.5 q166 0 235.5 112.5t69.5 358.5t-69.5 358.5t-235.5 112.5t-235.5 -112.5t-69.5 -358.5zM512 1544l189 361h315l-299 -361h-205z" horiz-adv-x="1540" unicode="Ớ"/><glyph d="M92 522q0 266 121 411.5t383 145.5q328 0 440 -237q84 0 115 40t31 128v120h211v-120q0 -318 -306 -340q11 -77 11 -148q0 -262 -121 -407.5t-381 -145.5q-504 0 -504 553zM358 522q0 -168 55.5 -247.5t182.5 -79.5q125 0 180 78.5t55 248.5q0 173 -54 252.5t-181 79.5 q-126 0 -182 -81.5t-56 -250.5zM430 1208l189 361h315l-299 -361h-205z" horiz-adv-x="1352" unicode="ớ"/><glyph d="M86 692q0 344 144.5 532.5t451.5 188.5q386 0 518 -297h23q86 0 116.5 40t30.5 128v162h211v-162q0 -170 -74.5 -255t-234.5 -85h-17q23 -119 23 -252q0 -361 -152.5 -541t-443.5 -180q-307 0 -451.5 189.5t-144.5 531.5zM359 1905h315l188 -361h-204zM377 692 q0 -246 70.5 -358.5t234.5 -112.5q166 0 235.5 112.5t69.5 358.5t-69.5 358.5t-235.5 112.5t-235.5 -112.5t-69.5 -358.5z" horiz-adv-x="1540" unicode="Ờ"/><glyph d="M92 522q0 266 121 411.5t383 145.5q328 0 440 -237q84 0 115 40t31 128v120h211v-120q0 -318 -306 -340q11 -77 11 -148q0 -262 -121 -407.5t-381 -145.5q-504 0 -504 553zM277 1569h315l188 -361h-204zM358 522q0 -168 55.5 -247.5t182.5 -79.5q125 0 180 78.5t55 248.5 q0 173 -54 252.5t-181 79.5q-126 0 -182 -81.5t-56 -250.5z" horiz-adv-x="1352" unicode="ờ"/><glyph d="M86 692q0 344 144.5 532.5t451.5 188.5q386 0 518 -297h23q86 0 116.5 40t30.5 128v162h211v-162q0 -170 -74.5 -255t-234.5 -85h-17q23 -119 23 -252q0 -361 -152.5 -541t-443.5 -180q-307 0 -451.5 189.5t-144.5 531.5zM377 692q0 -246 70.5 -358.5t234.5 -112.5 q166 0 235.5 112.5t69.5 358.5t-69.5 358.5t-235.5 112.5t-235.5 -112.5t-69.5 -358.5zM479 1823q70 53 197 53q104 0 160.5 -46t56.5 -120q0 -69 -47 -116.5t-127 -53.5v-43h-127v137h43q74 0 74 60q0 51 -76 51q-58 0 -96 -25z" horiz-adv-x="1540" unicode="Ở"/><glyph d="M92 522q0 266 121 411.5t383 145.5q328 0 440 -237q84 0 115 40t31 128v120h211v-120q0 -318 -306 -340q11 -77 11 -148q0 -262 -121 -407.5t-381 -145.5q-504 0 -504 553zM358 522q0 -168 55.5 -247.5t182.5 -79.5q125 0 180 78.5t55 248.5q0 173 -54 252.5t-181 79.5 q-126 0 -182 -81.5t-56 -250.5zM397 1487q70 53 197 53q104 0 160.5 -46t56.5 -120q0 -69 -47 -116.5t-127 -53.5v-43h-127v137h43q74 0 74 60q0 51 -76 51q-58 0 -96 -25z" horiz-adv-x="1352" unicode="ở"/><glyph d="M86 692q0 344 144.5 532.5t451.5 188.5q386 0 518 -297h23q86 0 116.5 40t30.5 128v162h211v-162q0 -170 -74.5 -255t-234.5 -85h-17q23 -119 23 -252q0 -361 -152.5 -541t-443.5 -180q-307 0 -451.5 189.5t-144.5 531.5zM277 1567q5 155 73 236t189 81q61 0 104 -22.5 t77 -48t62.5 -48t61.5 -22.5q34 0 51 33t17 94h182q-10 -165 -75.5 -243.5t-188.5 -78.5q-66 0 -109 22.5t-75.5 50.5t-59.5 50.5t-60 22.5q-67 0 -67 -127h-182zM377 692q0 -246 70.5 -358.5t234.5 -112.5q166 0 235.5 112.5t69.5 358.5t-69.5 358.5t-235.5 112.5 t-235.5 -112.5t-69.5 -358.5z" horiz-adv-x="1540" unicode="Ỡ"/><glyph d="M92 522q0 266 121 411.5t383 145.5q328 0 440 -237q84 0 115 40t31 128v120h211v-120q0 -318 -306 -340q11 -77 11 -148q0 -262 -121 -407.5t-381 -145.5q-504 0 -504 553zM185 1231q5 155 73 236t189 81q61 0 104 -22.5t77 -48t62.5 -48t61.5 -22.5q35 0 51.5 35 t16.5 92h182q-10 -165 -75.5 -243.5t-188.5 -78.5q-66 0 -109 22.5t-75.5 50.5t-59.5 50.5t-60 22.5q-67 0 -67 -127h-182zM358 522q0 -168 55.5 -247.5t182.5 -79.5q125 0 180 78.5t55 248.5q0 173 -54 252.5t-181 79.5q-126 0 -182 -81.5t-56 -250.5z" horiz-adv-x="1352" unicode="ỡ"/><glyph d="M86 692q0 344 144.5 532.5t451.5 188.5q386 0 518 -297h23q86 0 116.5 40t30.5 128v162h211v-162q0 -170 -74.5 -255t-234.5 -85h-17q23 -119 23 -252q0 -361 -152.5 -541t-443.5 -180q-307 0 -451.5 189.5t-144.5 531.5zM377 692q0 -246 70.5 -358.5t234.5 -112.5 q166 0 235.5 112.5t69.5 358.5t-69.5 358.5t-235.5 112.5t-235.5 -112.5t-69.5 -358.5zM533 -248q0 70 31.5 100.5t109.5 30.5t112 -29.5t34 -101.5q0 -74 -36 -102.5t-110 -28.5q-82 0 -111.5 34t-29.5 97z" horiz-adv-x="1540" unicode="Ợ"/><glyph d="M92 522q0 266 121 411.5t383 145.5q328 0 440 -237q84 0 115 40t31 128v120h211v-120q0 -318 -306 -340q11 -77 11 -148q0 -262 -121 -407.5t-381 -145.5q-504 0 -504 553zM358 522q0 -168 55.5 -247.5t182.5 -79.5q125 0 180 78.5t55 248.5q0 173 -54 252.5t-181 79.5 q-126 0 -182 -81.5t-56 -250.5zM451 -248q0 70 31.5 100.5t109.5 30.5t112 -29.5t34 -101.5q0 -74 -36 -102.5t-110 -28.5q-82 0 -111.5 34t-29.5 97z" horiz-adv-x="1352" unicode="ợ"/><glyph d="M150 578v806h282v-786q0 -141 27 -222t86 -119t172 -38q161 0 225 85.5t64 289.5v790h282v-806q0 -325 -132 -467t-437 -142q-302 0 -435.5 140.5t-133.5 468.5zM576 -248q0 70 31.5 100.5t109.5 30.5t112 -29.5t34 -101.5q0 -74 -36 -102.5t-110 -28.5q-82 0 -111.5 34 t-29.5 97z" horiz-adv-x="1438" unicode="Ụ"/><glyph d="M137 348v701h258v-578q0 -111 13 -170t42.5 -81.5t86.5 -22.5q115 0 276 151v701h258v-1049h-258v135q-68 -73 -166.5 -119.5t-189.5 -46.5q-178 0 -249 98.5t-71 280.5zM420 -248q0 70 31.5 100.5t109.5 30.5t112 -29.5t34 -101.5q0 -74 -36 -102.5t-110 -28.5 q-82 0 -111.5 34t-29.5 97z" horiz-adv-x="1217" unicode="ụ"/><glyph d="M150 578v806h282v-786q0 -141 27 -222t86 -119t172 -38q161 0 225 85.5t64 289.5v790h282v-806q0 -325 -132 -467t-437 -142q-302 0 -435.5 140.5t-133.5 468.5zM510 1823q70 53 197 53q104 0 160.5 -46t56.5 -120q0 -69 -47 -116.5t-127 -53.5v-43h-127v137h43 q74 0 74 60q0 51 -76 51q-58 0 -96 -25z" horiz-adv-x="1438" unicode="Ủ"/><glyph d="M137 348v701h258v-578q0 -111 13 -170t42.5 -81.5t86.5 -22.5q115 0 276 151v701h258v-1049h-258v135q-68 -73 -166.5 -119.5t-189.5 -46.5q-178 0 -249 98.5t-71 280.5zM401 1487q70 53 197 53q104 0 160.5 -46t56.5 -120q0 -69 -47 -116.5t-127 -53.5v-43h-127v137h43 q74 0 74 60q0 51 -76 51q-58 0 -96 -25z" horiz-adv-x="1217" unicode="ủ"/><glyph d="M150 578v806h282v-786q0 -141 27 -222t86 -119t172 -38q161 0 225 85.5t64 289.5v790h282v-268h17q86 0 116.5 40t30.5 128v162h211v-162q0 -340 -346 -340h-29v-366q0 -325 -132 -467t-437 -142q-302 0 -435.5 140.5t-133.5 468.5zM553 1544l189 361h315l-299 -361h-205 z" horiz-adv-x="1622" unicode="Ứ"/><glyph d="M137 348v701h258v-578q0 -111 13 -170t42.5 -81.5t86.5 -22.5q115 0 276 151v701h258v-207h12q84 0 113 40t29 128v120h211v-120q0 -340 -340 -340h-25v-670h-258v135q-68 -73 -166.5 -119.5t-189.5 -46.5q-178 0 -249 98.5t-71 280.5zM440 1208l189 361h315l-299 -361 h-205z" horiz-adv-x="1395" unicode="ứ"/><glyph d="M150 578v806h282v-786q0 -141 27 -222t86 -119t172 -38q161 0 225 85.5t64 289.5v790h282v-268h17q86 0 116.5 40t30.5 128v162h211v-162q0 -340 -346 -340h-29v-366q0 -325 -132 -467t-437 -142q-302 0 -435.5 140.5t-133.5 468.5zM379 1905h315l188 -361h-204z" horiz-adv-x="1622" unicode="Ừ"/><glyph d="M137 348v701h258v-578q0 -111 13 -170t42.5 -81.5t86.5 -22.5q115 0 276 151v701h258v-207h12q84 0 113 40t29 128v120h211v-120q0 -340 -340 -340h-25v-670h-258v135q-68 -73 -166.5 -119.5t-189.5 -46.5q-178 0 -249 98.5t-71 280.5zM256 1569h315l188 -361h-204z" horiz-adv-x="1395" unicode="ừ"/><glyph d="M150 578v806h282v-786q0 -141 27 -222t86 -119t172 -38q161 0 225 85.5t64 289.5v790h282v-268h17q86 0 116.5 40t30.5 128v162h211v-162q0 -340 -346 -340h-29v-366q0 -325 -132 -467t-437 -142q-302 0 -435.5 140.5t-133.5 468.5zM514 1823q70 53 197 53 q104 0 160.5 -46t56.5 -120q0 -69 -47 -116.5t-127 -53.5v-43h-127v137h43q74 0 74 60q0 51 -76 51q-58 0 -96 -25z" horiz-adv-x="1622" unicode="Ử"/><glyph d="M137 348v701h258v-578q0 -111 13 -170t42.5 -81.5t86.5 -22.5q115 0 276 151v701h258v-207h12q84 0 113 40t29 128v120h211v-120q0 -340 -340 -340h-25v-670h-258v135q-68 -73 -166.5 -119.5t-189.5 -46.5q-178 0 -249 98.5t-71 280.5zM397 1487q70 53 197 53 q104 0 160.5 -46t56.5 -120q0 -69 -47 -116.5t-127 -53.5v-43h-127v137h43q74 0 74 60q0 51 -76 51q-58 0 -96 -25z" horiz-adv-x="1395" unicode="ử"/><glyph d="M150 578v806h282v-786q0 -141 27 -222t86 -119t172 -38q161 0 225 85.5t64 289.5v790h282v-268h17q86 0 116.5 40t30.5 128v162h211v-162q0 -340 -346 -340h-29v-366q0 -325 -132 -467t-437 -142q-302 0 -435.5 140.5t-133.5 468.5zM312 1567q5 155 73 236t189 81 q61 0 104 -22.5t77 -48t62.5 -48t61.5 -22.5q34 0 51 33t17 94h182q-10 -165 -75.5 -243.5t-188.5 -78.5q-66 0 -109 22.5t-75.5 50.5t-59.5 50.5t-60 22.5q-67 0 -67 -127h-182z" horiz-adv-x="1622" unicode="Ữ"/><glyph d="M137 348v701h258v-578q0 -111 13 -170t42.5 -81.5t86.5 -22.5q115 0 276 151v701h258v-207h12q84 0 113 40t29 128v120h211v-120q0 -340 -340 -340h-25v-670h-258v135q-68 -73 -166.5 -119.5t-189.5 -46.5q-178 0 -249 98.5t-71 280.5zM195 1231q5 155 73 236t189 81 q61 0 104 -22.5t77 -48t62.5 -48t61.5 -22.5q35 0 51.5 35t16.5 92h182q-10 -165 -75.5 -243.5t-188.5 -78.5q-66 0 -109 22.5t-75.5 50.5t-59.5 50.5t-60 22.5q-67 0 -67 -127h-182z" horiz-adv-x="1395" unicode="ữ"/><glyph d="M150 578v806h282v-786q0 -141 27 -222t86 -119t172 -38q161 0 225 85.5t64 289.5v790h282v-268h17q86 0 116.5 40t30.5 128v162h211v-162q0 -340 -346 -340h-29v-366q0 -325 -132 -467t-437 -142q-302 0 -435.5 140.5t-133.5 468.5zM563 -248q0 70 31.5 100.5t109.5 30.5 t112 -29.5t34 -101.5q0 -74 -36 -102.5t-110 -28.5q-82 0 -111.5 34t-29.5 97z" horiz-adv-x="1622" unicode="Ự"/><glyph d="M137 348v701h258v-578q0 -111 13 -170t42.5 -81.5t86.5 -22.5q115 0 276 151v701h258v-207h12q84 0 113 40t29 128v120h211v-120q0 -340 -340 -340h-25v-670h-258v135q-68 -73 -166.5 -119.5t-189.5 -46.5q-178 0 -249 98.5t-71 280.5zM420 -248q0 70 31.5 100.5 t109.5 30.5t112 -29.5t34 -101.5q0 -74 -36 -102.5t-110 -28.5q-82 0 -111.5 34t-29.5 97z" horiz-adv-x="1395" unicode="ự"/><glyph d="M18 1384h308l270 -579l276 579h297l-434 -856v-528h-284v522zM261 1905h315l188 -361h-204z" horiz-adv-x="1188" unicode="Ỳ"/><glyph d="M-20 -365l55 224q84 -29 151 -29q58 0 102 35t91 145l27 62l-379 977h268l248 -670l254 670h262l-451 -1121q-55 -135 -107 -200t-121.5 -94t-174.5 -29q-114 0 -225 30zM191 1569h315l188 -361h-204z" horiz-adv-x="1085" unicode="ỳ"/><glyph d="M18 1384h308l270 -579l276 579h297l-434 -856v-528h-284v522zM451 -248q0 70 31.5 100.5t109.5 30.5t112 -29.5t34 -101.5q0 -74 -36 -102.5t-110 -28.5q-82 0 -111.5 34t-29.5 97z" horiz-adv-x="1188" unicode="Ỵ"/><glyph d="M-20 -365l55 224q84 -29 151 -29q58 0 102 35t91 145l27 62l-379 977h268l248 -670l254 670h262l-451 -1121q-55 -135 -107 -200t-121.5 -94t-174.5 -29q-114 0 -225 30zM655 -248q0 70 31.5 100.5t109.5 30.5t112 -29.5t34 -101.5q0 -74 -36 -102.5t-110 -28.5 q-82 0 -111.5 34t-29.5 97z" horiz-adv-x="1085" unicode="ỵ"/><glyph d="M18 1384h308l270 -579l276 579h297l-434 -856v-528h-284v522zM387 1823q70 53 197 53q104 0 160.5 -46t56.5 -120q0 -69 -47 -116.5t-127 -53.5v-43h-127v137h43q74 0 74 60q0 51 -76 51q-58 0 -96 -25z" horiz-adv-x="1188" unicode="Ỷ"/><glyph d="M-20 -365l55 224q84 -29 151 -29q58 0 102 35t91 145l27 62l-379 977h268l248 -670l254 670h262l-451 -1121q-55 -135 -107 -200t-121.5 -94t-174.5 -29q-114 0 -225 30zM335 1487q70 53 197 53q104 0 160.5 -46t56.5 -120q0 -69 -47 -116.5t-127 -53.5v-43h-127v137h43 q74 0 74 60q0 51 -76 51q-58 0 -96 -25z" horiz-adv-x="1085" unicode="ỷ"/><glyph d="M18 1384h308l270 -579l276 579h297l-434 -856v-528h-284v522zM189 1567q5 155 73 236t189 81q61 0 104 -22.5t77 -48t62.5 -48t61.5 -22.5q34 0 51 33t17 94h182q-10 -165 -75.5 -243.5t-188.5 -78.5q-66 0 -109 22.5t-75.5 50.5t-59.5 50.5t-60 22.5q-67 0 -67 -127 h-182z" horiz-adv-x="1188" unicode="Ỹ"/><glyph d="M-20 -365l55 224q84 -29 151 -29q58 0 102 35t91 145l27 62l-379 977h268l248 -670l254 670h262l-451 -1121q-55 -135 -107 -200t-121.5 -94t-174.5 -29q-114 0 -225 30zM133 1231q5 155 73 236t189 81q61 0 104 -22.5t77 -48t62.5 -48t61.5 -22.5q35 0 51.5 35t16.5 92 h182q-10 -165 -75.5 -243.5t-188.5 -78.5q-66 0 -109 22.5t-75.5 50.5t-59.5 50.5t-60 22.5q-67 0 -67 -127h-182z" horiz-adv-x="1085" unicode="ỹ"/><glyph horiz-adv-x="1103"/><glyph horiz-adv-x="2206"/><glyph horiz-adv-x="1103"/><glyph horiz-adv-x="2206"/><glyph horiz-adv-x="735"/><glyph horiz-adv-x="551"/><glyph horiz-adv-x="367"/><glyph horiz-adv-x="367"/><glyph horiz-adv-x="275"/><glyph horiz-adv-x="441"/><glyph horiz-adv-x="122"/><glyph d="M82 399v254h623v-254h-623z" horiz-adv-x="786" unicode="‐"/><glyph d="M82 399v254h623v-254h-623z" horiz-adv-x="786" unicode="‑"/><glyph d="M82 399v254h623v-254h-623z" horiz-adv-x="786" unicode="‒"/><glyph d="M31 424v205h983v-205h-983z" unicode="–"/><glyph d="M31 424v205h2007v-205h-2007z" horiz-adv-x="2068" unicode="—"/><glyph d="M31 424v205h2007v-205h-2007z" horiz-adv-x="2068" unicode="―"/><glyph d="M-10 -105h1044v-102h-1044v102zM-10 -290h1044v-102h-1044v102z" horiz-adv-x="1024" unicode="‗"/><glyph d="M129 967q0 123 42 234.5t91 182.5h193q-62 -86 -91.5 -164.5t-33.5 -117.5q65 -4 95 -42t30 -114q0 -74 -35 -117t-131 -43q-160 0 -160 181z" horiz-adv-x="584" unicode="‘"/><glyph d="M129 815q61 86 91 165t34 118q-66 4 -95.5 42t-29.5 113q0 74 35 117t131 43q160 0 160 -180q0 -123 -42 -234.5t-91 -183.5h-193z" horiz-adv-x="584" unicode="’"/><glyph d="M129 145q0 74 35 117t131 43q160 0 160 -180q0 -123 -42 -234.5t-91 -183.5h-193q61 86 91 165t34 118q-66 4 -95.5 42t-29.5 113z" horiz-adv-x="584" unicode="‚"/><glyph d="M129 1233q0 180 160 180q96 0 131 -43t35 -117q0 -75 -30 -113t-95 -42q4 -39 33.5 -118t91.5 -165h-193q-49 72 -91 183.5t-42 234.5z" horiz-adv-x="584" unicode="‛"/><glyph d="M129 967q0 123 42 234.5t91 182.5h193q-62 -86 -91.5 -164.5t-33.5 -117.5q65 -4 95 -42t30 -114q0 -74 -35 -117t-131 -43q-160 0 -160 181zM592 967q0 123 42 234.5t91 182.5h193q-62 -86 -91.5 -164.5t-33.5 -117.5q65 -4 95 -42t30 -114q0 -74 -35 -117t-131 -43 q-160 0 -160 181z" horiz-adv-x="1047" unicode="“"/><glyph d="M129 815q61 86 91 165t34 118q-66 4 -95.5 42t-29.5 113q0 74 35 117t131 43q160 0 160 -180q0 -123 -42 -234.5t-91 -183.5h-193zM592 815q61 86 91 165t34 118q-66 4 -95.5 42t-29.5 113q0 74 35 117t131 43q160 0 160 -180q0 -123 -42 -234.5t-92 -183.5h-192z" horiz-adv-x="1047" unicode="”"/><glyph d="M129 145q0 74 35 117t131 43q160 0 160 -180q0 -123 -42 -234.5t-91 -183.5h-193q61 86 91 165t34 118q-66 4 -95.5 42t-29.5 113zM592 145q0 74 35 117t131 43q160 0 160 -180q0 -123 -42 -234.5t-92 -183.5h-192q61 86 91 165t34 118q-66 4 -95.5 42t-29.5 113z" horiz-adv-x="1047" unicode="„"/><glyph d="M59 797v241l396 -22l-27 504h252l-27 -504l398 22v-241l-398 24l31 -1216h-260l31 1216z" horiz-adv-x="1110" unicode="†"/><glyph d="M59 37v242l377 -25l-16 309l16 307l-377 -24v241l377 -22l-26 455h256l-27 -455l377 22v-241l-377 24l16 -311l-16 -305l377 25v-242l-377 22l27 -454h-256l26 454z" horiz-adv-x="1075" unicode="‡"/><glyph d="M92 745q0 78 38.5 145t106.5 105.5t144 38.5q115 0 201 -83t86 -206q0 -118 -84 -202t-203 -84q-76 0 -143 37.5t-106.5 104.5t-39.5 144z" horiz-adv-x="760" unicode="•"/><glyph d="M188 145q0 82 36 121t126 39q92 0 128 -38t36 -122q0 -86 -39 -122.5t-125 -36.5q-94 0 -128 41t-34 118zM870 145q0 82 36 121t126 39q92 0 128 -38t36 -122q0 -86 -39 -122.5t-125 -36.5q-94 0 -128 41t-34 118zM1552 145q0 82 36 121t126 39q92 0 128 -38t36 -122 q0 -86 -39 -122.5t-125 -36.5q-94 0 -128 41t-34 118z" horiz-adv-x="2068" unicode="…"/><glyph horiz-adv-x="441"/><glyph d="M80 963q0 220 95 335t280 115q182 0 279 -111t97 -339q0 -224 -99.5 -334.5t-276.5 -110.5q-180 0 -277.5 114t-97.5 331zM326 963q0 -152 31.5 -208.5t97.5 -56.5q72 0 101.5 60.5t29.5 204.5q0 141 -28 205.5t-103 64.5q-70 0 -99.5 -61t-29.5 -209zM545 -51l751 1487 h238l-754 -1487h-235zM1241 414q0 219 94.5 334.5t280.5 115.5t281.5 -113t95.5 -337q0 -222 -98.5 -333.5t-278.5 -111.5t-277.5 114t-97.5 331zM1487 414q0 -152 31.5 -208t97.5 -56q71 0 101 57.5t30 206.5q0 101 -12.5 159t-39 84.5t-79.5 26.5q-70 0 -99.5 -61 t-29.5 -209zM2132 414q0 219 94.5 334.5t280.5 115.5t281.5 -113t95.5 -337q0 -222 -98.5 -333.5t-278.5 -111.5t-277.5 114t-97.5 331zM2378 414q0 -152 31.5 -208t97.5 -56q73 0 102 60.5t29 203.5q0 99 -13 158.5t-39 85.5t-79 26q-70 0 -99.5 -61t-29.5 -209z" horiz-adv-x="2963" unicode="‰"/><glyph d="M131 772l37 612h274l-127 -612h-184z" horiz-adv-x="549" unicode="′"/><glyph d="M131 772l37 612h274l-127 -612h-184zM618 772l37 612h274l-127 -612h-184z" horiz-adv-x="1036" unicode="″"/><glyph d="M61 524l420 471h299l-420 -471l420 -471h-299z" horiz-adv-x="862" unicode="‹"/><glyph d="M82 53l420 471l-420 471h299l420 -471l-420 -471h-299z" horiz-adv-x="862" unicode="›"/><glyph d="M129 139q0 82 36 118t126 36q92 0 128 -35t36 -119q0 -86 -39 -119.5t-125 -33.5q-94 0 -128 37.5t-34 115.5zM152 1384h280l-31 -944h-215zM713 139q0 82 36 118t126 36q92 0 128 -35t36 -119q0 -86 -39 -119.5t-125 -33.5q-94 0 -128 37.5t-34 115.5zM736 1384h280 l-31 -944h-215z" horiz-adv-x="1167" unicode="‼"/><glyph d="M35 1270q69 123 184 186.5t291 63.5q238 0 363.5 -103.5t125.5 -292.5q0 -105 -39 -185t-111.5 -145t-244.5 -155v-199h-272l-17 756q-26 -29 -47 -66zM309 139q0 82 36 118t126 36q92 0 128 -36t36 -118q0 -86 -39 -119.5t-125 -33.5q-94 0 -128 37.5t-34 115.5z M569 895q140 96 140 217q0 132 -127 160z" horiz-adv-x="1071" unicode="‽"/><glyph d="M-10 1526v102h1044v-102h-1044z" horiz-adv-x="1024" unicode="‾"/><glyph d="M-397 -51l747 1489h238l-750 -1489h-235z" horiz-adv-x="211" unicode="⁄"/><glyph horiz-adv-x="551"/><glyph d="M70 1075q0 230 96 337.5t303 107.5q205 0 302 -107.5t97 -337.5q0 -229 -97 -336.5t-302 -107.5q-207 0 -303 107.5t-96 336.5zM328 1075q0 -127 33.5 -185.5t105.5 -58.5t107.5 58.5t35.5 185.5t-35.5 185.5t-107.5 58.5t-105.5 -58.5t-33.5 -185.5z" horiz-adv-x="938" unicode="⁰"/><glyph d="M45 807v166l492 530h227v-524h115v-172h-115v-160h-232v160h-487zM276 979h256v276z" horiz-adv-x="938" unicode="⁴"/><glyph d="M45 801l207 114q61 -90 170 -90q70 0 114 29t44 88q0 47 -34 74.5t-122 27.5q-85 0 -135 -53h-176l63 512h606v-188h-399l-16 -107q62 17 143 17q155 0 242.5 -78.5t87.5 -208.5q0 -143 -107.5 -225t-308.5 -82q-239 0 -379 170z" horiz-adv-x="938" unicode="⁵"/><glyph d="M90 1044q0 229 114 352.5t320 123.5q191 0 316 -80l-121 -154q-84 62 -193 62q-90 0 -132 -49.5t-52 -118.5q84 39 197 39q147 0 232 -71t85 -222q0 -140 -102.5 -217.5t-280.5 -77.5t-280.5 106.5t-102.5 306.5zM336 1018q0 -123 40 -171t111 -48q127 0 127 125 q0 63 -35.5 99t-93.5 36q-41 0 -84 -12.5t-65 -28.5z" horiz-adv-x="938" unicode="⁶"/><glyph d="M70 1315v188h768v-139l-365 -717h-287l381 668h-497z" horiz-adv-x="938" unicode="⁷"/><glyph d="M84 893q0 61 38 114.5t114 88.5q-58 24 -92.5 71t-34.5 107q0 119 94 182.5t266 63.5q166 0 262 -60.5t96 -183.5q0 -119 -131 -182q88 -39 122 -85t34 -116q0 -125 -100.5 -193.5t-282.5 -68.5q-184 0 -284.5 65.5t-100.5 196.5zM324 893q0 -39 33.5 -64.5t111.5 -25.5 t110.5 27.5t32.5 68.5q0 33 -29.5 62.5t-113.5 54.5q-86 -25 -115.5 -53.5t-29.5 -69.5zM338 1272q0 -35 24.5 -58.5t108.5 -44.5q72 19 99.5 42.5t27.5 56.5q-5 80 -133 80q-72 0 -99.5 -24t-27.5 -52z" horiz-adv-x="938" unicode="⁸"/><glyph d="M80 1225q0 139 102.5 217t280.5 78t280.5 -106.5t102.5 -307.5q0 -228 -113.5 -351.5t-320.5 -123.5q-191 0 -316 80l121 153q83 -61 193 -61q90 0 132 49t52 119q-80 -39 -197 -39q-147 0 -232 70.5t-85 222.5zM322 1227q0 -64 35.5 -99.5t93.5 -35.5q41 0 84 12t65 29 q0 122 -40 170.5t-111 48.5q-127 0 -127 -125z" horiz-adv-x="938" unicode="⁹"/><glyph d="M123 649v668h184v-80q41 41 106.5 70.5t131.5 29.5q121 0 168 -61.5t47 -173.5v-453h-180v373q0 96 -19.5 132t-75.5 36q-75 0 -178 -92v-449h-184z" horiz-adv-x="874" unicode="ⁿ"/><glyph d="M70 121q0 230 96 337.5t303 107.5q205 0 302 -107.5t97 -337.5q0 -229 -97 -336.5t-302 -107.5q-207 0 -303 107.5t-96 336.5zM328 121q0 -127 33.5 -185.5t105.5 -58.5t107.5 58.5t35.5 185.5t-35.5 185.5t-107.5 58.5t-105.5 -58.5t-33.5 -185.5z" horiz-adv-x="938" unicode="₀"/><glyph d="M170 246v152q97 3 150 17t82 43t49 91h200v-856h-252v553h-229z" horiz-adv-x="938" unicode="₁"/><glyph d="M76 394q133 172 377 172q180 0 262 -71t82 -179q0 -60 -16 -107.5t-52.5 -92.5t-130.5 -115t-166 -111h397v-197h-737v182l108 78q228 160 283.5 217t55.5 113q0 78 -97 78q-101 0 -170 -88z" horiz-adv-x="938" unicode="₂"/><glyph d="M59 -153l199 102q64 -88 164 -88q72 0 98.5 32t26.5 66q0 91 -141 91h-115v176h102q92 0 124 22.5t32 63.5q0 28 -27.5 48.5t-85.5 20.5q-103 0 -168 -78l-182 107q61 74 143 115t224 41q172 0 255 -67t83 -159q0 -71 -38 -116t-124 -74q92 -23 134 -77t42 -126 q0 -137 -102.5 -203.5t-282.5 -66.5q-127 0 -221.5 49t-139.5 121z" horiz-adv-x="938" unicode="₃"/><glyph d="M45 19l492 530h227v-524h115v-172h-115v-160h-232v160h-487v166zM276 25h256v276z" horiz-adv-x="938" unicode="₄"/><glyph d="M45 -153l207 114q61 -90 170 -90q70 0 114 29t44 88q0 47 -34 74.5t-122 27.5q-85 0 -135 -53h-176l63 512h606v-188h-399l-16 -107q62 17 143 17q155 0 242.5 -78.5t87.5 -208.5q0 -143 -107.5 -225t-308.5 -82q-239 0 -379 170z" horiz-adv-x="938" unicode="₅"/><glyph d="M90 90q0 229 114 352.5t320 123.5q191 0 316 -80l-121 -154q-84 62 -193 62q-90 0 -132 -49.5t-52 -118.5q84 39 197 39q147 0 232 -71t85 -222q0 -140 -102.5 -217.5t-280.5 -77.5t-280.5 106.5t-102.5 306.5zM336 64q0 -123 40 -171t111 -48q127 0 127 125 q0 63 -35.5 99t-93.5 36q-41 0 -84 -12.5t-65 -28.5z" horiz-adv-x="938" unicode="₆"/><glyph d="M70 361v188h768v-139l-365 -717h-287l381 668h-497z" horiz-adv-x="938" unicode="₇"/><glyph d="M84 -61q0 61 38 114.5t114 88.5q-58 24 -92.5 71t-34.5 107q0 119 94 182.5t266 63.5q166 0 262 -60.5t96 -183.5q0 -119 -131 -182q88 -39 122 -85t34 -116q0 -125 -100.5 -193.5t-282.5 -68.5q-184 0 -284.5 65.5t-100.5 196.5zM324 -61q0 -39 33.5 -64.5t111.5 -25.5 t110.5 27.5t32.5 68.5q0 33 -29.5 62.5t-113.5 54.5q-86 -25 -115.5 -53.5t-29.5 -69.5zM338 318q0 -35 24.5 -58.5t108.5 -44.5q72 19 99.5 42.5t27.5 56.5q-5 80 -133 80q-72 0 -99.5 -24t-27.5 -52z" horiz-adv-x="938" unicode="₈"/><glyph d="M80 271q0 139 102.5 217t280.5 78t280.5 -106.5t102.5 -307.5q0 -228 -113.5 -351.5t-320.5 -123.5q-191 0 -316 80l121 153q83 -61 193 -61q90 0 132 49t52 119q-80 -39 -197 -39q-147 0 -232 70.5t-85 222.5zM322 273q0 -64 35.5 -99.5t93.5 -35.5q41 0 84 12t65 29 q0 122 -40 170.5t-111 48.5q-127 0 -127 -125z" horiz-adv-x="938" unicode="₉"/><glyph d="M92 174v188h148v1022h890v-258h-608v-299h510v-249h-510v-216h377v-188h-377v-174h-282v174h-148z" horiz-adv-x="1280" unicode="₣"/><glyph d="M100 0v213q76 16 118 73.5t56 135.5h-165v170h167q0 62 -18 110h-149v170h112q-12 62 -12 154q0 187 135 287t367 100q176 0 296.5 -61.5t184.5 -167.5l-217 -131q-41 65 -111.5 104t-152.5 39q-119 0 -176.5 -54.5t-57.5 -144.5q0 -57 10 -125h428v-170h-391 q17 -76 17 -110h374v-170h-387q-16 -57 -45.5 -105.5t-58.5 -76.5h784v-240h-1108z" horiz-adv-x="1280" unicode="₤"/><glyph d="M150 0v1384h479q205 0 326.5 -78.5t154.5 -256.5h139v292h258v-292h224v-205h-224v-494q0 -98 26 -133t73 -35q60 0 118 29l37 -211q-91 -31 -200 -31q-166 0 -239 82t-73 266v527h-131q-16 -211 -135 -313.5t-362 -102.5h-189v-428h-282zM432 674h74q155 0 214.5 21.5 t84 72.5t24.5 150q0 121 -67 171t-230 50h-100v-465zM1769 152l193 135q47 -64 108.5 -85.5t131.5 -21.5q184 0 184 107q0 47 -52.5 72.5t-162.5 52.5q-209 46 -294 130.5t-85 217.5q0 139 106.5 229t313.5 90q141 0 248.5 -45t165.5 -135l-193 -137q-70 106 -225 106 q-80 0 -121 -27.5t-41 -70.5q0 -41 37 -65.5t145 -51.5q180 -44 256 -87t116 -108t40 -159q0 -104 -52 -177.5t-149.5 -113t-220.5 -39.5q-328 0 -449 183z" horiz-adv-x="2720" unicode="₧"/><glyph d="M92 479q0 249 116.5 387t323.5 138q74 0 152 -31t129 -78v207h-278v184h278v98h258v-98h135v-184h-135v-1102h-237v102q-72 -61 -152 -97t-182 -36q-198 0 -303 132.5t-105 377.5zM133 -121h938v-184h-938v184zM358 483q0 -134 53 -210t158 -76q64 0 130.5 29.5 t113.5 72.5v383q-41 37 -101.5 65.5t-123.5 28.5q-104 0 -167 -79.5t-63 -213.5z" horiz-adv-x="1217" unicode="₫"/><glyph d="M20 444l39 191h58v119h-97l43 190h76q96 469 592 469q197 0 321 -68.5t189 -179.5l-201 -161q-53 78 -90.5 107.5t-85.5 44.5t-116 15q-132 0 -206.5 -55t-107.5 -172h522l-43 -190h-505v-119h487l-39 -191h-424q35 -127 110.5 -179t205.5 -52q92 0 162 40t143 146 l209 -149q-80 -118 -149 -174t-157 -80.5t-215 -24.5q-505 0 -602 473h-119z" horiz-adv-x="1280" unicode="€"/><glyph d="M139 881l107 190h403q-38 125 -172 125h-338l107 188h913l-106 -188h-191q37 -59 53 -125h244l-106 -190h-129q-23 -146 -125.5 -241t-263.5 -112l393 -528h-299l-383 528v228h192q103 0 151 32.5t64 92.5h-514z" horiz-adv-x="1280" unicode="₹"/><glyph d="M123 481v187l176 63v146l-176 -64v188l176 64v319h258v-237l256 92v-186l-256 -95v-145l256 94v-186l-256 -94v-404h4q102 0 179.5 49t119 141t41.5 228h256q0 -317 -160.5 -493.5t-488.5 -176.5q-113 0 -209 29v545z" horiz-adv-x="1280" unicode="₺"/><glyph d="M74 1149q0 170 82 269.5t266 99.5q180 0 274 -140l-137 -86q-49 78 -135 78q-85 0 -122.5 -53.5t-37.5 -167.5q0 -118 42 -168.5t126 -50.5q71 0 148 53l96 -129q-111 -72 -254 -72q-186 0 -267 99.5t-81 267.5zM473 -31l741 1520h232l-741 -1520h-232zM1178 334 q0 187 88 276.5t252 89.5q161 0 249 -89t88 -277q0 -186 -89 -275.5t-248 -89.5q-162 0 -251 89.5t-89 275.5zM1372 334q0 -113 37 -162t109 -49q71 0 107 49t36 162q0 117 -36 165t-107 48q-72 0 -109 -48t-37 -165z" horiz-adv-x="1929" unicode="℅"/><glyph d="M137 465l191 182v406q0 204 85 321t244 117q78 0 134 -34t85 -92t29 -130q0 -96 -34 -187.5t-98.5 -184.5t-190.5 -228v-277q0 -196 129 -196q51 0 93 28.5t70 55.5l78 -148q-51 -45 -133 -88t-184 -43q-148 0 -227.5 94t-79.5 261v127l-92 -91zM582 842 q88 108 125.5 193t37.5 165q0 41 -17 68.5t-52 27.5q-94 0 -94 -190v-264z" horiz-adv-x="1090" unicode="ℓ"/><glyph d="M143 0v1384h349l579 -942v942h270v-1384h-315l-612 1008v-1008h-271zM1505 872q0 206 99.5 307t283.5 101q186 0 283.5 -103.5t97.5 -304.5q0 -196 -97.5 -299.5t-283.5 -103.5q-184 0 -283.5 100.5t-99.5 302.5zM1538 0v233h698v-233h-698zM1743 872q0 -116 37 -166.5 t108 -50.5q142 0 142 217q0 222 -142 222q-71 0 -108 -51.5t-37 -170.5z" horiz-adv-x="2402" unicode="№"/><glyph d="M43 1208v176h639v-176h-219v-538h-199v538h-221zM836 670v714h215l149 -303l152 303h215v-714h-193v391l-117 -232h-110l-119 234v-393h-192z" horiz-adv-x="1692" unicode="™"/><glyph d="M86 807q0 182 69.5 319.5t202 212t324.5 74.5q289 0 444.5 -157.5t155.5 -448.5q0 -204 -58 -333t-194 -193v-31h242v-250h-490v401q107 16 156 115t49 291q0 168 -75.5 262t-229.5 94q-149 0 -227 -89t-78 -265q0 -139 18.5 -220.5t58.5 -125t128 -62.5v-401h-486v250 h248v31q-102 35 -155 94t-78 162t-25 270z" horiz-adv-x="1368" unicode="Ω"/><glyph d="M96 625q0 183 76 330.5t216.5 232t318.5 84.5q177 0 317 -83t217 -230.5t80 -335.5h-959v-430q144 -140 340 -140q168 0 276.5 79t186.5 206l74 -47q-108 -165 -233.5 -240.5t-303.5 -75.5q-175 0 -314 85.5t-215.5 236t-76.5 328.5zM362 702h687v353q-66 63 -156 102 t-188 39q-206 0 -343 -139v-355z" horiz-adv-x="1417" unicode="℮"/><glyph d="M96 1085v152q97 3 150 17t82 43t49 91h200v-856h-252v553h-229zM504 -51l747 1489h238l-750 -1489h-235zM1241 246q0 61 38 114.5t114 88.5q-58 24 -92.5 71t-34.5 107q0 119 94 182.5t266 63.5q166 0 262 -60.5t96 -183.5q0 -119 -131 -182q88 -39 122 -85t34 -116 q0 -125 -100.5 -193.5t-282.5 -68.5q-184 0 -284.5 65.5t-100.5 196.5zM1481 246q0 -39 33.5 -64.5t111.5 -25.5t110.5 27.5t32.5 68.5q0 33 -29.5 62.5t-113.5 54.5q-86 -25 -115.5 -53.5t-29.5 -69.5zM1495 625q0 -35 24.5 -58.5t108.5 -44.5q72 19 99.5 42.5t27.5 56.5 q-5 80 -133 80q-72 0 -99.5 -24t-27.5 -52z" horiz-adv-x="2095" unicode="⅛"/><glyph d="M59 686l199 102q64 -88 164 -88q72 0 98.5 32t26.5 66q0 91 -141 91h-115v176h102q92 0 124 22.5t32 63.5q0 28 -27.5 48.5t-85.5 20.5q-103 0 -168 -78l-182 107q61 74 143 115t224 41q172 0 255 -67t83 -159q0 -71 -38 -116t-124 -74q92 -23 134 -77t42 -126 q0 -137 -102.5 -203.5t-282.5 -66.5q-127 0 -221.5 49t-139.5 121zM543 -51l747 1489h238l-750 -1489h-235zM1241 246q0 61 38 114.5t114 88.5q-58 24 -92.5 71t-34.5 107q0 119 94 182.5t266 63.5q166 0 262 -60.5t96 -183.5q0 -119 -131 -182q88 -39 122 -85t34 -116 q0 -125 -100.5 -193.5t-282.5 -68.5q-184 0 -284.5 65.5t-100.5 196.5zM1481 246q0 -39 33.5 -64.5t111.5 -25.5t110.5 27.5t32.5 68.5q0 33 -29.5 62.5t-113.5 54.5q-86 -25 -115.5 -53.5t-29.5 -69.5zM1495 625q0 -35 24.5 -58.5t108.5 -44.5q72 19 99.5 42.5t27.5 56.5 q-5 80 -133 80q-72 0 -99.5 -24t-27.5 -52z" horiz-adv-x="2095" unicode="⅜"/><glyph d="M45 686l207 114q61 -90 170 -90q70 0 114 29t44 88q0 47 -34 74.5t-122 27.5q-85 0 -135 -53h-176l63 512h606v-188h-399l-16 -107q62 17 143 17q155 0 242.5 -78.5t87.5 -208.5q0 -143 -107.5 -225t-308.5 -82q-239 0 -379 170zM551 -51l747 1489h238l-750 -1489h-235z M1241 246q0 61 38 114.5t114 88.5q-58 24 -92.5 71t-34.5 107q0 119 94 182.5t266 63.5q166 0 262 -60.5t96 -183.5q0 -119 -131 -182q88 -39 122 -85t34 -116q0 -125 -100.5 -193.5t-282.5 -68.5q-184 0 -284.5 65.5t-100.5 196.5zM1481 246q0 -39 33.5 -64.5t111.5 -25.5 t110.5 27.5t32.5 68.5q0 33 -29.5 62.5t-113.5 54.5q-86 -25 -115.5 -53.5t-29.5 -69.5zM1495 625q0 -35 24.5 -58.5t108.5 -44.5q72 19 99.5 42.5t27.5 56.5q-5 80 -133 80q-72 0 -99.5 -24t-27.5 -52z" horiz-adv-x="2095" unicode="⅝"/><glyph d="M70 1200v188h768v-139l-365 -717h-287l381 668h-497zM525 -51l747 1489h238l-750 -1489h-235zM1241 246q0 61 38 114.5t114 88.5q-58 24 -92.5 71t-34.5 107q0 119 94 182.5t266 63.5q166 0 262 -60.5t96 -183.5q0 -119 -131 -182q88 -39 122 -85t34 -116 q0 -125 -100.5 -193.5t-282.5 -68.5q-184 0 -284.5 65.5t-100.5 196.5zM1481 246q0 -39 33.5 -64.5t111.5 -25.5t110.5 27.5t32.5 68.5q0 33 -29.5 62.5t-113.5 54.5q-86 -25 -115.5 -53.5t-29.5 -69.5zM1495 625q0 -35 24.5 -58.5t108.5 -44.5q72 19 99.5 42.5t27.5 56.5 q-5 80 -133 80q-72 0 -99.5 -24t-27.5 -52z" horiz-adv-x="2095" unicode="⅞"/><glyph d="M190 494v47q80 40 144.5 85.5t129 106t138.5 144.5h78q-76 -157 -168 -273h1346v-176h-1346q57 -69 94.5 -132t73.5 -138h-78q-109 122 -196 193.5t-216 142.5z" horiz-adv-x="2048" unicode="←"/><glyph d="M154 1178v75q151 140 215 223t120 191h46q63 -121 131 -203t206 -211v-75q-66 29 -128 64.5t-144 100.5v-1343h-174v1343q-70 -52 -120.5 -84.5t-151.5 -80.5z" horiz-adv-x="1024" unicode="↑"/><glyph d="M190 428v176h1344q-70 90 -97.5 139t-68.5 134h76q140 -154 223 -218t191 -120v-45q-121 -64 -221 -146.5t-193 -189.5h-76q49 100 84 157t82 113h-1344z" horiz-adv-x="2048" unicode="→"/><glyph d="M152 414v75q94 -45 149 -79t123 -86v1343h174v-1343q68 49 120 83.5t152 81.5v-75q-135 -123 -204 -211q-68 -82 -131 -203h-46q-63 121 -131 203t-206 211z" horiz-adv-x="1024" unicode="↓"/><glyph d="M190 494v47q80 40 144.5 85.5t129 106t138.5 144.5h78q-76 -157 -168 -273h1022q-60 78 -73.5 98.5t-39.5 69.5t-53 105h76q140 -154 223 -218t191 -120v-45q-121 -64 -221 -146.5t-193 -189.5h-76q60 122 76 147q30 50 90 123h-1022q57 -69 94.5 -132t73.5 -138h-78 q-109 122 -196 193.5t-216 142.5z" horiz-adv-x="2048" unicode="↔"/><glyph d="M154 414v75q73 -34 135.5 -70t136.5 -95v1019q-53 -43 -106.5 -78t-165.5 -87v75q125 112 197.5 201t137.5 213h46q60 -114 128 -201t209 -213v-75q-116 54 -159 81.5t-113 83.5v-1019l65 48q78 56 207 117v-75q-139 -123 -206 -209t-131 -205h-46q-63 121 -145 220.5 t-190 193.5z" horiz-adv-x="1024" unicode="↕"/><glyph d="M154 -74h718v-174h-718v174zM154 414v75q62 -29 127 -66.5t145 -98.5v1019q-48 -38 -110 -78t-162 -87v75q141 128 215 226t120 188h46q54 -104 118 -190.5t219 -223.5v-75q-116 54 -159 81.5t-113 83.5v-1019q105 78 152 105t120 60v-75q-80 -69 -135 -126.5 t-104.5 -127t-97.5 -160.5h-46q-63 121 -145 220.5t-190 193.5z" horiz-adv-x="1024" unicode="↨"/><glyph d="M90 397q0 180 73 319.5t199 215.5t267 76q102 0 175 -40t105 -94h4q7 35 7 105q0 141 -70 226t-203 85q-115 0 -213 -61l-59 184q49 35 134 59.5t185 24.5q236 0 368 -150t132 -407q0 -261 -89 -491t-240 -352t-335 -122q-193 0 -316.5 119t-123.5 303zM373 387 q0 -90 45 -144.5t123 -54.5q116 0 209 137t129 347q-21 61 -68 102t-125 41q-83 0 -155 -56.5t-115 -157t-43 -214.5z" horiz-adv-x="1286" unicode="∂"/><glyph d="M27 0v115l222 635q141 406 224 634h344l440 -1269v-115h-1230zM340 236h584l-260 763q-13 37 -18 68t-9 41h-8q-14 -72 -25 -104z" horiz-adv-x="1284" unicode="∆"/><glyph d="M162 -471v1905h1286v-1905h-287v1659h-712v-1659h-287z" horiz-adv-x="1610" unicode="∏"/><glyph d="M72 -319l643 811l-606 778v164h1183v-230h-815l547 -706l-580 -740h891v-229h-1263v152z" horiz-adv-x="1407" unicode="∑"/><glyph d="M133 479v205h1161v-205h-1161z" horiz-adv-x="1427" unicode="−"/><glyph d="M-12 -299l690 1819h256l-692 -1819h-254z" horiz-adv-x="1036" unicode="∕"/><glyph d="M113 598q0 152 157 152q162 0 162 -152q0 -84 -42 -116.5t-120 -32.5q-88 0 -122.5 39.5t-34.5 109.5z" horiz-adv-x="545" unicode="∙"/><glyph d="M39 666l315 202l267 -614l350 1239h186l-432 -1518h-207l-278 631l-121 -76z" horiz-adv-x="1196" unicode="√"/><glyph d="M96 596q0 162 107 269.5t278 107.5q129 0 229.5 -63.5t170.5 -161.5h4q70 103 173.5 164t221.5 61q169 0 278 -104t109 -267q0 -169 -108 -276t-275 -107q-121 0 -224.5 60.5t-172.5 164.5h-4q-68 -94 -170.5 -159.5t-227.5 -65.5q-176 0 -282.5 106t-106.5 271zM309 596 q0 -80 53.5 -134t139.5 -54q84 0 153.5 55t120.5 135q-53 80 -124.5 133t-153.5 53q-90 0 -139.5 -55t-49.5 -133zM989 598q117 -190 277 -190q96 0 143 58t47 132t-47 130t-145 56q-156 0 -275 -186z" horiz-adv-x="1763" unicode="∞"/><glyph d="M123 0v1667h135v-1532h1667v-135h-1802z" horiz-adv-x="2048" unicode="∟"/><glyph d="M158 0v588q0 186 7 307.5t51.5 225.5t123.5 181t182 117.5t215 40.5q137 0 246 -49t182 -137q75 -89 108 -194.5t37.5 -208t4.5 -283.5v-588h-146v596q0 225 -10.5 323t-51.5 177t-95 126.5t-122.5 70t-154.5 22.5q-136 0 -227.5 -56.5t-141.5 -156t-57 -221.5 q-4 -108 -4 -285v-596h-147z" horiz-adv-x="1473" unicode="∩"/><glyph d="M96 -453l54 201q45 -20 98 -20q71 0 110 45t39 133v1206q0 195 95.5 309.5t291.5 114.5q60 0 117 -11.5t86 -25.5l-57 -196q-57 20 -101 20q-69 0 -108 -44t-39 -134v-1208q0 -197 -97.5 -309.5t-291.5 -112.5q-49 0 -107.5 9t-89.5 23z" horiz-adv-x="1083" unicode="∫"/><glyph d="M133 139v213q190 144 350 144q66 0 127.5 -22.5t123 -49.5t123 -49.5t126.5 -22.5q57 0 139.5 36t171.5 97v-213q-192 -143 -342 -143q-69 0 -132.5 22.5t-125 49t-123 49t-127.5 22.5q-114 0 -311 -133zM133 610v213q190 144 350 144q66 0 127.5 -22.5t123 -49.5 t123 -49.5t126.5 -22.5q57 0 139.5 36t171.5 97v-213q-192 -143 -342 -143q-69 0 -132.5 22.5t-125 49t-123 49t-127.5 22.5q-114 0 -311 -133z" horiz-adv-x="1427" unicode="≈"/><glyph d="M133 233v205h381l145 287h-526v205h629l188 375h238l-189 -375h295v-205h-399l-143 -287h542v-205h-647l-158 -315h-235l158 315h-279z" horiz-adv-x="1427" unicode="≠"/><glyph d="M133 0v205h1161v-205h-1161zM133 432v205h1161v-205h-1161zM133 866v205h1161v-205h-1161z" horiz-adv-x="1427" unicode="≡"/><glyph d="M133 0v217h1161v-217h-1161zM133 719v207l1161 436v-223l-870 -318l870 -266v-223z" horiz-adv-x="1427" unicode="≤"/><glyph d="M133 0v217h1161v-217h-1161zM133 332v223l871 266l-871 318v223l1161 -436v-207z" horiz-adv-x="1427" unicode="≥"/><glyph d="M154 0v635l460 518l461 -518v-635h-921zM233 82h762v518l-381 426l-381 -426v-518z" horiz-adv-x="1229" unicode="⌂"/></font>
</defs>
</svg>
